<svg xmlns="http://www.w3.org/2000/svg" viewBox="0 0 21.06 16.66"><defs><style>.cls-1{fill:#02595a;}</style></defs><title>Asset 32</title><g id="Layer_2" data-name="Layer 2"><g id="Layer_2-2" data-name="Layer 2"><path class="cls-1" d="M18.84,5.9v8.94A1.72,1.72,0,0,1,17,16.66H15.33c-4.48,0-9,0-13.45,0a1.88,1.88,0,0,1-1.32-.45A1.9,1.9,0,0,1,0,15.16V3.72l0-.07A1.74,1.74,0,0,1,1.86,2.2h5.8a.55.55,0,0,1,.48.22c.41.51.85,1,1.26,1.51a.41.41,0,0,0,.35.17H17a2.37,2.37,0,0,1,.59.06A1.7,1.7,0,0,1,18.84,5.9Z"/><path class="cls-1" d="M21.06,12.72a1.69,1.69,0,0,1-1.32,1.68l-.17,0v-.27c0-2.76,0-5.51,0-8.27a2.42,2.42,0,0,0-1.92-2.46A2.81,2.81,0,0,0,17,3.36H10.09a.39.39,0,0,1-.35-.16C9.39,2.77,9,2.35,8.67,1.92a1.16,1.16,0,0,0-1-.45H2.26A1.69,1.69,0,0,1,3.7,0l.39,0H9.87a.57.57,0,0,1,.51.24c.41.5.84,1,1.25,1.5a.42.42,0,0,0,.35.15H19.2a1.85,1.85,0,0,1,1.18.35,1.74,1.74,0,0,1,.68,1.47v7.52C21.06,11.73,21.07,12.22,21.06,12.72Z"/></g></g></svg>