<svg xmlns="http://www.w3.org/2000/svg" viewBox="0 0 23.72 23.71"><defs><style>.cls-1{fill:#02595a;}</style></defs><title>Asset 33</title><g id="Layer_2" data-name="Layer 2"><g id="Layer_2-2" data-name="Layer 2"><path class="cls-1" d="M17,21.1a1.23,1.23,0,0,1-.89,1.2,18.23,18.23,0,0,1-3.25.91,23.34,23.34,0,0,1-3.92.49,17.78,17.78,0,0,1-3.18-.22,24.27,24.27,0,0,1-4.37-1c-.19-.06-.37-.14-.56-.21a1.34,1.34,0,0,1-.81-1v-.79c.05-.42.08-.84.14-1.26a15.1,15.1,0,0,1,.79-3.63,3.18,3.18,0,0,1,2-1.89c.56-.19,1.1-.4,1.64-.63.16-.07.24,0,.34.1a4.26,4.26,0,0,0,2.4,1.56A4.53,4.53,0,0,0,12,13.27c.29-.33.16-.28.54-.14s.91.38,1.38.52A3.29,3.29,0,0,1,16.22,16a19.06,19.06,0,0,1,.69,3.75C17,20.21,17,20.66,17,21.1Z"/><path class="cls-1" d="M19,8.75a3.68,3.68,0,0,1-5.54,1.07.37.37,0,0,1-.15-.4,7.69,7.69,0,0,0,.13-2.62,4.46,4.46,0,0,0-1.77-3.23.28.28,0,0,1-.12-.33A3.81,3.81,0,0,1,15.09.05l.29,0H16c.28,0,.57.06.85.12A3.79,3.79,0,0,1,20,3.83,8.48,8.48,0,0,1,19,8.75Z"/><path class="cls-1" d="M11.74,12.22A3.45,3.45,0,0,1,9.2,14a3.55,3.55,0,0,1-3.61-1.42A7.07,7.07,0,0,1,4.36,9.48C4.27,9,4.23,8.42,4.16,7.9a5.84,5.84,0,0,1,.46-2.19,3.51,3.51,0,0,1,2.23-2,5.48,5.48,0,0,1,3.42,0,3.59,3.59,0,0,1,2.5,3.05A8.21,8.21,0,0,1,11.74,12.22Z"/><path class="cls-1" d="M23,18.67a22.28,22.28,0,0,1-4.19,1c-.44.08-.87.13-1.33.19-.05-.43-.08-.84-.16-1.25-.18-.93-.34-1.86-.59-2.78a3.78,3.78,0,0,0-2.64-2.71c-.56-.18-1.11-.43-1.67-.66l-.15-.08L13,10.8a4.79,4.79,0,0,0,6.22-.6l2.28.86a2.53,2.53,0,0,1,1.4,1.52,11.74,11.74,0,0,1,.64,2.74c.1.73.17,1.46.22,2.19S23.63,18.42,23,18.67Z"/></g></g></svg>