<svg xmlns="http://www.w3.org/2000/svg" viewBox="0 0 28.81 28.81"><defs><style>.cls-1{fill:#02595a;}</style></defs><title>Asset 21</title><g id="Layer_2" data-name="Layer 2"><g id="Layer_2-2" data-name="Layer 2"><path class="cls-1" d="M7.55,8V8h0l0,0Z"/><path class="cls-1" d="M28.35,26.12a10.37,10.37,0,0,0-7.74-1.9,34,34,0,0,0-5.36,1.12l-2.86.78c-.84-3.14-1.67-6.26-2.52-9.4a2.82,2.82,0,0,1,1.3.29c.68.32,1,.24,1.41-.36a3,3,0,0,1,2.6-1.35,3.6,3.6,0,0,1,1.51.39.84.84,0,0,0,1.17-1A9.07,9.07,0,0,0,9.82,8C9.08,8,8.33,8,7.54,8L7.19,6.68A.87.87,0,0,0,6.14,6a.85.85,0,0,0-.58,1.13l.36,1.39-.19.09A8.92,8.92,0,0,0,.32,14.7C.17,15.22.1,15.78,0,16.32v1.4c.09.52.19,1,.28,1.55a.86.86,0,0,0,1.63.3,3.09,3.09,0,0,1,4-1.1.87.87,0,0,0,1.29-.35,2.5,2.5,0,0,1,1-.94l2.5,9.33c-.42.09-.82.19-1.23.26a17.44,17.44,0,0,1-4.67.29A11.14,11.14,0,0,1,1.4,26.2c-.7-.3-1-.18-1.4.47v.39a1.17,1.17,0,0,0,.72.69,13,13,0,0,0,4.16,1,1,1,0,0,1,.24,0H7l1.28-.14A45.33,45.33,0,0,0,14,27.44c1.72-.46,3.43-.91,5.17-1.29A11.87,11.87,0,0,1,24.23,26a7.92,7.92,0,0,1,3.14,1.45.84.84,0,0,0,1.39-.36l0-.07v-.39A4.06,4.06,0,0,0,28.35,26.12ZM5.11,16.45c-2,.11-2,.11-3.37.86-.59-1.78,1.41-5.52,3.57-6.61A10.92,10.92,0,0,0,5.11,16.45ZM13,10.74a7.33,7.33,0,0,1,2.68,2.89,4.87,4.87,0,0,0-3.39.93,10.71,10.71,0,0,0-3-4.86A6.8,6.8,0,0,1,13,10.74ZM6.81,16.09a8.44,8.44,0,0,1,.48-5.79,8.87,8.87,0,0,1,3.34,4.78A4.84,4.84,0,0,0,6.81,16.09Z"/><path class="cls-1" d="M22.85,1.13c0,.21,0,.43,0,.64a.84.84,0,0,1-1.68,0,8.85,8.85,0,0,1,0-1,.94.94,0,0,1,.6-.77h.45A1,1,0,0,1,22.85,1.13Z"/><path class="cls-1" d="M28.81,6.58V7a1,1,0,0,1-1.13.62c-.21,0-.41,0-.62,0a.85.85,0,0,1,0-1.69c.21,0,.42,0,.62,0A1,1,0,0,1,28.81,6.58Z"/><path class="cls-1" d="M22,4a2.83,2.83,0,1,0,2.82,2.85A2.82,2.82,0,0,0,22,4Zm0,4a1.15,1.15,0,1,1,1.14-1.14A1.13,1.13,0,0,1,22,8Z"/><path class="cls-1" d="M26.91,3.05a7.15,7.15,0,0,1-.87.87,1,1,0,0,1-.38.15.84.84,0,0,1-.83-.48.79.79,0,0,1,.1-.89,7.79,7.79,0,0,1,.76-.76.83.83,0,0,1,1.1,0A.81.81,0,0,1,26.91,3.05Z"/><path class="cls-1" d="M19.26,10.35a2.07,2.07,0,0,1-1.47,1.51A.8.8,0,0,1,17,11.4a.77.77,0,0,1,.09-.89,7.09,7.09,0,0,1,.77-.78.84.84,0,0,1,1.36.62Z"/><path class="cls-1" d="M19.18,3.58a.78.78,0,0,1-.69.48A2,2,0,0,1,17,2.58a.79.79,0,0,1,.46-.74.8.8,0,0,1,.92.11,7.28,7.28,0,0,1,.73.74A.79.79,0,0,1,19.18,3.58Z"/><path class="cls-1" d="M26.83,11.59a.8.8,0,0,1-1.09.11,6.51,6.51,0,0,1-.83-.83,1.57,1.57,0,0,1-.2-.48.9.9,0,0,1,.51-.76.77.77,0,0,1,.89.11,6.73,6.73,0,0,1,.76.75A.82.82,0,0,1,26.83,11.59Z"/><path class="cls-1" d="M17.79,6.78a.83.83,0,0,1-.79.86,8.51,8.51,0,0,1-1,0,.83.83,0,0,1-.78-.84A.86.86,0,0,1,16,6H17A.85.85,0,0,1,17.79,6.78Z"/><path class="cls-1" d="M22.84,12.32c0,.16,0,.32,0,.48a.84.84,0,0,1-.84.81.85.85,0,0,1-.84-.79,8.51,8.51,0,0,1,0-1,.84.84,0,0,1,1.68,0C22.85,12,22.84,12.16,22.84,12.32Z"/></g></g></svg>