<svg xmlns="http://www.w3.org/2000/svg" viewBox="0 0 21.93 17.03"><defs><style>.cls-1{fill:#02595a;}</style></defs><title>Asset 22</title><g id="Layer_2" data-name="Layer 2"><g id="Layer_2-2" data-name="Layer 2"><path class="cls-1" d="M21.93,2.22v.51A2.55,2.55,0,0,1,21.12,4L8.5,16.61A1.14,1.14,0,0,1,7.32,17a1.31,1.31,0,0,1-.52-.31Q3.65,13.55.53,10.41A1.68,1.68,0,0,1,.54,8l.71-.71a1.68,1.68,0,0,1,2.45,0Q5.58,9.11,7.43,11a1.3,1.3,0,0,1,.17.25A2.34,2.34,0,0,1,7.8,11L18.15.61a1.69,1.69,0,0,1,2.6,0L21.1,1A2.43,2.43,0,0,1,21.93,2.22Z"/></g></g></svg>