<svg xmlns="http://www.w3.org/2000/svg" viewBox="0 0 25.33 40"><defs><style>.cls-1{fill:#fff;}</style></defs><title>Asset 10</title><g id="Layer_2" data-name="Layer 2"><g id="Layer_2-2" data-name="Layer 2"><path class="cls-1" d="M25.33,3.57c0-.16,0-.31,0-.47a3.29,3.29,0,0,0-.79-1.91A3.6,3.6,0,0,0,22.36,0H3L2.92,0A3.41,3.41,0,0,0,0,3.65C.05,5.49,0,7.34,0,9.19V36.45A3.33,3.33,0,0,0,3.42,40H21.93a3.32,3.32,0,0,0,2.1-.7,3.43,3.43,0,0,0,1.3-2.87ZM3.6,1.33H21.75A2.09,2.09,0,0,1,24,4H1.38A2.08,2.08,0,0,1,3.6,1.33ZM24,5.36V32H1.35V5.36Zm0,31.5a1.94,1.94,0,0,1-1.67,1.77,4.07,4.07,0,0,1-.5,0H3.53a2,2,0,0,1-2.17-1.8c0-.31,0-.62,0-.93V33.36H24C24,34.55,24,35.71,24,36.86Z"/><path class="cls-1" d="M12.69,34a2,2,0,0,0-2,2,2,2,0,0,0,4,0A2,2,0,0,0,12.69,34Zm0,2.66a.66.66,0,1,1,.66-.66A.65.65,0,0,1,12.66,36.65Z"/><path class="cls-1" d="M14,2.65a.6.6,0,0,1-.54.65,6.81,6.81,0,0,1-.78.05,6.81,6.81,0,0,1-.78-.05.61.61,0,0,1-.54-.65A.61.61,0,0,1,11.93,2a12.18,12.18,0,0,1,1.48,0A.6.6,0,0,1,14,2.65Z"/></g></g></svg>