<svg xmlns="http://www.w3.org/2000/svg" viewBox="0 0 45.35 36.96"><defs><style>.cls-1{fill:#fff;}</style></defs><title>Asset 13</title><g id="Layer_2" data-name="Layer 2"><g id="Layer_2-2" data-name="Layer 2"><path class="cls-1" d="M45.35,4.54c-.76.88-1.47,1.79-2.27,2.62C42.45,7.82,41.7,8.37,41,9a.86.86,0,0,0-.28.57c0,9.62-3.8,17.34-11.62,23A24,24,0,0,1,18,36.71a27.45,27.45,0,0,1-11.26-.8A25.76,25.76,0,0,1,.18,33L0,32.8A19,19,0,0,0,13.63,29a9.61,9.61,0,0,1-8.69-6.51,10.32,10.32,0,0,0,4.11-.17A9.39,9.39,0,0,1,1.74,13a9.6,9.6,0,0,0,4.13,1.1,9.39,9.39,0,0,1-4-6.61,9.06,9.06,0,0,1,1.2-5.8,26.63,26.63,0,0,0,19.23,9.73,11.14,11.14,0,0,1-.09-3.59A9.33,9.33,0,0,1,38,2.69a.77.77,0,0,0,.57.16A17.48,17.48,0,0,0,43.66.93l.43-.21a9.66,9.66,0,0,1-3.83,5,17.77,17.77,0,0,0,5-1.32Z"/></g></g></svg>