<svg xmlns="http://www.w3.org/2000/svg" viewBox="0 0 31.32 31.38"><defs><style>.cls-1{fill:#02595a;}</style></defs><title>Asset 36</title><g id="Layer_2" data-name="Layer 2"><g id="Layer_2-2" data-name="Layer 2"><path class="cls-1" d="M30.41,27.35c-.94.95-1.9,1.89-2.84,2.84a4.09,4.09,0,0,1-2.42,1.14l-.23.05H23.63c-.76-.16-1.54-.29-2.29-.5A19,19,0,0,1,17,29,41.13,41.13,0,0,1,6.66,20.3a33.71,33.71,0,0,1-4.94-7.24A15.81,15.81,0,0,1,.07,7.93,5.44,5.44,0,0,1,.53,4.61a4.14,4.14,0,0,1,.66-.91C2.1,2.77,3,1.86,4,.92a3.12,3.12,0,0,1,4.43,0c1.43,1.39,2.83,2.8,4.23,4.22a2.94,2.94,0,0,1,0,4.27,3,3,0,0,1-.93.56,3.17,3.17,0,0,0-1.9,1.72,2.6,2.6,0,0,0-.12,1.76,10.7,10.7,0,0,0,2.58,4.39,13.94,13.94,0,0,0,4.21,3.26,4,4,0,0,0,2.29.55,2.79,2.79,0,0,0,2.42-1.76,3.26,3.26,0,0,1,1.24-1.66,2.92,2.92,0,0,1,3.68.41C27.58,20.08,29,21.53,30.47,23A3.1,3.1,0,0,1,30.41,27.35Z"/></g></g></svg>