<svg xmlns="http://www.w3.org/2000/svg" viewBox="0 0 9.74 9.74"><defs><style>.cls-1{fill:#fff;}</style></defs><title>Asset 6</title><g id="Layer_2" data-name="Layer 2"><g id="Layer_2-2" data-name="Layer 2"><path class="cls-1" d="M8.46,4.39a.32.32,0,0,1-.52.25.33.33,0,0,1-.11-.27A3.59,3.59,0,0,0,7,2,3.49,3.49,0,0,0,4.67.67,3.59,3.59,0,0,0,2.86,7.56a3.84,3.84,0,0,0,1.5.27.32.32,0,0,1,.35.31.32.32,0,0,1-.34.33A4.24,4.24,0,0,1,.08,5.07c0-.18,0-.38-.08-.56V4c0-.06,0-.12,0-.17A4.13,4.13,0,0,1,1,1.56,4.14,4.14,0,0,1,3.47.07L4,0h.55L5,.07a4.18,4.18,0,0,1,3,2.35A4,4,0,0,1,8.46,4.39Z"/><path class="cls-1" d="M9.36,5.81,4.75,4.06a.56.56,0,0,0-.34,0,.52.52,0,0,0-.35.71L5.22,7.81l.6,1.56a.53.53,0,0,0,.51.37.55.55,0,0,0,.52-.4c.19-.6.39-1.2.58-1.79a.15.15,0,0,1,.12-.12l1.78-.58a.55.55,0,0,0,.41-.5A.57.57,0,0,0,9.36,5.81Zm-1.53.87-.69.22a.36.36,0,0,0-.24.24c-.18.55-.37,1.11-.55,1.67a.41.41,0,0,0,0,.1L4.73,4.73,8.91,6.32Z"/></g></g></svg>