<svg xmlns="http://www.w3.org/2000/svg" viewBox="0 0 21.38 16.1"><defs><style>.cls-1{fill:#02595a;}</style></defs><title>Asset 20</title><g id="Layer_2" data-name="Layer 2"><g id="Layer_2-2" data-name="Layer 2"><path class="cls-1" d="M21.15,6.27a1.42,1.42,0,0,1-1.67.56,1.91,1.91,0,0,1-.63-.43,12.48,12.48,0,0,0-2.59-2.1A10.59,10.59,0,0,0,9.48,2.94,10.59,10.59,0,0,0,3.19,6l-.67.68A1.43,1.43,0,0,1,0,6.07S0,6,0,6V5.58A2.17,2.17,0,0,1,.7,4.5,15,15,0,0,1,4.4,1.61a13.7,13.7,0,0,1,13.13.14A14.63,14.63,0,0,1,21,4.48,1.44,1.44,0,0,1,21.15,6.27Z"/><path class="cls-1" d="M17.77,9.39a1.49,1.49,0,0,1-.92,1.3,1.41,1.41,0,0,1-1.59-.19c-.34-.27-.62-.58-.94-.87a5,5,0,0,0-6.53-.2c-.44.36-.81.78-1.22,1.17a1.56,1.56,0,0,1-1.95.28A1.54,1.54,0,0,1,4.17,8.6a9.14,9.14,0,0,1,5-3.23,8,8,0,0,1,4.77.39,8.84,8.84,0,0,1,3.47,2.53A1.66,1.66,0,0,1,17.77,9.39Z"/><path class="cls-1" d="M13.23,13.59a2.5,2.5,0,1,1-2.49-2.5A2.51,2.51,0,0,1,13.23,13.59Z"/></g></g></svg>