<svg xmlns="http://www.w3.org/2000/svg" viewBox="0 0 10.19 20.41"><defs><style>.cls-1{fill:#fff;}</style></defs><title>Asset 26</title><g id="Layer_2" data-name="Layer 2"><g id="Layer_2-2" data-name="Layer 2"><path class="cls-1" d="M10.19.13V3.37H10c-.7,0-1.4,0-2.09,0a1.19,1.19,0,0,0-1.24,1.2c0,1,0,2,0,3H9.88c-.14,1.22-.29,2.41-.45,3.62H6.6c0,.09,0,.15,0,.21v8.75a1.23,1.23,0,0,0,0,.19H2.93a1.21,1.21,0,0,0,0-.19V11.27H0V7.64H2.94V7.39c0-1.06,0-2.13.05-3.19A4.31,4.31,0,0,1,4.48,1,4.13,4.13,0,0,1,7.2,0c1,0,1.91.06,2.87.1Z"/></g></g></svg>