<svg id="Layer_1" data-name="Layer 1" xmlns="http://www.w3.org/2000/svg" viewBox="0 0 31.38 31.35"><defs><style>.cls-1{fill:#fff;}</style></defs><title>Asset 40</title><g id="Layer_2" data-name="Layer 2"><g id="Layer_2-2" data-name="Layer 2-2"><path class="cls-1" d="M27.32.94l2.84,2.84A4.09,4.09,0,0,1,31.3,6.2l.05.23V7.72c-.16.76-.29,1.54-.5,2.29A18.76,18.76,0,0,1,29,14.35a41.3,41.3,0,0,1-8.7,10.34A34.08,34.08,0,0,1,13,29.63,15.73,15.73,0,0,1,7.9,31.28a5.43,5.43,0,0,1-3.32-.46,4.23,4.23,0,0,1-.91-.66c-.93-.91-1.84-1.81-2.78-2.81a3.12,3.12,0,0,1,0-4.41l0,0c1.39-1.43,2.8-2.83,4.22-4.23a3,3,0,0,1,4.16-.12l.11.12a3,3,0,0,1,.56.93,3.22,3.22,0,0,0,1.72,1.9,2.67,2.67,0,0,0,1.76.12,10.74,10.74,0,0,0,4.39-2.58,13.94,13.94,0,0,0,3.26-4.21,4,4,0,0,0,.55-2.29,2.78,2.78,0,0,0-1.76-2.42A3.26,3.26,0,0,1,18.2,8.9a2.91,2.91,0,0,1,.41-3.68C20.05,3.77,21.5,2.35,23,.88A3.1,3.1,0,0,1,27.32.94Z" transform="translate(0.03 -0.02)"/></g></g></svg>