<svg xmlns="http://www.w3.org/2000/svg" viewBox="0 0 23.52 47.11"><defs><style>.cls-1{fill:#fff;}</style></defs><title>Asset 14</title><g id="Layer_2" data-name="Layer 2"><g id="Layer_2-2" data-name="Layer 2"><path class="cls-1" d="M23.52.33V7.79H23c-1.61,0-3.23,0-4.83.1a2.73,2.73,0,0,0-2.84,2.76c-.13,2.31,0,4.63,0,7h7.54c-.35,2.82-.69,5.58-1,8.38H15.25a4.47,4.47,0,0,0,0,.47q0,10.11,0,20.21c0,.13,0,.27,0,.41H6.78c0-.14,0-.28,0-.42V26H0V17.65H6.81v-.57c0-2.46,0-4.92.08-7.37a10,10,0,0,1,3.45-7.46A9.61,9.61,0,0,1,16.62,0c2.21,0,4.41.17,6.62.26A1.9,1.9,0,0,1,23.52.33Z"/></g></g></svg>