<svg xmlns="http://www.w3.org/2000/svg" viewBox="0 0 28.71 17.95"><defs><style>.cls-1{fill:#fff;}</style></defs><title>Asset 30</title><g id="Layer_2" data-name="Layer 2"><g id="Layer_2-2" data-name="Layer 2"><polygon class="cls-1" points="28.71 7.19 28.71 8.98 25.12 8.98 25.12 12.55 23.34 12.55 23.34 8.98 19.75 8.98 19.75 7.2 23.32 7.2 23.32 3.61 25.11 3.61 25.11 7.19 28.71 7.19"/><path class="cls-1" d="M17.32,12.26a9,9,0,0,1-4.23,4.68,8.65,8.65,0,0,1-5,.95,8.71,8.71,0,0,1-4.91-2.11A8.72,8.72,0,0,1,.22,10.89a8.71,8.71,0,0,1,.94-6.3,8.72,8.72,0,0,1,5-4.1A8.62,8.62,0,0,1,12.94,1c.65.32,1.25.76,1.92,1.18L12.47,4.89a5.3,5.3,0,0,0-5.16-1A5.24,5.24,0,0,0,4,6.85a5.37,5.37,0,1,0,10,3.92H9V7.2H17.9s0,0,0,0A12.23,12.23,0,0,1,17.32,12.26Z"/></g></g></svg>