<svg xmlns="http://www.w3.org/2000/svg" viewBox="0 0 43.1 29.5"><defs><style>.cls-1{fill:#fff;}</style></defs><title>Asset 12</title><g id="Layer_2" data-name="Layer 2"><g id="Layer_2-2" data-name="Layer 2"><path class="cls-1" d="M42.93,9.91A24.11,24.11,0,0,0,42.16,5a9.72,9.72,0,0,0-1.28-2.82A4.38,4.38,0,0,0,37.26.26C34.93.14,32.61,0,30.28,0Q19.95,0,9.62.07C8.19.08,6.76.2,5.34.33A4.37,4.37,0,0,0,1.75,2.91a14.51,14.51,0,0,0-1.4,5.2C.21,9.32.16,10.54.07,11.76c0,.15,0,.3-.07.45v5.05c.06.79.11,1.59.17,2.38a20.15,20.15,0,0,0,1.17,6,5.34,5.34,0,0,0,2.4,3,7,7,0,0,0,3.19.64c6.75.08,13.49.17,20.24.2,3,0,6-.11,9-.2a13.49,13.49,0,0,0,1.88-.2,4.43,4.43,0,0,0,3.29-2.55,14.08,14.08,0,0,0,1.41-5.19c.13-1.21.19-2.43.28-3.65a3.5,3.5,0,0,1,.07-.45V12.21C43,11.44,43,10.68,42.93,9.91ZM16.17,22.81V6.66l13.46,8.08Z"/></g></g></svg>