<svg xmlns="http://www.w3.org/2000/svg" viewBox="0 0 9.12 9.04"><defs><style>.cls-1{fill:#02595a;}</style></defs><title>Asset 4</title><g id="Layer_2" data-name="Layer 2"><g id="Layer_2-2" data-name="Layer 2"><path class="cls-1" d="M8.65,4,5.86,3.48l-.54-.11V1.23a.58.58,0,0,0-.5-.6L3.8.48.8,0a.72.72,0,0,0-.59.1A.88.88,0,0,0,0,.46V8.58a2.26,2.26,0,0,0,.11.22A.55.55,0,0,0,.48,9H8.66a.57.57,0,0,0,.46-.6V4.62A.56.56,0,0,0,8.65,4ZM3.42,8.65H1.91a.22.22,0,0,1,0-.08V7c0-.18.07-.24.24-.24h1c.17,0,.23.07.23.24,0,.53,0,1,0,1.57Zm1.52-.08a.31.31,0,0,1,0,.09H3.79V8.55c0-.52,0-1,0-1.55a.56.56,0,0,0-.62-.62h-1A.6.6,0,0,0,1.51,7c0,.51,0,1,0,1.53v.12H.64c-.2,0-.26-.06-.26-.26V.58A.2.2,0,0,1,.63.38L3.41.8,4.73,1c.16,0,.21.08.21.25Zm3.8-.18c0,.21-.07.27-.27.27H5.32V3.77l.86.17c.78.14,1.55.3,2.33.46.18,0,.23.08.23.27Z"/><path class="cls-1" d="M0,8.58l.11.22A.58.58,0,0,0,.48,9H0Z"/><path class="cls-1" d="M2.28,2a.18.18,0,0,1-.19.18H1.34A.18.18,0,0,1,1.14,2a.19.19,0,0,1,.2-.19h.74A.19.19,0,0,1,2.28,2Z"/><path class="cls-1" d="M2.28,3.15a.2.2,0,0,1-.2.2H1.35a.2.2,0,0,1-.21-.2c0-.11.08-.18.21-.18h.74A.18.18,0,0,1,2.28,3.15Z"/><path class="cls-1" d="M2.28,4.3c0,.11-.08.18-.21.18H1.36c-.13,0-.22-.07-.22-.18a.2.2,0,0,1,.21-.2h.72A.2.2,0,0,1,2.28,4.3Z"/><path class="cls-1" d="M2.28,5.43a.19.19,0,0,1-.21.19H1.35a.2.2,0,0,1-.21-.19c0-.11.08-.18.21-.18h.73A.18.18,0,0,1,2.28,5.43Z"/><path class="cls-1" d="M4.18,2c0,.11-.08.18-.21.18H3.25c-.13,0-.21-.07-.2-.19s.07-.18.2-.19H4A.2.2,0,0,1,4.18,2Z"/><path class="cls-1" d="M4.18,3.16a.19.19,0,0,1-.2.19H3.25a.19.19,0,0,1-.2-.2A.17.17,0,0,1,3.24,3H4A.19.19,0,0,1,4.18,3.16Z"/><path class="cls-1" d="M4.18,4.3c0,.11-.08.18-.21.18H3.25a.18.18,0,0,1-.2-.19c0-.11.07-.18.2-.19H4A.2.2,0,0,1,4.18,4.3Z"/><path class="cls-1" d="M4.18,5.43a.19.19,0,0,1-.2.19H3.25c-.13,0-.2-.07-.2-.18s.07-.19.2-.19H4A.18.18,0,0,1,4.18,5.43Z"/><path class="cls-1" d="M7.6,5.44a.19.19,0,0,1-.2.18H6.65a.18.18,0,0,1-.19-.19.17.17,0,0,1,.19-.18h.74A.19.19,0,0,1,7.6,5.44Z"/><path class="cls-1" d="M7.6,6.57c0,.12-.09.19-.22.19H6.66a.19.19,0,1,1,0-.38h.73A.2.2,0,0,1,7.6,6.57Z"/><path class="cls-1" d="M7.6,7.71a.18.18,0,0,1-.2.18q-.37,0-.75,0a.18.18,0,1,1,0-.36c.13,0,.25,0,.38,0s.24,0,.37,0A.18.18,0,0,1,7.6,7.71Z"/></g></g></svg>