<svg xmlns="http://www.w3.org/2000/svg" viewBox="0 0 6.85 6.97"><defs><style>.cls-1{fill:#02595a;}</style></defs><title>Asset 5</title><g id="Layer_2" data-name="Layer 2"><g id="Layer_2-2" data-name="Layer 2"><path class="cls-1" d="M6.77,0H6.71l-.1.08L6.27.42a.15.15,0,0,1-.11,0H3.59a.15.15,0,0,0-.11,0L.15,3.86a.42.42,0,0,0,0,.64L2.47,6.82l.11.09a.41.41,0,0,0,.53-.1L6.34,3.5a.15.15,0,0,0,0-.12V.7A.13.13,0,0,1,6.44.58L6.78.23C6.88.14,6.87.08,6.77,0ZM6.16,1c0,.78,0,1.56,0,2.33a.17.17,0,0,1,0,.12C5.05,4.48,4,5.57,3,6.65a.2.2,0,0,1-.32,0L.32,4.34A.19.19,0,0,1,.32,4L3.57.74a.16.16,0,0,1,.12,0H6l0,0-.47.48s0,0-.09,0a.56.56,0,0,0-.61,0,.53.53,0,0,0-.22.59.57.57,0,0,0,1,.23.57.57,0,0,0,.06-.61c0-.05,0-.07,0-.11L6.16.86ZM5,1.82a.11.11,0,0,0,.17,0l0-.06.16-.16A.32.32,0,0,1,5.32,2a.35.35,0,0,1-.46,0,.34.34,0,0,1,0-.45.33.33,0,0,1,.42-.09c-.08.08-.16.14-.23.22A.1.1,0,0,0,5,1.82Z"/><path class="cls-1" d="M5.26,1.44A2.39,2.39,0,0,0,5,1.66a.1.1,0,0,0,0,.16.11.11,0,0,0,.17,0l0-.06a1.29,1.29,0,0,0,.16-.17A.33.33,0,0,1,5.32,2a.35.35,0,0,1-.46,0,.34.34,0,0,1,0-.45A.33.33,0,0,1,5.26,1.44Z"/></g></g></svg>