<svg xmlns="http://www.w3.org/2000/svg" viewBox="0 0 22.01 17.95"><defs><style>.cls-1{fill:#fff;}</style></defs><title>Asset 28</title><g id="Layer_2" data-name="Layer 2"><g id="Layer_2-2" data-name="Layer 2"><path class="cls-1" d="M22,2.2c-.36.43-.7.87-1.09,1.28s-.68.58-1,.88a.47.47,0,0,0-.14.28A13,13,0,0,1,14.14,15.8a11.58,11.58,0,0,1-5.39,2,13.29,13.29,0,0,1-5.47-.38A12.88,12.88,0,0,1,.09,16L0,15.93a9.23,9.23,0,0,0,6.62-1.86A4.68,4.68,0,0,1,2.4,10.9a4.93,4.93,0,0,0,2-.08A4.58,4.58,0,0,1,.84,6.33a4.66,4.66,0,0,0,2,.54A4.58,4.58,0,0,1,.9,3.66,4.38,4.38,0,0,1,1.48.84a13,13,0,0,0,9.34,4.73,5.44,5.44,0,0,1-.05-1.75A4.55,4.55,0,0,1,14,.17a4.49,4.49,0,0,1,4.42,1.14.34.34,0,0,0,.28.07A8.72,8.72,0,0,0,21.2.45l.21-.1a4.7,4.7,0,0,1-1.86,2.44A8.4,8.4,0,0,0,22,2.15Z"/></g></g></svg>