<svg xmlns="http://www.w3.org/2000/svg" viewBox="0 0 21.75 23.24"><defs><style>.cls-1{fill:#02595a;}</style></defs><title>Asset 35</title><g id="Layer_2" data-name="Layer 2"><g id="Layer_2-2" data-name="Layer 2"><path class="cls-1" d="M21.75,5.4a3.82,3.82,0,0,0-.58-2.16A3.71,3.71,0,0,0,18,1.55H16.46c0-.35,0-.69,0-1a.48.48,0,0,0-.69-.46.51.51,0,0,0-.27.49v1H6.3v-1A.48.48,0,0,0,6,0a.48.48,0,0,0-.66.48c0,.32,0,.65,0,1-.27,0-.53,0-.78,0A9.8,9.8,0,0,0,3,1.61,3.64,3.64,0,0,0,0,5.33q0,7,0,14.09a3.71,3.71,0,0,0,3,3.74l.33.08H18.41a7.18,7.18,0,0,0,1.14-.35,3.6,3.6,0,0,0,2.19-3.47Q21.76,12.42,21.75,5.4Zm-.92,3.16V19.42a2.76,2.76,0,0,1-2.35,2.89,3.63,3.63,0,0,1-.57,0q-7,0-14,0a2.75,2.75,0,0,1-2.84-2.13,3.33,3.33,0,0,1-.07-.7c0-3.67,0-7.33,0-11V8.31H20.83Zm0-1.22H.93a23.07,23.07,0,0,1,.16-2.78A2.62,2.62,0,0,1,3.64,2.5c.56,0,1.12,0,1.7,0v1a.45.45,0,0,0,.3.46.65.65,0,0,0,.48-.09.57.57,0,0,0,.17-.41c0-.32,0-.63,0-1h9.22V3c0,.22,0,.44,0,.65A.44.44,0,0,0,16,4a.43.43,0,0,0,.44-.37,5.78,5.78,0,0,0,0-.72c0-.13,0-.26,0-.42h.37a12.63,12.63,0,0,1,1.63,0,2.66,2.66,0,0,1,2.35,2.54C20.89,5.82,20.85,6.57,20.85,7.34Z"/><path class="cls-1" d="M13,9.62a1.5,1.5,0,1,0,1.46,1.54A1.5,1.5,0,0,0,13,9.62Zm0,2.05a.49.49,0,0,1-.54-.53.56.56,0,0,1,1.11,0A.56.56,0,0,1,13,11.67Z"/><path class="cls-1" d="M8.84,17.91a1.5,1.5,0,0,0,0,3,1.51,1.51,0,0,0,1.52-1.48A1.49,1.49,0,0,0,8.84,17.91Zm0,2.05a.52.52,0,0,1-.55-.55.51.51,0,0,1,.54-.56.56.56,0,1,1,0,1.11Z"/><path class="cls-1" d="M13,13.8a1.49,1.49,0,1,0-.1,3,1.49,1.49,0,0,0,1.54-1.45A1.47,1.47,0,0,0,13,13.8Zm-.08,2a.51.51,0,0,1-.55-.55.5.5,0,0,1,.54-.55c.36,0,.56.2.57.58A.52.52,0,0,1,13,15.84Z"/><path class="cls-1" d="M17.16,13.8a1.48,1.48,0,0,0-1.53,1.46,1.5,1.5,0,1,0,3,0A1.46,1.46,0,0,0,17.16,13.8Zm-.06,2a.52.52,0,0,1-.53-.58.56.56,0,0,1,1.11.05A.52.52,0,0,1,17.1,15.84Z"/><path class="cls-1" d="M17.15,17.91a1.47,1.47,0,0,0-1.52,1.45,1.5,1.5,0,1,0,1.52-1.45Zm0,2.05a.56.56,0,1,1,.54-.57A.52.52,0,0,1,17.14,20Z"/><path class="cls-1" d="M8.85,13.8a1.46,1.46,0,0,0-1.52,1.46,1.48,1.48,0,0,0,1.46,1.52,1.5,1.5,0,0,0,1.53-1.49A1.47,1.47,0,0,0,8.85,13.8Zm0,2a.51.51,0,0,1-.56-.55.5.5,0,0,1,.54-.55.55.55,0,1,1,0,1.1Z"/><path class="cls-1" d="M4.71,9.62a1.49,1.49,0,0,0-1.52,1.45,1.49,1.49,0,0,0,3,.12A1.51,1.51,0,0,0,4.71,9.62Zm-.06,2.05a.55.55,0,0,1,0-1.1.53.53,0,0,1,.57.61A.5.5,0,0,1,4.65,11.67Z"/><path class="cls-1" d="M4.72,13.8a1.49,1.49,0,1,0,1.45,1.52A1.48,1.48,0,0,0,4.72,13.8Zm-.06,2a.55.55,0,0,1,0-1.1.55.55,0,1,1,0,1.1Z"/><path class="cls-1" d="M8.85,9.62a1.5,1.5,0,1,0,1.47,1.52A1.51,1.51,0,0,0,8.85,9.62Zm0,2.05a.5.5,0,0,1-.54-.55.55.55,0,1,1,1.1,0A.5.5,0,0,1,8.81,11.67Z"/><path class="cls-1" d="M17.13,9.62a1.5,1.5,0,1,0,1.49,1.51A1.49,1.49,0,0,0,17.13,9.62Zm0,2.05a.5.5,0,0,1-.55-.55.56.56,0,1,1,1.11,0A.5.5,0,0,1,17.12,11.67Z"/><path class="cls-1" d="M13,17.91a1.5,1.5,0,1,0,1.5,1.5A1.47,1.47,0,0,0,13,17.91ZM13,20a.56.56,0,0,1,0-1.11A.56.56,0,1,1,13,20Z"/><path class="cls-1" d="M4.71,17.91a1.5,1.5,0,1,0,1.46,1.53A1.47,1.47,0,0,0,4.71,17.91ZM4.65,20a.56.56,0,0,1,0-1.11.53.53,0,0,1,.56.59A.52.52,0,0,1,4.65,20Z"/></g></g></svg>