<svg xmlns="http://www.w3.org/2000/svg" viewBox="0 0 22.07 21.88"><defs><style>.cls-1{fill:#02595a;}</style></defs><title>Asset 34</title><g id="Layer_2" data-name="Layer 2"><g id="Layer_2-2" data-name="Layer 2"><path class="cls-1" d="M20.93,9.77,14.19,8.43l-1.32-.26V7.9c0-1.63,0-3.29,0-4.92a1.38,1.38,0,0,0-1.21-1.45L9.2,1.15C6.79.79,4.36.41,1.94.06A1.62,1.62,0,0,0,.51.3,2,2,0,0,0,0,1.11V20.76a4.53,4.53,0,0,0,.27.54,1.32,1.32,0,0,0,.89.58H20.91l0,0a1.38,1.38,0,0,0,1.12-1.45V11.18A1.37,1.37,0,0,0,20.93,9.77ZM8.29,20.94H4.62a.65.65,0,0,1,0-.2v-3.8c0-.42.16-.58.58-.58H7.71c.4,0,.56.18.56.58,0,1.28,0,2.53,0,3.8Zm3.66-.2a1,1,0,0,1,0,.23H9.18V20.7c0-1.25,0-2.5,0-3.76a1.36,1.36,0,0,0-1.5-1.49c-.82,0-1.65,0-2.5,0A1.44,1.44,0,0,0,3.66,17c0,1.23,0,2.48,0,3.71V21H1.54c-.47,0-.62-.16-.62-.63V1.4a.46.46,0,0,1,.6-.47l6.72,1c1.08.16,2.15.34,3.2.49.4.07.51.2.51.61Zm9.21-.42c0,.49-.16.65-.65.65H12.89V9.13c.72.13,1.41.26,2.08.4l5.63,1.11c.44.09.56.21.56.67Z"/><path class="cls-1" d="M0,20.76a4.68,4.68,0,0,0,.27.55,1.47,1.47,0,0,0,.9.57H0Z"/><path class="cls-1" d="M5.52,4.88a.44.44,0,0,1-.47.45c-.6,0-1.21,0-1.81,0a.44.44,0,0,1-.47-.45.43.43,0,0,1,.47-.45c.29,0,.6,0,.92,0H5A.46.46,0,0,1,5.52,4.88Z"/><path class="cls-1" d="M5.52,7.63A.47.47,0,0,1,5,8.1H3.26a.46.46,0,0,1-.49-.47.44.44,0,0,1,.49-.45H5.05A.44.44,0,0,1,5.52,7.63Z"/><path class="cls-1" d="M5.52,10.4a.46.46,0,0,1-.52.45H3.28a.45.45,0,0,1-.51-.45.44.44,0,0,1,.49-.47H5A.47.47,0,0,1,5.52,10.4Z"/><path class="cls-1" d="M5.52,13.15a.47.47,0,0,1-.52.47H3.26a.46.46,0,0,1-.49-.47.44.44,0,0,1,.49-.45H5A.45.45,0,0,1,5.52,13.15Z"/><path class="cls-1" d="M10.12,4.88a.45.45,0,0,1-.51.45h-.9c-.27,0-.56,0-.85,0s-.51-.18-.49-.47.18-.43.49-.45H9.63A.47.47,0,0,1,10.12,4.88Z"/><path class="cls-1" d="M10.12,7.65a.46.46,0,0,1-.49.45H7.86a.45.45,0,0,1-.49-.47.43.43,0,0,1,.47-.45H9.63A.46.46,0,0,1,10.12,7.65Z"/><path class="cls-1" d="M10.12,10.4a.45.45,0,0,1-.51.45H7.86a.44.44,0,0,1-.49-.47c0-.27.18-.43.49-.45H9.63A.47.47,0,0,1,10.12,10.4Z"/><path class="cls-1" d="M10.12,13.15a.46.46,0,0,1-.49.47H7.86a.44.44,0,0,1-.49-.45c0-.29.18-.47.49-.47H9.63A.46.46,0,0,1,10.12,13.15Z"/><path class="cls-1" d="M18.39,13.17a.46.46,0,0,1-.47.45H16.11a.46.46,0,0,1-.47-.47.43.43,0,0,1,.47-.45h1.78A.45.45,0,0,1,18.39,13.17Z"/><path class="cls-1" d="M18.39,15.89a.47.47,0,0,1-.52.47H16.13a.45.45,0,0,1-.49-.47.44.44,0,0,1,.49-.44h1.76A.47.47,0,0,1,18.39,15.89Z"/><path class="cls-1" d="M18.39,18.66a.44.44,0,0,1-.47.45c-.61,0-1.21,0-1.81,0a.45.45,0,1,1,0-.89c.31,0,.6,0,.91,0s.58,0,.9,0A.44.44,0,0,1,18.39,18.66Z"/></g></g></svg>