<svg xmlns="http://www.w3.org/2000/svg" viewBox="0 0 200.86 200.82"><defs><style>.cls-1{fill:#41b3e5;}.cls-2{fill:#0091c7;}.cls-3{fill:#fdfefe;}.cls-4{fill:#cfd1d7;}.cls-5{fill:#0191c7;}.cls-6{fill:#b7b8be;}.cls-7{fill:#c0d6e0;}</style></defs><title>Asset 9</title><g id="Layer_2" data-name="Layer 2"><g id="Layer_2-2" data-name="Layer 2"><path class="cls-1" d="M200.39,92.6a5.11,5.11,0,0,1-2.1-1.69Q179.53,72.18,160.8,53.43c-.6-.59-1.27-1.1-1.91-1.66-.68.21-1.37.38-2,.64q-18.65,7.31-37.31,14.65Q82,81.83,44.4,96.64l-.37.11-.29,0-.11,0-.21.06h0l-.17.07a.56.56,0,0,0-.17.09.61.61,0,0,0-.16.12l-.1.1-.07.12a.69.69,0,0,0,0,.13.11.11,0,0,0,0,.08s0,0,0,0a.4.4,0,0,0,0,.15,1.11,1.11,0,0,0,0,.19h0a7.22,7.22,0,0,0,1.7,2.11l40,40a6.49,6.49,0,0,0,2.13,1.69l.72,1.4.37,1c.2.9,1,1.38,1.54,2Q112,169,134.85,191.94a5.82,5.82,0,0,1,1.73,2.08,95.21,95.21,0,0,1-21.05,5.66c-2.66.45-5.4.38-8,1.14H93c-.24-.42-.66-.36-1-.39a100.47,100.47,0,0,1-28.87-6.81c-45.38-18-71.42-67.27-60.68-114.89A100.42,100.42,0,0,1,86.12,1C88.42.69,90.77.75,93,0h14.51c.31.48.81.34,1.24.38A87.55,87.55,0,0,1,131,4.77c34.19,11.83,56.43,35.13,66.49,69.91A69.21,69.21,0,0,1,200.39,92.6Z"/><path class="cls-2" d="M200.86,93.35v15.29c-.39.14-.37.48-.4.8-.28,2.86-.62,5.7-1.14,8.53-4.81,26-17.85,46.93-38.84,62.92A89.26,89.26,0,0,1,136.58,194a5.82,5.82,0,0,0-1.73-2.08Q112,169,89.05,146.13c-.58-.6-1.34-1.08-1.54-2,.94-.9,1.88-1.79,2.79-2.72q7.49-7.63,15-15.3c.54.37,1.09.73,1.61,1.12L134.37,148a3.47,3.47,0,0,0,1.77,1c1-4.17,2-8.36,2.94-12.54q9.9-42.34,19.81-84.71c.64.56,1.31,1.07,1.91,1.66q18.75,18.74,37.49,37.48a5.11,5.11,0,0,0,2.1,1.69C200.5,92.88,200.46,93.25,200.86,93.35Z"/><path class="cls-3" d="M158.89,51.77q-9.9,42.36-19.81,84.71c-1,4.18-2,8.37-2.94,12.54a3.43,3.43,0,0,1-1.77-1l-27.51-20.74c-.52-.39-1.07-.75-1.6-1.12-1.27-1-2.57-1.92-3.81-2.93C98,120.38,94.18,118.1,91,115q11.67-11.15,23.35-22.29c3-2.84,6-5.58,9-8.45,4.9-4.77,10.09-9.26,14.78-14.26l.39-.52v0a6.6,6.6,0,0,0,2.85-2.61l.64-.56.08-.08-.07.09-.84.32a8.32,8.32,0,0,0-2.75,1.9c-.51.29-1,.56-1.52.88q-28.41,19-56.81,38.07a7.85,7.85,0,0,0-2.42,1.94c-5.75-1.9-11.48-3.86-17.25-5.7-5.95-1.9-11.8-4.14-17.84-5.75,0-1.2,1.14-1,1.8-1.31Q82,81.82,119.55,67.06l37.3-14.66C157.51,52.15,158.21,52,158.89,51.77Z"/><path class="cls-4" d="M77.69,109.4a7.85,7.85,0,0,1,2.42-1.94q28.4-19,56.81-38.07c.48-.32,1-.59,1.52-.88l.09.94v0l-.39.52c-4.69,5-9.88,9.49-14.78,14.26-2.95,2.87-6,5.61-9,8.45Q102.69,103.79,91,115a6.68,6.68,0,0,0-.66,1.6c-.72,6-1.35,12.11-2.08,18.16a70.7,70.7,0,0,1-1.14,8.44l-.72-1.4q-1.5-5.66-3-11.29Q80.56,119.92,77.69,109.4Z"/><path class="cls-5" d="M77.69,109.4q2.85,10.53,5.72,21.06,1.52,5.64,3,11.29a6.49,6.49,0,0,1-2.13-1.69l-40-40A7.17,7.17,0,0,1,42.6,98c6,1.61,11.89,3.85,17.84,5.75C66.21,105.54,71.94,107.5,77.69,109.4Z"/><path class="cls-6" d="M87.14,143.15a70.7,70.7,0,0,0,1.14-8.44c.73-6.05,1.36-12.11,2.08-18.16A6.68,6.68,0,0,1,91,115c3.16,3.15,7,5.43,10.43,8.25,1.24,1,2.54,2,3.81,2.93q-7.49,7.65-15,15.3c-.91.93-1.86,1.82-2.79,2.72Z"/><path class="cls-7" d="M138.53,69.45l-.09-.94a8.32,8.32,0,0,1,2.75-1.9l.19.23A6.6,6.6,0,0,1,138.53,69.45Z"/><path class="cls-7" d="M141.19,66.61l.84-.32h0l-.64.56Z"/><polygon class="cls-7" points="142.03 66.29 142.1 66.2 142.02 66.28 142.03 66.29"/><path class="cls-7" d="M138.13,70l.39-.52Z"/></g></g></svg>