<svg xmlns="http://www.w3.org/2000/svg" viewBox="0 0 11.33 9.61"><defs><style>.cls-1{fill:#02595a;}</style></defs><title>Asset 3</title><g id="Layer_2" data-name="Layer 2"><g id="Layer_2-2" data-name="Layer 2"><path class="cls-1" d="M2.37,6c0,1.06,0,2.13,0,3.19,0,.13,0,.26,0,.39H1.05a1,1,0,0,1-1-.84V6.64a4.5,4.5,0,0,1,.14-.49,1.56,1.56,0,0,1,1.38-1c.32,0,.65,0,1,0,0,0,0,0,0,.08A4.72,4.72,0,0,0,2.37,6Z"/><path class="cls-1" d="M8.3,9.23c0,.26-.13.37-.39.37H3.44c-.3,0-.42-.11-.42-.4V6A1.64,1.64,0,0,1,4.31,4.37a2,2,0,0,1,.34,0h2a1.62,1.62,0,0,1,1.6,1.28,1.58,1.58,0,0,1,0,.38C8.3,7.08,8.3,8.15,8.3,9.23Z"/><path class="cls-1" d="M7.63,2A2,2,0,1,1,3.69,2,2,2,0,0,1,7.63,2Z"/><path class="cls-1" d="M11.32,6.77c0,.62,0,1.23,0,1.85a.94.94,0,0,1-.89,1c-.51,0-1,0-1.5,0,0-.26,0-.5,0-.75V6.14a2.72,2.72,0,0,0-.12-.9.06.06,0,0,1,0,0h0a8.84,8.84,0,0,1,1.15,0A1.59,1.59,0,0,1,11.32,6.77Z"/><path class="cls-1" d="M3.68,3.31A1.49,1.49,0,0,1,2.2,4.78a1.48,1.48,0,0,1,0-2.95A1.48,1.48,0,0,1,3.68,3.31Z"/><path class="cls-1" d="M10.58,3.3A1.47,1.47,0,1,1,9.11,1.83,1.47,1.47,0,0,1,10.58,3.3Z"/></g></g></svg>