<svg xmlns="http://www.w3.org/2000/svg" viewBox="0 0 31 27.94"><defs><style>.cls-1{fill:#02595a;}</style></defs><title>Asset 8</title><g id="Layer_2" data-name="Layer 2"><g id="Layer_2-2" data-name="Layer 2"><path class="cls-1" d="M20.36,14.18A8.46,8.46,0,0,0,17,17.78a8.31,8.31,0,0,0-.75,4.84l-.27,0H0V21c.09-.51.14-1,.27-1.54a9.86,9.86,0,0,1,7.06-7.31l.2-.07s0,0,0-.05a6.76,6.76,0,0,1-2.4-6,6.44,6.44,0,0,1,2.2-4.29,6.74,6.74,0,0,1,9.07,0,6.54,6.54,0,0,1,2.26,5.18,6.71,6.71,0,0,1-2.47,5.13A10,10,0,0,1,20.36,14.18Z"/><path class="cls-1" d="M24.48,14.85A6.55,6.55,0,1,0,31,21.42,6.55,6.55,0,0,0,24.48,14.85Zm1,9.17H23.79V20.16h-.88V18.83h2.61Z"/></g></g></svg>