<svg xmlns="http://www.w3.org/2000/svg" viewBox="0 0 18.1 18.42"><defs><style>.cls-1{fill:#02595a;}</style></defs><title>Asset 31</title><g id="Layer_2" data-name="Layer 2"><g id="Layer_2-2" data-name="Layer 2"><path class="cls-1" d="M18.1.2a.35.35,0,0,0-.24-.2.44.44,0,0,0-.31.14c-.33.31-.64.63-1,1a.36.36,0,0,1-.3.12H9.49a.42.42,0,0,0-.28.12Q4.8,5.76.4,10.21a1.18,1.18,0,0,0-.23.27,1.09,1.09,0,0,0,.22,1.41c2,2,4,4,6,6a1.76,1.76,0,0,0,.82.55h.36a1.74,1.74,0,0,0,.85-.58l8.36-8.59a.45.45,0,0,0,.15-.35q0-3.48,0-7a.59.59,0,0,1,.21-.5c.31-.29.61-.59.9-.91A.44.44,0,0,0,18.1.2ZM16.16,9c-2.79,2.85-5.57,5.72-8.36,8.57a.5.5,0,0,1-.84,0L.83,11.46a.51.51,0,0,1,0-.82L9.45,2a.48.48,0,0,1,.26-.12c2,0,4,0,6,0h.11l-.07.1L14.46,3.22c-.07.08-.12.07-.21,0a1.47,1.47,0,0,0-1.63.11A1.43,1.43,0,0,0,12,4.91a1.52,1.52,0,0,0,2.71.6,1.44,1.44,0,0,0,.15-1.6A.21.21,0,0,1,15,3.6l1.33-1.33c0,.1,0,.16,0,.22V8.67A.46.46,0,0,1,16.16,9ZM13.31,4.81c.14.13.31.11.48,0l.53-.55a.84.84,0,0,1-.17,1,.92.92,0,0,1-1.39-1.18.9.9,0,0,1,1.15-.3l-.55.55C13.18,4.5,13.17,4.68,13.31,4.81Z"/><path class="cls-1" d="M13.91,3.78l-.55.54c-.18.18-.19.36,0,.49s.31.11.47,0l.53-.54a.82.82,0,0,1-.17,1,.92.92,0,0,1-1.39-1.18A.9.9,0,0,1,13.91,3.78Z"/></g></g></svg>