<svg id="Layer_1" data-name="Layer 1" xmlns="http://www.w3.org/2000/svg" viewBox="0 0 300 181.38"><defs><style>.cls-1{fill:#eee;}.cls-2{fill:#007f80;}.cls-3{fill:#656565;}</style></defs><title>pagNotFound1</title><rect class="cls-1" width="300" height="181.38"/><path class="cls-2" d="M123.2,49.17h-7.71v12.7h-7.92V49.17H84.88l-.49-2.24a22.43,22.43,0,0,1,2-5.51A63.83,63.83,0,0,1,90,34.92c1.43-2.26,3-4.53,4.75-6.81s3.45-4.42,5.18-6.44,3.39-3.82,5-5.42a41.37,41.37,0,0,1,4.16-3.72h6.39v30.9h7.71Zm-15.63-5.74V23.23a13.57,13.57,0,0,1,.08-1.39,1.16,1.16,0,0,0-.29.4,1,1,0,0,1-.29.4c-.41.38-1,1-1.7,1.75s-1.51,1.71-2.38,2.77-1.8,2.25-2.78,3.54-1.94,2.65-2.86,4.07-1.81,2.86-2.64,4.33a42.41,42.41,0,0,0-2.15,4.33Z" transform="translate(-0.04 -0.85)"/><path class="cls-2" d="M167,37.12a41.16,41.16,0,0,1-1.27,10.7,23.45,23.45,0,0,1-3.67,8,16.16,16.16,0,0,1-5.87,5,18.89,18.89,0,0,1-15.53.12,14.72,14.72,0,0,1-5.55-4.72,21.88,21.88,0,0,1-3.38-7.62,41.91,41.91,0,0,1-1.15-10.34,48.93,48.93,0,0,1,1.15-11.19,23.54,23.54,0,0,1,3.48-8.23,15.4,15.4,0,0,1,5.87-5.08A18.56,18.56,0,0,1,149.34,12Q167,12,167,37.12Zm-8.13.53q0-9.91-2.49-14.84t-7.3-4.92q-5.15,0-7.75,5T138.72,38q0,9.36,2.57,14a8.19,8.19,0,0,0,7.55,4.64q4.93,0,7.49-4.71T158.88,37.65Z" transform="translate(-0.04 -0.85)"/><path class="cls-2" d="M213.22,49.17H205.5v12.7h-7.92V49.17H174.89l-.49-2.24a22.43,22.43,0,0,1,2-5.51,63.83,63.83,0,0,1,3.67-6.5c1.43-2.26,3-4.53,4.75-6.81s3.45-4.42,5.18-6.44,3.39-3.82,5-5.42a41.37,41.37,0,0,1,4.16-3.72h6.39v30.9h7.72Zm-15.64-5.74V23.23a13.57,13.57,0,0,1,.08-1.39,1.16,1.16,0,0,0-.29.4,1,1,0,0,1-.29.4c-.41.38-1,1-1.7,1.75s-1.51,1.71-2.38,2.77-1.8,2.25-2.78,3.54-1.94,2.65-2.86,4.07-1.81,2.86-2.64,4.33a44.58,44.58,0,0,0-2.15,4.33Z" transform="translate(-0.04 -0.85)"/><path class="cls-3" d="M120.92,47.43H113v13h-8.11v-13H81.72l-.5-2.29a23,23,0,0,1,2-5.64A65.86,65.86,0,0,1,87,32.85c1.47-2.31,3.09-4.62,4.86-7s3.53-4.53,5.3-6.59,3.46-3.9,5.09-5.54A42,42,0,0,1,106.49,10H113V41.56h7.89Zm-16-5.87V20.9a11.65,11.65,0,0,1,.09-1.42,1.14,1.14,0,0,0-.3.41,1,1,0,0,1-.29.4c-.43.39-1,1-1.74,1.79s-1.55,1.75-2.44,2.84-1.84,2.29-2.84,3.62-2,2.7-2.93,4.16-1.85,2.92-2.69,4.43a44.54,44.54,0,0,0-2.21,4.43Z" transform="translate(-0.04 -0.85)"/><path class="cls-3" d="M165.71,35.11a42.6,42.6,0,0,1-1.29,10.94,24.13,24.13,0,0,1-3.75,8.18,16.62,16.62,0,0,1-6,5.11,19.29,19.29,0,0,1-15.88.12,15,15,0,0,1-5.68-4.82,22.59,22.59,0,0,1-3.46-7.79,43.34,43.34,0,0,1-1.17-10.58,50.49,50.49,0,0,1,1.17-11.45,24,24,0,0,1,3.56-8.41,15.73,15.73,0,0,1,6-5.19,19,19,0,0,1,8.44-1.77Q165.72,9.45,165.71,35.11Zm-8.31.54q0-10.14-2.55-15.18t-7.46-5q-5.26,0-7.93,5.11T136.79,36q0,9.56,2.63,14.3a8.35,8.35,0,0,0,7.72,4.75q5,0,7.65-4.82T157.4,35.65Z" transform="translate(-0.04 -0.85)"/><path class="cls-3" d="M213,47.43h-7.89v13H197v-13h-23.2l-.51-2.29a22.7,22.7,0,0,1,2-5.64A65.86,65.86,0,0,1,179,32.85c1.47-2.31,3.09-4.62,4.86-7s3.53-4.53,5.3-6.59,3.46-3.9,5.09-5.54A40,40,0,0,1,198.55,10h6.53V41.56H213Zm-16-5.87V20.9a11.65,11.65,0,0,1,.09-1.42.94.94,0,0,0-.3.41,1.11,1.11,0,0,1-.3.4c-.42.39-1,1-1.74,1.79s-1.55,1.75-2.44,2.84-1.83,2.29-2.84,3.62-2,2.7-2.92,4.16-1.85,2.92-2.7,4.43a44.39,44.39,0,0,0-2.2,4.43Z" transform="translate(-0.04 -0.85)"/><path class="cls-2" d="M93.51,69.2,91.43,81.4h-1l-1.51-8.92a7.78,7.78,0,0,1-.12-1.24h0a11.69,11.69,0,0,1-.13,1.22L87.13,81.4h-1L84,69.2h.94l1.57,9.36a11.72,11.72,0,0,1,.12,1.22h0a11.79,11.79,0,0,1,.16-1.22l1.62-9.36h.83l1.55,9.42a10.63,10.63,0,0,1,.13,1.14h0a10,10,0,0,1,.14-1.17l1.49-9.39Z" transform="translate(-0.04 -0.85)"/><path class="cls-2" d="M99.1,81.4h-.84v-5c0-1.82-.41-2.72-1.22-2.72a1.22,1.22,0,0,0-1,.78,4.3,4.3,0,0,0-.41,2V81.4h-.84V68.5h.84v5.63h0c.4-1.1,1-1.65,1.72-1.65,1.18,0,1.77,1.18,1.77,3.55Z" transform="translate(-0.04 -0.85)"/><path class="cls-2" d="M103.13,81.6a2.08,2.08,0,0,1-1.86-1.22,6.55,6.55,0,0,1-.69-3.24,6.8,6.8,0,0,1,.72-3.42,2.18,2.18,0,0,1,2-1.24,2,2,0,0,1,1.83,1.2,7,7,0,0,1,.66,3.33,6.82,6.82,0,0,1-.71,3.34A2.14,2.14,0,0,1,103.13,81.6Zm.06-7.94a1.43,1.43,0,0,0-1.28.91,5.63,5.63,0,0,0-.47,2.52,5.22,5.22,0,0,0,.48,2.45,1.42,1.42,0,0,0,1.27.89,1.36,1.36,0,0,0,1.25-.88,5.69,5.69,0,0,0,.44-2.49,5.84,5.84,0,0,0-.44-2.52A1.36,1.36,0,0,0,103.19,73.66Z" transform="translate(-0.04 -0.85)"/><path class="cls-2" d="M109.53,81.6a2.07,2.07,0,0,1-1.85-1.22,6.44,6.44,0,0,1-.7-3.24,6.69,6.69,0,0,1,.73-3.42,2.18,2.18,0,0,1,2-1.24,2,2,0,0,1,1.82,1.2,7,7,0,0,1,.66,3.33,6.71,6.71,0,0,1-.71,3.34A2.13,2.13,0,0,1,109.53,81.6Zm.06-7.94a1.43,1.43,0,0,0-1.28.91,5.63,5.63,0,0,0-.47,2.52,5.22,5.22,0,0,0,.48,2.45,1.43,1.43,0,0,0,1.27.89,1.35,1.35,0,0,0,1.25-.88,5.55,5.55,0,0,0,.44-2.49,5.7,5.7,0,0,0-.44-2.52A1.35,1.35,0,0,0,109.59,73.66Z" transform="translate(-0.04 -0.85)"/><path class="cls-2" d="M114.61,80.14h0v5.27h-.83V72.69h.83v1.53h0c.41-1.16,1-1.74,1.81-1.74A1.75,1.75,0,0,1,118,73.65a7.25,7.25,0,0,1,.57,3.14,8.2,8.2,0,0,1-.64,3.5,1.94,1.94,0,0,1-1.75,1.31C115.5,81.6,115,81.12,114.61,80.14Zm0-3.51v1.21a3.76,3.76,0,0,0,.43,1.84,1.23,1.23,0,0,0,1.07.75c.51,0,.91-.32,1.19-1a6.77,6.77,0,0,0,.44-2.7,5.25,5.25,0,0,0-.41-2.28,1.21,1.21,0,0,0-1.09-.82,1.33,1.33,0,0,0-1.18.84A4.51,4.51,0,0,0,114.58,76.63Z" transform="translate(-0.04 -0.85)"/><path class="cls-2" d="M119.85,81.08V79.59a2,2,0,0,0,1.51.84q1.11,0,1.11-1.23a1.69,1.69,0,0,0-.1-.59,1.67,1.67,0,0,0-.25-.43,2.43,2.43,0,0,0-.38-.33c-.15-.1-.3-.21-.47-.31a5.39,5.39,0,0,1-.61-.47,2,2,0,0,1-.44-.52,2.35,2.35,0,0,1-.27-.67,3.78,3.78,0,0,1-.09-.88,3.22,3.22,0,0,1,.17-1.08,2.38,2.38,0,0,1,.45-.8,1.82,1.82,0,0,1,1.39-.64,2,2,0,0,1,1.22.39v1.42a1.77,1.77,0,0,0-1.33-.63,1,1,0,0,0-.43.09A.78.78,0,0,0,121,74a1.07,1.07,0,0,0-.21.38,1.59,1.59,0,0,0-.08.5,1.82,1.82,0,0,0,.08.57,1.44,1.44,0,0,0,.21.41,1.53,1.53,0,0,0,.35.32l.47.32a6.66,6.66,0,0,1,.62.45,2.35,2.35,0,0,1,.77,1.21,3.43,3.43,0,0,1,.11.91,3.17,3.17,0,0,1-.18,1.12,2.24,2.24,0,0,1-.45.79,1.78,1.78,0,0,1-.66.47,2.09,2.09,0,0,1-.79.15A2,2,0,0,1,119.85,81.08Z" transform="translate(-0.04 -0.85)"/><path class="cls-2" d="M125.17,81.59a.48.48,0,0,1-.4-.28,1.34,1.34,0,0,1-.17-.68,1.31,1.31,0,0,1,.17-.67.47.47,0,0,1,.4-.29.49.49,0,0,1,.41.29,1.31,1.31,0,0,1,.17.67,1.34,1.34,0,0,1-.17.68A.49.49,0,0,1,125.17,81.59Z" transform="translate(-0.04 -0.85)"/><path class="cls-2" d="M127.7,81.59a.49.49,0,0,1-.4-.28,1.34,1.34,0,0,1-.16-.68,1.3,1.3,0,0,1,.16-.67.43.43,0,0,1,.81,0,1.22,1.22,0,0,1,.17.67,1.25,1.25,0,0,1-.17.68A.49.49,0,0,1,127.7,81.59Z" transform="translate(-0.04 -0.85)"/><path class="cls-2" d="M130.24,81.59a.48.48,0,0,1-.4-.28,1.34,1.34,0,0,1-.17-.68,1.31,1.31,0,0,1,.17-.67.47.47,0,0,1,.4-.29.49.49,0,0,1,.41.29,1.31,1.31,0,0,1,.17.67,1.34,1.34,0,0,1-.17.68A.49.49,0,0,1,130.24,81.59Z" transform="translate(-0.04 -0.85)"/><path class="cls-2" d="M133.45,76.79V81.4h-.86V69.2h2a2.09,2.09,0,0,1,1.82,1,4.77,4.77,0,0,1,.65,2.69,5.11,5.11,0,0,1-.72,2.84,2.2,2.2,0,0,1-1.94,1.11Zm0-6.3v5h.9a1.54,1.54,0,0,0,1.36-.67,3.35,3.35,0,0,0,.47-1.91c0-1.61-.57-2.42-1.72-2.42Z" transform="translate(-0.04 -0.85)"/><path class="cls-2" d="M142,81.4h-.84V80h0q-.55,1.56-1.62,1.56a1.37,1.37,0,0,1-1.22-.69,3.28,3.28,0,0,1-.44-1.83c0-1.62.57-2.57,1.72-2.84l1.58-.36q0-2.22-1.08-2.22a2.11,2.11,0,0,0-1.71,1.07V73.3a2.36,2.36,0,0,1,1.78-.82c1.23,0,1.85,1.09,1.85,3.25ZM141.19,77l-1.27.29a1.6,1.6,0,0,0-.88.48,1.89,1.89,0,0,0-.3,1.22,1.8,1.8,0,0,0,.28,1,.84.84,0,0,0,.73.41,1.19,1.19,0,0,0,1-.73,3.74,3.74,0,0,0,.41-1.84Z" transform="translate(-0.04 -0.85)"/><path class="cls-2" d="M148.34,80.7q0,4.8-2.76,4.8a2.54,2.54,0,0,1-1.7-.61v-1.4a2.55,2.55,0,0,0,1.69.82c1.29,0,1.93-1.14,1.93-3.42v-1h0c-.4,1.12-1,1.67-1.8,1.67a1.76,1.76,0,0,1-1.57-1.16,6.82,6.82,0,0,1-.6-3.12,8.1,8.1,0,0,1,.64-3.53,2,2,0,0,1,1.76-1.31c.71,0,1.23.47,1.57,1.41h0v-1.2h.84Zm-.84-3.24V76.17a3.51,3.51,0,0,0-.42-1.77,1.21,1.21,0,0,0-1.05-.74,1.35,1.35,0,0,0-1.22.94,6.37,6.37,0,0,0-.44,2.63,5.43,5.43,0,0,0,.42,2.33,1.27,1.27,0,0,0,1.12.87,1.32,1.32,0,0,0,1.15-.84A4.55,4.55,0,0,0,147.5,77.46Z" transform="translate(-0.04 -0.85)"/><path class="cls-2" d="M154.51,77.39h-3.7a4.82,4.82,0,0,0,.48,2.25,1.36,1.36,0,0,0,1.23.79,2.06,2.06,0,0,0,1.63-1v1.31a2.24,2.24,0,0,1-1.83.83,1.92,1.92,0,0,1-1.74-1.18,7.26,7.26,0,0,1-.64-3.34,7,7,0,0,1,.7-3.32,2,2,0,0,1,1.72-1.28A1.73,1.73,0,0,1,154,73.59a6.81,6.81,0,0,1,.56,3.07Zm-.86-1.18a4.17,4.17,0,0,0-.35-1.88,1.05,1.05,0,0,0-1-.67,1.17,1.17,0,0,0-1,.7,4.41,4.41,0,0,0-.52,1.85Z" transform="translate(-0.04 -0.85)"/><path class="cls-2" d="M165.21,81.4h-1.06l-3.77-9.73a4.8,4.8,0,0,1-.24-.76h0c0,.26,0,.82,0,1.67V81.4h-.86V69.2h1.12l3.67,9.57c.15.4.25.67.3.82h0c0-.36-.05-1-.05-1.8V69.2h.86Z" transform="translate(-0.04 -0.85)"/><path class="cls-2" d="M169.47,81.6a2.07,2.07,0,0,1-1.85-1.22,6.44,6.44,0,0,1-.7-3.24,6.8,6.8,0,0,1,.72-3.42,2.18,2.18,0,0,1,2-1.24,2,2,0,0,1,1.83,1.2,7,7,0,0,1,.66,3.33,6.82,6.82,0,0,1-.71,3.34A2.13,2.13,0,0,1,169.47,81.6Zm.06-7.94a1.43,1.43,0,0,0-1.28.91,5.63,5.63,0,0,0-.47,2.52,5.22,5.22,0,0,0,.48,2.45,1.43,1.43,0,0,0,1.27.89,1.36,1.36,0,0,0,1.25-.88,5.69,5.69,0,0,0,.44-2.49,5.84,5.84,0,0,0-.44-2.52A1.36,1.36,0,0,0,169.53,73.66Z" transform="translate(-0.04 -0.85)"/><path class="cls-2" d="M176.11,81.31a1.05,1.05,0,0,1-.78.28c-.92,0-1.38-.85-1.38-2.56V73.88h-.9V72.69h.9V70.56l.84-.45v2.58h1.32v1.19h-1.32v4.91A3.13,3.13,0,0,0,175,80a.61.61,0,0,0,.6.37.65.65,0,0,0,.54-.29Z" transform="translate(-0.04 -0.85)"/><path class="cls-2" d="M184.47,70.49H181.6v4.22h2.65V76H181.6v5.4h-.86V69.2h3.73Z" transform="translate(-0.04 -0.85)"/><path class="cls-2" d="M188.2,81.6a2.09,2.09,0,0,1-1.86-1.22,6.55,6.55,0,0,1-.69-3.24,6.8,6.8,0,0,1,.72-3.42,2.18,2.18,0,0,1,1.95-1.24,2,2,0,0,1,1.83,1.2,7,7,0,0,1,.66,3.33,6.82,6.82,0,0,1-.71,3.34A2.14,2.14,0,0,1,188.2,81.6Zm.06-7.94a1.43,1.43,0,0,0-1.28.91,5.63,5.63,0,0,0-.47,2.52,5.22,5.22,0,0,0,.48,2.45,1.42,1.42,0,0,0,1.27.89,1.36,1.36,0,0,0,1.25-.88,5.69,5.69,0,0,0,.44-2.49,5.84,5.84,0,0,0-.44-2.52A1.36,1.36,0,0,0,188.26,73.66Z" transform="translate(-0.04 -0.85)"/><path class="cls-2" d="M196.65,81.4h-.84V80h0c-.35,1.06-.89,1.58-1.62,1.58-1.25,0-1.87-1.23-1.87-3.71v-5.2h.83v5c0,1.84.43,2.76,1.27,2.76a1.16,1.16,0,0,0,1-.75,4.18,4.18,0,0,0,.4-2v-5h.84Z" transform="translate(-0.04 -0.85)"/><path class="cls-2" d="M203,81.4h-.84v-5c0-1.85-.41-2.77-1.22-2.77a1.2,1.2,0,0,0-1,.78,4.22,4.22,0,0,0-.41,2v5h-.84V72.69h.84v1.44h0c.39-1.1,1-1.65,1.72-1.65a1.42,1.42,0,0,1,1.31.93,6.2,6.2,0,0,1,.46,2.66Z" transform="translate(-0.04 -0.85)"/><path class="cls-2" d="M209.27,81.4h-.84V79.92h0q-.58,1.68-1.8,1.68A1.78,1.78,0,0,1,205,80.43a7.18,7.18,0,0,1-.59-3.18,7.74,7.74,0,0,1,.66-3.47,2,2,0,0,1,1.74-1.3c.72,0,1.24.47,1.57,1.41h0V68.5h.84Zm-.84-3.94V76.17a3.53,3.53,0,0,0-.42-1.78,1.21,1.21,0,0,0-1.06-.73,1.35,1.35,0,0,0-1.21.93,6.29,6.29,0,0,0-.44,2.59,5.58,5.58,0,0,0,.42,2.38,1.28,1.28,0,0,0,1.14.87,1.29,1.29,0,0,0,1.13-.84A4.49,4.49,0,0,0,208.43,77.46Z" transform="translate(-0.04 -0.85)"/><rect class="cls-3" x="2" y="134.8" width="243.02" height="11.13"/><path class="cls-3" d="M263.86,161.87h-2.12a20.66,20.66,0,0,1-20.66-20.66h0a20.67,20.67,0,0,1,20.66-20.67h2.12Z" transform="translate(-0.04 -0.85)"/><path class="cls-3" d="M290.88,131.67h-19.6a4.26,4.26,0,0,1-4.24-4.24h0a4.26,4.26,0,0,1,4.24-4.24h19.6a4.26,4.26,0,0,1,4.24,4.24h0A4.26,4.26,0,0,1,290.88,131.67Z" transform="translate(-0.04 -0.85)"/><path class="cls-3" d="M290.88,158.16h-19.6a4.26,4.26,0,0,1-4.24-4.24h0a4.26,4.26,0,0,1,4.24-4.24h19.6a4.26,4.26,0,0,1,4.24,4.24h0A4.26,4.26,0,0,1,290.88,158.16Z" transform="translate(-0.04 -0.85)"/><polygon class="cls-1" points="128.33 133.5 121.56 138.35 125.43 140.24 120.26 142.21 125.43 143.92 118.24 146.98 178.98 146.98 176.06 144.35 178.98 141.78 176.06 140.24 178.98 137.5 172.73 135.79 178.98 133.5 128.33 133.5"/><polygon class="cls-2" points="127.32 130.82 123.51 126.59 125.43 124.32 127.32 130.82"/><polygon class="cls-2" points="140.26 137.04 144.09 124.32 149.58 127.57 140.26 137.04"/><polygon class="cls-2" points="136.02 144.45 142.46 154.7 139.24 157.32 136.02 144.45"/><polygon class="cls-2" points="167.5 135.28 156.48 128.7 159.72 124.67 167.5 135.28"/><polygon class="cls-2" points="153.89 157.82 164.44 146.23 158.84 158.74 153.89 157.82"/><polygon class="cls-2" points="162.74 140.06 159.23 145.92 157.35 142.72 162.74 140.06"/><polygon class="cls-2" points="148.98 150.67 143.51 144.56 150.99 147.22 148.98 150.67"/><polygon class="cls-2" points="172.73 144.45 171.11 150.88 174.37 150.88 172.73 144.45"/><polygon class="cls-2" points="127.32 145.93 132.68 153.08 127.32 153.47 127.32 145.93"/><polygon class="cls-2" points="130.69 136.04 134.39 137.04 130.69 138.03 129.69 141.74 128.69 138.03 124.98 137.04 128.69 136.04 129.69 132.33 130.69 136.04"/><polygon class="cls-2" points="174.41 155.93 177.04 156.64 174.41 157.35 173.69 159.99 172.98 157.35 170.34 156.64 172.98 155.93 173.69 153.29 174.41 155.93"/><polygon class="cls-2" points="154.95 132.79 157.59 133.5 154.95 134.21 154.24 136.85 153.53 134.21 150.89 133.5 153.53 132.79 154.24 130.15 154.95 132.79"/></svg>