<svg id="Layer_1" data-name="Layer 1" xmlns="http://www.w3.org/2000/svg" viewBox="0 0 300 125"><defs><style>.cls-1{fill:#eee;}.cls-2{fill:#007f80;}.cls-3{fill:#656565;}</style></defs><title>pagNotFound1</title><rect class="cls-1" width="300" height="125"/><path class="cls-2" d="M124.67,48.82h-7.1v11.7h-7.3V48.82H89.37l-.46-2.06a20.87,20.87,0,0,1,1.82-5.08,60.38,60.38,0,0,1,3.38-6q2-3.12,4.37-6.27t4.78-5.93q2.38-2.79,4.59-5a35.65,35.65,0,0,1,3.83-3.43h5.89V43.53h7.1Zm-14.4-5.29V24.92a11.57,11.57,0,0,1,.08-1.28,1,1,0,0,0-.27.37,1,1,0,0,1-.27.37c-.38.35-.9.89-1.56,1.61s-1.4,1.58-2.2,2.56-1.66,2.06-2.56,3.25-1.78,2.44-2.64,3.75-1.66,2.64-2.42,4a41.13,41.13,0,0,0-2,4Z" transform="translate(0 0.03)"/><path class="cls-2" d="M165,37.72a38.1,38.1,0,0,1-1.17,9.86A21.8,21.8,0,0,1,160.48,55a14.9,14.9,0,0,1-5.41,4.6,17.32,17.32,0,0,1-14.3.11,13.53,13.53,0,0,1-5.12-4.34,20.4,20.4,0,0,1-3.12-7,39.19,39.19,0,0,1-1.05-9.53,45.63,45.63,0,0,1,1.05-10.31,21.61,21.61,0,0,1,3.21-7.58,14.14,14.14,0,0,1,5.41-4.68,17.08,17.08,0,0,1,7.6-1.59Q165,14.61,165,37.72Zm-7.49.49q0-9.14-2.29-13.67T148.52,20q-4.74,0-7.14,4.61t-2.41,14q0,8.61,2.37,12.89a7.72,7.72,0,0,0,13.85-.07Q157.54,47,157.54,38.21Z" transform="translate(0 0.03)"/><path class="cls-2" d="M207.6,48.82h-7.11v11.7h-7.3V48.82h-20.9l-.46-2.06a21.3,21.3,0,0,1,1.82-5.08,60.38,60.38,0,0,1,3.38-6q2-3.12,4.38-6.27t4.77-5.93q2.38-2.79,4.59-5a34.69,34.69,0,0,1,3.84-3.43h5.88V43.53h7.11Zm-14.41-5.29V24.92a11.57,11.57,0,0,1,.08-1.28A1,1,0,0,0,193,24a1,1,0,0,1-.27.37c-.38.35-.9.89-1.56,1.61s-1.4,1.58-2.2,2.56-1.66,2.06-2.56,3.25-1.78,2.44-2.64,3.75-1.66,2.64-2.42,4a41.13,41.13,0,0,0-2,4Z" transform="translate(0 0.03)"/><path class="cls-3" d="M122.57,47.22H115.3v12h-7.47v-12H86.46L86,45.1a21.65,21.65,0,0,1,1.86-5.19,59.2,59.2,0,0,1,3.46-6.12c1.35-2.13,2.84-4.26,4.47-6.41s3.26-4.18,4.88-6.07,3.19-3.6,4.69-5.11a38.34,38.34,0,0,1,3.93-3.51h6V41.81h7.27Zm-14.74-5.41v-19a11.92,11.92,0,0,1,.08-1.3,1,1,0,0,0-.27.37,1,1,0,0,1-.27.38c-.4.36-.93.91-1.61,1.65s-1.42,1.61-2.24,2.61-1.7,2.11-2.62,3.33-1.83,2.5-2.7,3.83-1.7,2.7-2.48,4.09a40.69,40.69,0,0,0-2,4.08Z" transform="translate(0 0.03)"/><path class="cls-3" d="M163.83,35.86A39,39,0,0,1,162.64,46a22,22,0,0,1-3.46,7.53,15.17,15.17,0,0,1-5.52,4.71A17.8,17.8,0,0,1,139,58.3a13.78,13.78,0,0,1-5.23-4.44,20.88,20.88,0,0,1-3.19-7.18,40.32,40.32,0,0,1-1.07-9.74,47.07,47.07,0,0,1,1.07-10.55,22.23,22.23,0,0,1,3.28-7.75,14.49,14.49,0,0,1,5.53-4.78,17.44,17.44,0,0,1,7.78-1.63Q163.84,12.23,163.83,35.86Zm-7.65.51q0-9.36-2.35-14T147,17.74q-4.84,0-7.3,4.71t-2.46,14.27q0,8.82,2.42,13.18a7.89,7.89,0,0,0,14.16-.07Q156.19,45.39,156.18,36.37Z" transform="translate(0 0.03)"/><path class="cls-3" d="M207.37,47.22H200.1v12h-7.46v-12H171.27l-.47-2.12a21.15,21.15,0,0,1,1.85-5.19,61.11,61.11,0,0,1,3.46-6.12c1.36-2.13,2.85-4.26,4.48-6.41s3.25-4.18,4.88-6.07,3.19-3.6,4.69-5.11a37.31,37.31,0,0,1,3.93-3.51h6V41.81h7.27Zm-14.73-5.41v-19a11.92,11.92,0,0,1,.08-1.3,1.17,1.17,0,0,0-.28.37,1,1,0,0,1-.27.38c-.39.36-.92.91-1.6,1.65s-1.43,1.61-2.25,2.61-1.69,2.11-2.62,3.33-1.82,2.5-2.69,3.83-1.7,2.7-2.48,4.09a43.09,43.09,0,0,0-2,4.08Z" transform="translate(0 0.03)"/><path class="cls-2" d="M97.32,67.27,95.41,78.51h-.93L93.09,70.3A8,8,0,0,1,93,69.15h0a10.28,10.28,0,0,1-.12,1.13l-1.4,8.23h-.92l-2-11.24h.87l1.44,8.62A10.06,10.06,0,0,1,91,77h0c0-.28.07-.65.15-1.13l1.49-8.62h.76L94.82,76c.05.3.08.65.11,1.06h0a8,8,0,0,1,.13-1.09l1.38-8.65Z" transform="translate(0 0.03)"/><path class="cls-2" d="M102.46,78.51h-.77V73.89c0-1.68-.37-2.51-1.12-2.51a1.1,1.1,0,0,0-.95.72A3.94,3.94,0,0,0,99.23,74v4.55h-.77V66.63h.77v5.19h0c.37-1,.9-1.52,1.58-1.52,1.09,0,1.63,1.09,1.63,3.27Z" transform="translate(0 0.03)"/><path class="cls-2" d="M106.18,78.7a1.93,1.93,0,0,1-1.71-1.13,6.07,6.07,0,0,1-.64-3,6.21,6.21,0,0,1,.67-3.16,2,2,0,0,1,1.79-1.13A1.86,1.86,0,0,1,108,71.4a6.51,6.51,0,0,1,.6,3.07,6.17,6.17,0,0,1-.65,3.07A2,2,0,0,1,106.18,78.7Zm.06-7.32a1.31,1.31,0,0,0-1.18.84,5.12,5.12,0,0,0-.44,2.32,4.8,4.8,0,0,0,.44,2.25,1.34,1.34,0,0,0,1.18.83,1.25,1.25,0,0,0,1.15-.81,5.25,5.25,0,0,0,.4-2.3,5.37,5.37,0,0,0-.4-2.32A1.25,1.25,0,0,0,106.24,71.38Z" transform="translate(0 0.03)"/><path class="cls-2" d="M112.08,78.7a1.93,1.93,0,0,1-1.71-1.13,6,6,0,0,1-.64-3,6.21,6.21,0,0,1,.67-3.16,2,2,0,0,1,1.79-1.13,1.86,1.86,0,0,1,1.69,1.1,6.51,6.51,0,0,1,.6,3.07,6.17,6.17,0,0,1-.65,3.07A2,2,0,0,1,112.08,78.7Zm.06-7.32a1.31,1.31,0,0,0-1.18.84,5.12,5.12,0,0,0-.44,2.32,4.8,4.8,0,0,0,.44,2.25,1.33,1.33,0,0,0,1.18.83,1.25,1.25,0,0,0,1.15-.81,5.25,5.25,0,0,0,.4-2.3,5.37,5.37,0,0,0-.4-2.32A1.25,1.25,0,0,0,112.14,71.38Z" transform="translate(0 0.03)"/><path class="cls-2" d="M116.75,77.35h0V82.2H116V70.48h.77v1.41h0c.38-1.06.94-1.59,1.67-1.59a1.62,1.62,0,0,1,1.46,1.07,6.7,6.7,0,0,1,.52,2.89,7.49,7.49,0,0,1-.59,3.23,1.79,1.79,0,0,1-1.61,1.21C117.57,78.7,117.09,78.25,116.75,77.35Zm0-3.24v1.12a3.38,3.38,0,0,0,.39,1.69,1.13,1.13,0,0,0,1,.7c.47,0,.83-.3,1.1-.9a6.13,6.13,0,0,0,.4-2.48,5,5,0,0,0-.37-2.1,1.13,1.13,0,0,0-1-.76,1.24,1.24,0,0,0-1.09.78A4.2,4.2,0,0,0,116.73,74.11Z" transform="translate(0 0.03)"/><path class="cls-2" d="M121.59,78.22V76.84a1.78,1.78,0,0,0,1.39.78c.67,0,1-.38,1-1.13a1.73,1.73,0,0,0-.08-.55,1.28,1.28,0,0,0-.24-.39,1.5,1.5,0,0,0-.35-.31l-.43-.29a4.33,4.33,0,0,1-.56-.43,2.09,2.09,0,0,1-.41-.48,2,2,0,0,1-.24-.62,3.15,3.15,0,0,1-.09-.8,3,3,0,0,1,.16-1,2,2,0,0,1,.42-.73,1.55,1.55,0,0,1,.59-.44,1.64,1.64,0,0,1,.68-.15,1.85,1.85,0,0,1,1.12.36V72a1.6,1.6,0,0,0-1.22-.58.93.93,0,0,0-.39.08.76.76,0,0,0-.3.23,1,1,0,0,0-.19.36,1.35,1.35,0,0,0-.07.46,1.56,1.56,0,0,0,.07.52,1.07,1.07,0,0,0,.2.38,1.32,1.32,0,0,0,.32.3l.42.29a3.76,3.76,0,0,1,.58.42,2.18,2.18,0,0,1,.43.48,2.06,2.06,0,0,1,.28.62,3.45,3.45,0,0,1,.1.84,3.2,3.2,0,0,1-.16,1,2.45,2.45,0,0,1-.42.73,1.83,1.83,0,0,1-.61.43,2,2,0,0,1-.72.14A1.88,1.88,0,0,1,121.59,78.22Z" transform="translate(0 0.03)"/><path class="cls-2" d="M126.48,78.68a.44.44,0,0,1-.37-.26,1.17,1.17,0,0,1-.15-.61,1.28,1.28,0,0,1,.15-.63.46.46,0,0,1,.37-.26.45.45,0,0,1,.38.26,1.18,1.18,0,0,1,.16.63,1.09,1.09,0,0,1-.16.61A.43.43,0,0,1,126.48,78.68Z" transform="translate(0 0.03)"/><path class="cls-2" d="M128.82,78.68a.42.42,0,0,1-.37-.26,1.17,1.17,0,0,1-.15-.61,1.28,1.28,0,0,1,.15-.63.43.43,0,0,1,.37-.26.46.46,0,0,1,.38.26,1.28,1.28,0,0,1,.15.63,1.17,1.17,0,0,1-.15.61A.44.44,0,0,1,128.82,78.68Z" transform="translate(0 0.03)"/><path class="cls-2" d="M131.15,78.68a.44.44,0,0,1-.37-.26,1.17,1.17,0,0,1-.15-.61,1.28,1.28,0,0,1,.15-.63.46.46,0,0,1,.37-.26.45.45,0,0,1,.38.26,1.28,1.28,0,0,1,.16.63,1.18,1.18,0,0,1-.16.61A.43.43,0,0,1,131.15,78.68Z" transform="translate(0 0.03)"/><path class="cls-2" d="M134.12,74.26v4.25h-.8V67.27h1.86a1.91,1.91,0,0,1,1.68.88,4.35,4.35,0,0,1,.6,2.48,4.72,4.72,0,0,1-.66,2.61,2.05,2.05,0,0,1-1.79,1Zm0-5.8v4.61H135a1.45,1.45,0,0,0,1.25-.62,3.13,3.13,0,0,0,.43-1.76c0-1.49-.53-2.23-1.59-2.23Z" transform="translate(0 0.03)"/><path class="cls-2" d="M142,78.51h-.77V77.26h0c-.34,1-.83,1.44-1.48,1.44a1.27,1.27,0,0,1-1.13-.64,3,3,0,0,1-.41-1.68c0-1.5.53-2.37,1.59-2.62l1.45-.34c0-1.36-.33-2-1-2a2,2,0,0,0-1.57,1V71.05a2.19,2.19,0,0,1,1.64-.75c1.14,0,1.7,1,1.7,3Zm-.77-4.06-1.16.27a1.51,1.51,0,0,0-.82.44,1.77,1.77,0,0,0-.27,1.12,1.71,1.71,0,0,0,.25,1,.79.79,0,0,0,.67.38,1.1,1.1,0,0,0,1-.67,3.48,3.48,0,0,0,.38-1.7Z" transform="translate(0 0.03)"/><path class="cls-2" d="M147.83,77.87c0,2.94-.85,4.42-2.54,4.42a2.35,2.35,0,0,1-1.57-.57V80.44a2.36,2.36,0,0,0,1.56.75c1.18,0,1.78-1,1.78-3.15v-.88h0c-.37,1-.92,1.54-1.66,1.54a1.65,1.65,0,0,1-1.45-1.07,6.27,6.27,0,0,1-.55-2.87A7.57,7.57,0,0,1,144,71.5a1.81,1.81,0,0,1,1.62-1.2c.65,0,1.13.43,1.45,1.3h0V70.48h.77Zm-.77-3V73.7a3.24,3.24,0,0,0-.39-1.64,1.11,1.11,0,0,0-1-.68,1.25,1.25,0,0,0-1.12.86,5.88,5.88,0,0,0-.41,2.43,4.93,4.93,0,0,0,.39,2.14c.26.54.6.81,1,.81a1.2,1.2,0,0,0,1.06-.77A4.2,4.2,0,0,0,147.06,74.88Z" transform="translate(0 0.03)"/><path class="cls-2" d="M153.52,74.82h-3.41a4.44,4.44,0,0,0,.43,2.07,1.29,1.29,0,0,0,1.14.73,1.89,1.89,0,0,0,1.5-.9v1.21a2.07,2.07,0,0,1-1.68.77,1.79,1.79,0,0,1-1.61-1.1,6.57,6.57,0,0,1-.58-3.07,6.31,6.31,0,0,1,.64-3,1.83,1.83,0,0,1,1.58-1.18,1.61,1.61,0,0,1,1.47,1,6.3,6.3,0,0,1,.52,2.83Zm-.79-1.09A3.85,3.85,0,0,0,152.4,72a1,1,0,0,0-.88-.62,1.08,1.08,0,0,0-.93.65,4.08,4.08,0,0,0-.47,1.7Z" transform="translate(0 0.03)"/><path class="cls-2" d="M163.37,78.51h-1l-3.48-9a5.19,5.19,0,0,1-.22-.7h0c0,.24,0,.75,0,1.54v8.12h-.79V67.27h1l3.38,8.82c.14.36.23.62.27.75h0c0-.32,0-.87,0-1.65V67.27h.79Z" transform="translate(0 0.03)"/><path class="cls-2" d="M167.3,78.7a1.91,1.91,0,0,1-1.71-1.13,6,6,0,0,1-.64-3,6.33,6.33,0,0,1,.66-3.16,2,2,0,0,1,1.8-1.13,1.84,1.84,0,0,1,1.68,1.1,6.38,6.38,0,0,1,.61,3.07,6.28,6.28,0,0,1-.65,3.07A2,2,0,0,1,167.3,78.7Zm0-7.32a1.32,1.32,0,0,0-1.18.84,5.27,5.27,0,0,0-.43,2.32,4.8,4.8,0,0,0,.44,2.25,1.31,1.31,0,0,0,1.17.83,1.27,1.27,0,0,0,1.16-.81,5.39,5.39,0,0,0,.4-2.3,5.53,5.53,0,0,0-.4-2.32A1.27,1.27,0,0,0,167.35,71.38Z" transform="translate(0 0.03)"/><path class="cls-2" d="M173.42,78.43a1,1,0,0,1-.72.25c-.85,0-1.27-.78-1.27-2.35V71.58h-.83v-1.1h.83v-2l.77-.41v2.37h1.22v1.1H172.2V76.1a2.91,2.91,0,0,0,.17,1.16.55.55,0,0,0,.54.34.64.64,0,0,0,.51-.27Z" transform="translate(0 0.03)"/><path class="cls-2" d="M181.11,68.46h-2.64v3.89h2.44v1.18h-2.44v5h-.79V67.27h3.43Z" transform="translate(0 0.03)"/><path class="cls-2" d="M184.55,78.7a1.93,1.93,0,0,1-1.71-1.13,6.07,6.07,0,0,1-.64-3,6.21,6.21,0,0,1,.67-3.16,2,2,0,0,1,1.79-1.13,1.86,1.86,0,0,1,1.69,1.1,6.51,6.51,0,0,1,.6,3.07,6.17,6.17,0,0,1-.65,3.07A2,2,0,0,1,184.55,78.7Zm.06-7.32a1.31,1.31,0,0,0-1.18.84,5.12,5.12,0,0,0-.44,2.32,4.8,4.8,0,0,0,.44,2.25,1.34,1.34,0,0,0,1.18.83,1.25,1.25,0,0,0,1.15-.81,5.25,5.25,0,0,0,.4-2.3,5.37,5.37,0,0,0-.4-2.32A1.25,1.25,0,0,0,184.61,71.38Z" transform="translate(0 0.03)"/><path class="cls-2" d="M192.33,78.51h-.77V77.24h0c-.32,1-.81,1.46-1.49,1.46-1.15,0-1.72-1.14-1.72-3.42v-4.8h.77v4.6c0,1.69.39,2.54,1.17,2.54a1.08,1.08,0,0,0,.93-.7,3.91,3.91,0,0,0,.36-1.81V70.48h.77Z" transform="translate(0 0.03)"/><path class="cls-2" d="M198.14,78.51h-.77V73.93c0-1.7-.37-2.55-1.12-2.55a1.1,1.1,0,0,0-1,.72,4,4,0,0,0-.38,1.83v4.58h-.77v-8h.77v1.34h0c.36-1,.89-1.52,1.58-1.52a1.31,1.31,0,0,1,1.21.85,5.65,5.65,0,0,1,.42,2.45Z" transform="translate(0 0.03)"/><path class="cls-2" d="M204,78.51h-.77V77.15h0c-.36,1-.91,1.55-1.66,1.55a1.62,1.62,0,0,1-1.45-1.08,6.48,6.48,0,0,1-.55-2.93,7,7,0,0,1,.61-3.19,1.8,1.8,0,0,1,1.6-1.2c.67,0,1.15.43,1.45,1.3h0v-5H204Zm-.77-3.63V73.7a3.25,3.25,0,0,0-.39-1.65,1.12,1.12,0,0,0-1-.67,1.24,1.24,0,0,0-1.11.86,5.69,5.69,0,0,0-.41,2.38,5.05,5.05,0,0,0,.39,2.19,1.18,1.18,0,0,0,1.05.81,1.2,1.2,0,0,0,1-.78A4.35,4.35,0,0,0,203.19,74.88Z" transform="translate(0 0.03)"/><rect class="cls-3" x="13.05" y="95.34" width="223.88" height="10.25"/><path class="cls-3" d="M254.25,119.48H252.3a19,19,0,0,1-19-19h0a19,19,0,0,1,19-19h1.95Z" transform="translate(0 0.03)"/><path class="cls-3" d="M279.14,91.66H261.08a3.92,3.92,0,0,1-3.9-3.91h0a3.92,3.92,0,0,1,3.9-3.9h18.06a3.92,3.92,0,0,1,3.91,3.9h0A3.92,3.92,0,0,1,279.14,91.66Z" transform="translate(0 0.03)"/><path class="cls-3" d="M279.14,116.06H261.08a3.91,3.91,0,0,1-3.9-3.9h0a3.92,3.92,0,0,1,3.9-3.91h18.06a3.92,3.92,0,0,1,3.91,3.91h0A3.91,3.91,0,0,1,279.14,116.06Z" transform="translate(0 0.03)"/><polygon class="cls-1" points="129.43 94.15 123.19 98.62 126.76 100.36 122 102.17 126.76 103.75 120.13 106.57 176.09 106.57 173.4 104.14 176.09 101.77 173.4 100.36 176.09 97.83 170.33 96.25 176.09 94.15 129.43 94.15"/><polygon class="cls-2" points="128.5 91.68 124.99 87.78 126.76 85.69 128.5 91.68"/><polygon class="cls-2" points="140.42 97.41 143.94 85.69 149.01 88.69 140.42 97.41"/><polygon class="cls-2" points="136.52 104.24 142.45 113.67 139.48 116.09 136.52 104.24"/><polygon class="cls-2" points="165.52 95.79 155.36 89.72 158.35 86.02 165.52 95.79"/><polygon class="cls-2" points="152.97 116.56 162.69 105.88 157.54 117.4 152.97 116.56"/><polygon class="cls-2" points="161.13 100.19 157.9 105.59 156.16 102.64 161.13 100.19"/><polygon class="cls-2" points="148.45 109.97 143.41 104.33 150.3 106.79 148.45 109.97"/><polygon class="cls-2" points="170.33 104.24 168.84 110.16 171.84 110.16 170.33 104.24"/><polygon class="cls-2" points="128.5 105.59 133.43 112.18 128.5 112.55 128.5 105.59"/><polygon class="cls-2" points="131.6 96.48 135.01 97.41 131.6 98.33 130.68 101.74 129.76 98.33 126.34 97.41 129.76 96.48 130.68 93.07 131.6 96.48"/><polygon class="cls-2" points="171.88 114.81 174.31 115.46 171.88 116.12 171.22 118.55 170.57 116.12 168.13 115.46 170.57 114.81 171.22 112.38 171.88 114.81"/><polygon class="cls-2" points="153.95 93.5 156.38 94.15 153.95 94.81 153.3 97.24 152.64 94.81 150.21 94.15 152.64 93.5 153.3 91.06 153.95 93.5"/></svg>