<svg id="Layer_1" data-name="Layer 1" xmlns="http://www.w3.org/2000/svg" viewBox="0 0 300 125"><defs><style>.cls-1{fill:#eee;}.cls-2{fill:#007f80;}.cls-3{fill:#656565;}</style></defs><title>pagNotFound1</title><rect class="cls-1" width="300" height="125"/><path class="cls-2" d="M124.67,48.85h-7.1v11.7h-7.3V48.85H89.37l-.46-2.06a21,21,0,0,1,1.82-5.08,59.88,59.88,0,0,1,3.38-6q2-3.12,4.37-6.27t4.78-5.93q2.38-2.79,4.59-5a35.65,35.65,0,0,1,3.83-3.43h5.89V43.56h7.1Zm-14.4-5.29V25a10.86,10.86,0,0,1,.08-1.28,1,1,0,0,0-.27.37,1,1,0,0,1-.27.37c-.38.35-.9.89-1.56,1.61s-1.4,1.58-2.2,2.56-1.66,2.06-2.56,3.25-1.78,2.44-2.64,3.75-1.66,2.64-2.42,4a40.32,40.32,0,0,0-2,4Z"/><path class="cls-2" d="M165,37.75a38.12,38.12,0,0,1-1.17,9.86A21.84,21.84,0,0,1,160.48,55a14.84,14.84,0,0,1-5.41,4.6,17.36,17.36,0,0,1-14.3.11,13.6,13.6,0,0,1-5.12-4.34,20.52,20.52,0,0,1-3.12-7,39.17,39.17,0,0,1-1.05-9.53,45.8,45.8,0,0,1,1.05-10.31A21.46,21.46,0,0,1,135.74,21a14.13,14.13,0,0,1,5.41-4.68,17,17,0,0,1,7.6-1.59Q165,14.64,165,37.75Zm-7.49.49q0-9.14-2.29-13.67T148.52,20q-4.74,0-7.14,4.61t-2.41,14q0,8.61,2.37,12.89a7.72,7.72,0,0,0,13.85-.07q2.35-4.43,2.35-13.22Z"/><path class="cls-2" d="M207.6,48.85h-7.11v11.7h-7.3V48.85h-20.9l-.46-2.06a21.4,21.4,0,0,1,1.82-5.08,59.88,59.88,0,0,1,3.38-6q2-3.12,4.38-6.27t4.77-5.93q2.38-2.79,4.59-5a34.71,34.71,0,0,1,3.84-3.43h5.88V43.56h7.11Zm-14.41-5.29V25a10.86,10.86,0,0,1,.08-1.28A1,1,0,0,0,193,24a1,1,0,0,1-.27.37c-.38.35-.9.89-1.56,1.61s-1.4,1.58-2.2,2.56-1.66,2.06-2.56,3.25-1.78,2.44-2.64,3.75-1.66,2.64-2.42,4a40.32,40.32,0,0,0-2,4Z"/><path class="cls-3" d="M122.57,47.25H115.3v12h-7.47v-12H86.46L86,45.13a21.73,21.73,0,0,1,1.86-5.19,59.35,59.35,0,0,1,3.46-6.12c1.35-2.13,2.84-4.26,4.47-6.41s3.26-4.18,4.88-6.07,3.19-3.6,4.69-5.11a38.47,38.47,0,0,1,3.93-3.51h6V41.84h7.27Zm-14.74-5.41v-19a11.34,11.34,0,0,1,.08-1.3,1,1,0,0,0-.27.37.94.94,0,0,1-.27.38c-.4.36-.93.91-1.61,1.65s-1.42,1.61-2.24,2.61-1.7,2.11-2.62,3.33-1.83,2.5-2.7,3.83-1.7,2.7-2.48,4.09a40.54,40.54,0,0,0-2,4.08Z"/><path class="cls-3" d="M163.83,35.89A38.91,38.91,0,0,1,162.64,46a22.06,22.06,0,0,1-3.46,7.53,15.22,15.22,0,0,1-5.52,4.71,17.81,17.81,0,0,1-14.66.06,13.79,13.79,0,0,1-5.23-4.44,20.89,20.89,0,0,1-3.19-7.18A40.4,40.4,0,0,1,129.51,37a47.35,47.35,0,0,1,1.07-10.55,22.15,22.15,0,0,1,3.28-7.75,14.43,14.43,0,0,1,5.53-4.78,17.55,17.55,0,0,1,7.78-1.63Q163.84,12.26,163.83,35.89Zm-7.65.51q0-9.36-2.35-14c-1.57-3.09-3.84-4.64-6.83-4.63q-4.84,0-7.3,4.71t-2.46,14.27q0,8.82,2.42,13.18a7.89,7.89,0,0,0,14.16-.07q2.37-4.44,2.36-13.46Z"/><path class="cls-3" d="M207.37,47.25H200.1v12h-7.46v-12H171.27l-.47-2.12a21.28,21.28,0,0,1,1.85-5.19,60.42,60.42,0,0,1,3.46-6.12c1.36-2.13,2.85-4.26,4.48-6.41s3.25-4.18,4.88-6.07,3.19-3.6,4.69-5.11a38.47,38.47,0,0,1,3.93-3.51h6V41.84h7.27Zm-14.73-5.41v-19a11.34,11.34,0,0,1,.08-1.3,1.13,1.13,0,0,0-.28.37.94.94,0,0,1-.27.38c-.39.36-.92.91-1.6,1.65s-1.43,1.61-2.25,2.61-1.69,2.11-2.62,3.33-1.82,2.5-2.69,3.83-1.7,2.7-2.48,4.09a41.62,41.62,0,0,0-2,4.08Z"/><rect class="cls-3" x="13.05" y="95.34" width="223.88" height="10.25"/><path class="cls-3" d="M254.25,119.51H252.3a19,19,0,0,1-19-19h0a19,19,0,0,1,19-19h1.95Z"/><path class="cls-3" d="M279.14,91.69H261.08a3.93,3.93,0,0,1-3.9-3.91h0a3.92,3.92,0,0,1,3.9-3.9h18.06a3.93,3.93,0,0,1,3.91,3.9h0A3.92,3.92,0,0,1,279.14,91.69Z"/><path class="cls-3" d="M279.14,116.09H261.08a3.92,3.92,0,0,1-3.9-3.9h0a3.93,3.93,0,0,1,3.9-3.91h18.06a3.92,3.92,0,0,1,3.91,3.91h0A3.91,3.91,0,0,1,279.14,116.09Z"/><polygon class="cls-1" points="129.43 94.15 123.19 98.62 126.76 100.36 122 102.17 126.76 103.75 120.13 106.57 176.09 106.57 173.4 104.14 176.09 101.77 173.4 100.36 176.09 97.83 170.33 96.25 176.09 94.15 129.43 94.15"/><polygon class="cls-2" points="128.5 91.68 124.99 87.78 126.76 85.69 128.5 91.68"/><polygon class="cls-2" points="140.42 97.41 143.94 85.69 149.01 88.69 140.42 97.41"/><polygon class="cls-2" points="136.52 104.24 142.45 113.67 139.48 116.09 136.52 104.24"/><polygon class="cls-2" points="165.52 95.79 155.36 89.72 158.35 86.02 165.52 95.79"/><polygon class="cls-2" points="152.97 116.56 162.69 105.88 157.54 117.4 152.97 116.56"/><polygon class="cls-2" points="161.13 100.19 157.9 105.59 156.16 102.64 161.13 100.19"/><polygon class="cls-2" points="148.45 109.97 143.41 104.33 150.3 106.79 148.45 109.97"/><polygon class="cls-2" points="170.33 104.24 168.84 110.16 171.84 110.16 170.33 104.24"/><polygon class="cls-2" points="128.5 105.59 133.43 112.18 128.5 112.55 128.5 105.59"/><polygon class="cls-2" points="131.6 96.48 135.01 97.41 131.6 98.33 130.68 101.74 129.76 98.33 126.34 97.41 129.76 96.48 130.68 93.07 131.6 96.48"/><polygon class="cls-2" points="171.88 114.81 174.31 115.46 171.88 116.12 171.22 118.55 170.57 116.12 168.13 115.46 170.57 114.81 171.22 112.38 171.88 114.81"/><polygon class="cls-2" points="153.95 93.5 156.38 94.15 153.95 94.81 153.3 97.24 152.64 94.81 150.21 94.15 152.64 93.5 153.3 91.06 153.95 93.5"/></svg>