<svg xmlns="http://www.w3.org/2000/svg" xmlns:xlink="http://www.w3.org/1999/xlink" viewBox="0 0 1050 450"><defs><style>.cls-1{isolation:isolate;}.cls-2{fill:url(#linear-gradient);}.cls-3{fill:#d3bfb2;opacity:0.55;mix-blend-mode:multiply;}.cls-4{fill:#41c7d0;}.cls-5{fill:#fff;}.cls-6{fill:#d0d1de;}.cls-7{fill:#110239;}.cls-8{fill:#fefefe;}.cls-9{fill:#ffa83e;}.cls-10{fill:#e77736;}.cls-11{fill:#e5e6ed;}.cls-12{fill:#f88667;}.cls-13{fill:#e45940;}.cls-14{fill:#00a5b0;}.cls-15{fill:#abadc4;}.cls-16{fill:#9c9eb9;}.cls-17{fill:#453964;}.cls-18{fill:#c2c3d4;}.cls-19{fill:#fff9fd;}.cls-20{fill:#e4e5ec;}</style><linearGradient id="linear-gradient" x1="525" y1="1" x2="525" y2="445.92" gradientUnits="userSpaceOnUse"><stop offset="0" stop-color="#00c9ff"/><stop offset="1" stop-color="#ffdd71"/></linearGradient></defs><title>31958 [Converted]</title><g class="cls-1"><g id="Layer_1" data-name="Layer 1"><rect class="cls-2" width="1050" height="450"/><ellipse class="cls-3" cx="525" cy="315.08" rx="467.79" ry="20.42"/><path class="cls-4" d="M922.92,307.34c-4.23-4.78-16.74-11.28-13.45-18.73,2.79-6.33,16.2-5.55,14.59-13.19-1-4.52-2.19-8.38.72-13.52,3.18-5.6,12.68-2.55,16-7.75,2.83-4.46-.85-11.36,5-14.34,5.19-2.65,11.46,2.52,12.39,7.11,1.17,5.73-4.51,8.42-5.23,13.41-.47,3.18,2.42,4.28,4.08,6.51a15.35,15.35,0,0,1,3.12,7.83c.32,7.92-8.37,8.95-12.49,14-3.81,4.66,3.22,7.67,2.17,12.75-1.14,5.47-8.94,8.46-14.42,8.38C931.56,309.74,925.54,310.3,922.92,307.34Z"/><path class="cls-5" d="M928.45,310l-.1,0a.29.29,0,0,1-.13-.44c.07-.11,7.83-11.77,8.28-26.43.29-9.77,4.35-16,7.68-21.15,2-3.09,3.77-5.79,4-8.5a.44.44,0,0,1,.45-.39.38.38,0,0,1,.38.42c-.3,2.9-2.1,5.68-4.17,8.86-3.29,5-7.29,11.19-7.6,20.76-.47,14.83-8.34,26.62-8.42,26.74A.41.41,0,0,1,928.45,310Z"/><path class="cls-5" d="M937.16,283.09a.34.34,0,0,1-.29-.37.39.39,0,0,1,.43-.33c3.29.19,7.68-1.73,9-4.93.16-.38.32-.81.49-1.26.8-2.15,1.81-4.84,3.92-5.82a4.69,4.69,0,0,1,3.54,0,.34.34,0,0,1,.2.48.44.44,0,0,1-.53.22,3.75,3.75,0,0,0-2.89,0c-1.79.82-2.74,3.35-3.49,5.36-.17.45-.34.89-.5,1.28-1.51,3.63-6.26,5.62-9.82,5.41Z"/><path class="cls-5" d="M934.83,282.72a5.77,5.77,0,0,1-3.45-2c-1.22-1.56-1.41-3.92-.54-6.84.09-.29.2-.63.32-1,.68-2.09,1.73-5.27.7-7a2.53,2.53,0,0,0-1.67-1.17.38.38,0,0,1-.28-.47.43.43,0,0,1,.51-.27h0a3.3,3.3,0,0,1,2.16,1.53c1.19,2,.08,5.41-.65,7.61-.12.36-.23.68-.31,1-.81,2.69-.67,4.85.41,6.24.92,1.18,2.54,1.84,4.79,2a.35.35,0,0,1,.35.38.4.4,0,0,1-.43.33A10.91,10.91,0,0,1,934.83,282.72Z"/><path class="cls-5" d="M933,305.33a3.59,3.59,0,0,1-1.26-.46.29.29,0,0,1-.08-.45.41.41,0,0,1,.52-.09c2,1.19,6-.36,7.67-1.55a10.17,10.17,0,0,0,2-2.3c1.21-1.65,2.47-3.37,4.46-3.43a.32.32,0,0,1,.36.33.38.38,0,0,1-.39.34c-1.56,0-2.7,1.6-3.8,3.09a10.26,10.26,0,0,1-2.2,2.46C938.74,304.35,935.41,305.78,933,305.33Z"/><path class="cls-5" d="M929.74,304.61a4.43,4.43,0,0,1-1.36-.48c-2.48-1.31-4-4.69-4.33-6.65a10.68,10.68,0,0,1,.45-3.93c.53-2.37,1.1-4.85-.45-6a.32.32,0,0,1,0-.49.44.44,0,0,1,.56-.05c1.9,1.39,1.26,4.19.7,6.64a10.44,10.44,0,0,0-.45,3.68c.35,1.78,1.73,5,4,6.22a3.7,3.7,0,0,0,2.76.33.38.38,0,0,1,.46.22.35.35,0,0,1-.27.41A4.68,4.68,0,0,1,929.74,304.61Z"/><path class="cls-6" d="M115.51,310.32c-8.91-1.62-17.24-.94-20.85-10.68-2.85-7.72,3.8-15-2.89-20.28-4-3.19-10.38-5.11-11.78-10.56-1.47-5.68,5.8-9.28,4.49-14.73-1.07-4.5-7.33-4.8-5.69-10.67a7.5,7.5,0,0,1,9.66-5.47c4.86,1.38,5.27,5.84,8.49,8.93,2.16,2.06,5.21,0,8.37-.39s7.19-.1,9.85,1.29c8.66,4.51,1.72,14.06,3.3,21.84,1.52,7.52,12.11,3,17.58,8.63,6.39,6.59,1.57,18-4.73,23.39C127.11,305.2,121.52,311.41,115.51,310.32Z"/><path class="cls-5" d="M124.1,308.35a.35.35,0,0,1-.14.06.58.58,0,0,1-.67-.38c-.06-.2-5.85-19.57-20-32.32-7.94-7.18-9.83-14.59-11.3-20.38-.86-3.39-1.6-6.26-3.29-7.82a.43.43,0,0,1,0-.57.37.37,0,0,1,.53-.12c1.82,1.67,2.58,4.64,3.47,8.12,1.47,5.72,3.35,13,11.18,20.06,14.39,12.91,20.31,32.58,20.37,32.78A.48.48,0,0,1,124.1,308.35Z"/><path class="cls-5" d="M103.9,275.15a.43.43,0,0,1-.57,0,.47.47,0,0,1,.06-.64c2.85-2.81,4.71-8.23,2.85-11.65-.22-.4-.48-.83-.74-1.28-1.27-2.12-2.81-4.7-2-7.23a6.57,6.57,0,0,1,2.76-3.32.38.38,0,0,1,.58.08.51.51,0,0,1-.22.63,5.34,5.34,0,0,0-2.3,2.71c-.68,2.15.78,4.58,2,6.57.28.45.54.89.76,1.3,2.14,3.9,0,9.74-3.08,12.8Z"/><path class="cls-5" d="M101.71,276.93a6.81,6.81,0,0,1-4.38,1.47c-2.18-.14-4.17-1.69-5.76-4.46-.16-.27-.33-.59-.52-.94-1-1.95-2.61-4.86-4.52-5.13a2.44,2.44,0,0,0-1.87.62.32.32,0,0,1-.5-.07.48.48,0,0,1,.15-.57h0a3.2,3.2,0,0,1,2.43-.79c2.22.3,3.89,3.37,5,5.44l.5.92c1.49,2.56,3.29,4,5.23,4.1,1.69.1,3.51-.8,5.4-2.69a.42.42,0,0,1,.62,0,.47.47,0,0,1,0,.64A14.32,14.32,0,0,1,101.71,276.93Z"/><path class="cls-5" d="M123.14,299a5.36,5.36,0,0,1-1.82.69.53.53,0,0,1-.61-.41.5.5,0,0,1,.43-.58c3.41-.6,5.66-6.06,5.94-8.95a12.85,12.85,0,0,0-.72-4.24c-.77-2.75-1.55-5.57.39-7.62a.58.58,0,0,1,.77-.09.47.47,0,0,1,0,.71c-1.54,1.62-.82,4.19-.12,6.69a13.37,13.37,0,0,1,.76,4.61C127.93,292.41,126.21,297.14,123.14,299Z"/><path class="cls-5" d="M119.08,301.22a6.17,6.17,0,0,1-1.87.72c-3.79.83-8.61-1.34-10.88-2.95A15.79,15.79,0,0,1,103,294.9c-1.7-2.59-3.43-5.22-5.6-4.89a.39.39,0,0,1-.45-.38.47.47,0,0,1,.38-.5c2.68-.42,4.65,2.55,6.42,5.23a15,15,0,0,0,3.12,3.85c2,1.45,6.67,3.53,10.11,2.77a4.55,4.55,0,0,0,3.07-2.18.54.54,0,0,1,.71-.2.49.49,0,0,1,.2.68A5.39,5.39,0,0,1,119.08,301.22Z"/><circle class="cls-6" cx="391.88" cy="156.95" r="27.6"/><circle class="cls-7" cx="391.88" cy="156.95" r="23.54" transform="translate(149.91 502.86) rotate(-76.85)"/><rect class="cls-8" x="391.44" y="137.73" width="0.93" height="19.81" rx="0.46"/><path class="cls-8" d="M392.31,157.33h0a.47.47,0,0,1-.63.18l-11.2-6a.46.46,0,0,1-.18-.62h0a.46.46,0,0,1,.62-.19l11.2,6A.45.45,0,0,1,392.31,157.33Z"/><path class="cls-9" d="M670.31,136s6.54,1.45,14.09,8l-9.06,16.52a19.27,19.27,0,0,0-9.28-5Z"/><path class="cls-10" d="M671.94,146.49c.79-3,1.44-6,2.21-8.92a27.49,27.49,0,0,0-3.84-1.56l-4.25,19.59c2.37-2.06,3-1.27,3.42-1.49C670.19,151.56,671.26,149,671.94,146.49Z"/><path class="cls-9" d="M634.89,127s25.59-2.55,39.82,4.81l-5.23,22.3s-12.55-6.74-33.38-3.86Z"/><rect class="cls-7" x="634.86" y="125.01" width="2.05" height="87.72"/><rect class="cls-7" x="633.3" y="210.08" width="5.18" height="4.12"/><rect class="cls-7" x="631.27" y="213.3" width="9.23" height="2.07"/><path class="cls-5" d="M123.35,312.52l2.21-135.74h36.18l12.37,69.83,13.75-69.83h34.71l2.21,135.74H201.7l-2.62-88-13.84,88H164l-15-88.83-2.21,88.83Z"/><path class="cls-5" d="M238,312.52l24.65-135.74h38.64l24.4,135.74H295.27L291,285.42H273.41l-4.09,27.1ZM276,266.26h12.2l-6.14-50.67Z"/><path class="cls-5" d="M339.32,312.52V176.78h40.52a116.16,116.16,0,0,1,15.36.9A55.33,55.33,0,0,1,408,181a27.82,27.82,0,0,1,10,6.34,28.15,28.15,0,0,1,6.19,10.32,44.18,44.18,0,0,1,2.29,14.94q0,13.66-3.44,21.77t-13.18,13.19l18.5,65H393.52l-14.08-60h-6.88v60Zm33.24-78.27h8.68q8.17,0,11.33-4.7t3.16-13.39q0-8.35-3-12.89t-9.87-4.55H372.56Z"/><path class="cls-5" d="M443.87,312.52V176.78h33.24v52.89l20.54-52.89h32.67l-24.64,61.65,25,74.09H496.51l-17.69-58.78-1.71,2.13v56.65Z"/><path class="cls-5" d="M542.52,312.52V176.78h63.53v22.27H575.76v30.29h22.59v23.09H575.76v37.9h30.62v22.19Z"/><path class="cls-5" d="M631.76,312.52V201.34H612V176.78h72.78v24.56H665V312.52Z"/><path class="cls-5" d="M696.84,312.52V176.78H730V312.52Z"/><path class="cls-5" d="M749.73,312.52V176.78h23.58l24.81,58.13V176.78h27.42V312.52H802.87l-24.65-63.86v63.86Z"/><path class="cls-5" d="M881.62,314.65q-10.56,0-18.09-3.44a27.29,27.29,0,0,1-11.79-9.91,45,45,0,0,1-6.18-14.73,84.92,84.92,0,0,1-1.92-19.08V221.81a78,78,0,0,1,2.17-19.45,41.27,41.27,0,0,1,7-14.73A29.88,29.88,0,0,1,865.82,178q8.26-3.32,19.9-3.32a60,60,0,0,1,16.33,2,35.52,35.52,0,0,1,11.67,5.44,28.23,28.23,0,0,1,7.53,8.56,37,37,0,0,1,4.17,10.93,62.16,62.16,0,0,1,1.23,12.85v9.74H894v-13c0-1.53,0-2.77-.09-3.73a25,25,0,0,0-.49-3.52,9.36,9.36,0,0,0-1.18-3.27,6.69,6.69,0,0,0-2.34-2.09,7.37,7.37,0,0,0-3.76-.9,7.9,7.9,0,0,0-4.51,1.22,6.75,6.75,0,0,0-2.58,3.48,22,22,0,0,0-1,4.26,40.29,40.29,0,0,0-.24,4.71v66.56a24.88,24.88,0,0,0,.41,4.71,19.19,19.19,0,0,0,1.35,4.29,7.66,7.66,0,0,0,2.86,3.4,8.19,8.19,0,0,0,4.63,1.27,8,8,0,0,0,5.85-2.29,11.3,11.3,0,0,0,3.11-5.2,24.07,24.07,0,0,0,.78-6.26V260.12H885.88V241.05h40.77v71.47H904.46l-1.63-9.91Q896.85,314.65,881.62,314.65Z"/><rect class="cls-11" x="534.31" y="261.8" width="54.19" height="59.31"/><rect class="cls-9" x="537.95" y="265.99" width="46.91" height="50.91"/><path class="cls-5" d="M574.28,293.14a2.35,2.35,0,0,0-2.95-.6s3.49-7.71,1.28-11.53a3.55,3.55,0,0,0-.79-.93c.55-2.54-1.88-3.61-3.82-4.6a16.24,16.24,0,0,0-3.9-1.4,11.25,11.25,0,0,0-7.66.85c-2.57,1.42-5.15,4.31-7.81,3.65a5.64,5.64,0,0,0-.1,3.9,9.77,9.77,0,0,0,2.05,3.89,30.36,30.36,0,0,0,2,6.17,2.35,2.35,0,0,0-3,.6c-1.34,1.54,2.21,5.43,3,5.9a17,17,0,0,0,3,5.74,13.16,13.16,0,0,0,3,2.66h-.26s-.75,7.07-2.12,9.47h10.89c-1.26-2.21-2-8.4-2.1-9.33a13.24,13.24,0,0,0,3.25-2.8,17,17,0,0,0,3-5.74C572.07,298.57,575.62,294.68,574.28,293.14Z"/><path d="M559.83,295.74v-2.5a10,10,0,0,0,2.69-2.52,4.29,4.29,0,0,0,.9-2.51c0-.12,0-.24,0-.36a.81.81,0,0,0-.33-.67,1.34,1.34,0,0,0-.7-.16.88.88,0,0,0-.59.23.72.72,0,0,0-.25.59,3.53,3.53,0,0,0,0,.36,1.23,1.23,0,0,0,.05.22,2.06,2.06,0,0,0,.1.25c0,.11.09.21.12.28l-3.75.74c0-.09-.07-.21-.12-.38a3.56,3.56,0,0,1-.11-.35l-.08-.28a2.62,2.62,0,0,1-.06-.3l0-.29c0-.12,0-.24,0-.36v-.08a4,4,0,0,1,.2-1.32,3.28,3.28,0,0,1,.74-1.15,3.23,3.23,0,0,1,1.43-.82,7.64,7.64,0,0,1,2.23-.29,6.41,6.41,0,0,1,3.93,1,3.44,3.44,0,0,1,1.36,2.9,6,6,0,0,1-1.15,3.38,6.81,6.81,0,0,1-2.75,2.48v1.88Zm-.1,4.15v-3.23h4v3.23Z"/><path class="cls-12" d="M508.29,287.27s1.2,2.13.61,2.77c0,0,1.6,1.46,2.86.85s.52-1.17.52-1.17-.87-.38-1.31-2.21S508.29,287.27,508.29,287.27Z"/><path class="cls-13" d="M509.56,290.52a2.87,2.87,0,0,1,.8-.87,2.93,2.93,0,0,1,1.35-.45,4.51,4.51,0,0,1-.74-1.69c-.44-1.84-2.68-.24-2.68-.24s1.2,2.13.61,2.77A4.42,4.42,0,0,0,509.56,290.52Z"/><path class="cls-12" d="M507.28,284.75s.7-1.89,1.87-1.93,1.92.09,2.11.52a13.32,13.32,0,0,0,.91,2.07c.34.42,1,1,1,1.17s-.64.34-.67.43a6.85,6.85,0,0,1-.48,1.79,4.77,4.77,0,0,1-2.93-1.11C508.71,287.06,507.29,285.93,507.28,284.75Z"/><path class="cls-7" d="M509.66,284.67c.31.21,1.07.42,2.25-.25s.38-3.42-2.17-3-2.34,1.35-2.79,1.6a1.77,1.77,0,0,0-1,1.09,2.49,2.49,0,0,0,1.1,2.95c1.32,1,2.11.7,2.11.7,0-.32-.06-.86-.36-1a1.68,1.68,0,0,1-.44-.18.5.5,0,0,1,.39-.88c.29,0,.48.5.67.66s.3.13.4.08.25-.68-.21-1.23C509.34,284.87,509.35,284.46,509.66,284.67Z"/><path class="cls-7" d="M504.43,325s-1.05,2-.82,2.48,4.63,2.25,5.16,2,.55-1-.29-1.62-1.5-.56-2-1.06,0-1.42,0-1.42Z"/><path class="cls-7" d="M516.33,325.54s.14,2.43.52,2.73,5.14.28,5.52-.16.14-1.07-.83-1.26a14.47,14.47,0,0,1-2.19-.26c-.59-.24-.91-1.55-.91-1.55Z"/><path class="cls-4" d="M515.34,300.79l-6.2.38s4.67,11.14,5.31,12.48S516.09,326,516.09,326l2.86-.46s-.6-11.3-.75-12.23A113.52,113.52,0,0,0,515.34,300.79Z"/><path class="cls-14" d="M513.24,305.37c.2-1,.35-2.39.57-3.42.09-.41.66-.43.71-.84a1.18,1.18,0,0,1-.25-.25l-5.13.31s4.67,11.14,5.31,12.48c.06.13.15.35.26.62,0-.22,0-.45,0-.67C514.55,311.79,513,306.55,513.24,305.37Z"/><path class="cls-4" d="M513.6,301.32h-5.3a8,8,0,0,0-.62,4.19c.33,2.27-.36,6.67-.4,7.26s-2.79,10.13-3.19,12.31l2.44.87s4-11.7,4.17-11.93S513.6,301.32,513.6,301.32Z"/><path class="cls-12" d="M515.7,298.63s1,1.51,1.77,1.39,5.82-3.45,5.82-3.45l-1.07-.71s-4.05,2.77-4.45,2.65a40.32,40.32,0,0,1-2.17-4.91c-1.08-2.56-1.7-2.94-1.7-2.94Z"/><path class="cls-13" d="M515.7,298.63s1,1.51,1.77,1.39,5.82-3.45,5.82-3.45l-1.07-.71s-4.05,2.77-4.45,2.65c-.2-.06-1.38-3.18-2.24-5.08-1.17-2.59-1.63-2.77-1.63-2.77Z"/><path class="cls-9" d="M516.13,294.44s-.44-1-.59-1.26c-1.18-2.33-1.64-2.52-1.64-2.52l1,4.57A4,4,0,0,0,516.13,294.44Z"/><path class="cls-10" d="M516.13,294.44s-.44-1-.59-1.26c-1.18-2.33-1.64-2.52-1.64-2.52l1,4.57A4,4,0,0,0,516.13,294.44Z"/><path class="cls-9" d="M507.29,303.2a17.27,17.27,0,0,0,8.84-.28,38.79,38.79,0,0,1-.87-6.06c0-1.81-.57-5.66-1.51-6.34a5.71,5.71,0,0,0-1.53-.83,1.71,1.71,0,0,1-1.05,1c-.72.18-2.13-.75-2.13-.75s-2.87,1.12-3.26,1.75c-.78,1.29,1.31,4.94,1.77,6.83A12,12,0,0,1,507.29,303.2Z"/><path class="cls-10" d="M511.06,303.65a23.53,23.53,0,0,1-.32-2.69,6.51,6.51,0,0,1,0-2.25c-.06-.19-.12-.39-.16-.56-.25-.87-.23-2.8-1.25-3.78a5,5,0,0,0-2.2-1.6,11.8,11.8,0,0,1-1.49-.4c0,.35-.43,1-.28,1.49.62,1.51,1.85,3.39,2.15,4.62a12,12,0,0,1-.26,4.72A19.29,19.29,0,0,0,511.06,303.65Z"/><path class="cls-7" d="M539.66,299.45a11.8,11.8,0,1,0-16.3-7.19l-17.09,8.25a1.64,1.64,0,0,0-.78,2.19v0a1.66,1.66,0,0,0,2.2.79l17.08-8.25A11.8,11.8,0,0,0,539.66,299.45Zm-13.26-6.79A9.09,9.09,0,1,1,538.5,297,9.09,9.09,0,0,1,526.4,292.66Z"/><path class="cls-12" d="M508.73,295.81s1.51,3.11,1.83,3.14a50.4,50.4,0,0,0,6.24-.64,4.31,4.31,0,0,0,.62-.51l.28-.23a2.53,2.53,0,0,0,.36-.2c.09-.07.39-.52.56-.47s.12.13.1.24-.23.27-.32.37-.21.22-.18.31.31-.09.37-.13a1.09,1.09,0,0,0,.26-.22l.23-.31.13-.2a2.49,2.49,0,0,0,.2-.32c.05-.08.12-.18.23-.12s0,.27,0,.35a1.83,1.83,0,0,0-.14.28c0,.07-.13.17-.1.25a1.67,1.67,0,0,0,.31-.34c.05-.08.33-.54.46-.45s0,.44-.13.57a1.57,1.57,0,0,1-.21.24s-.19.19-.16.19c.19,0,.33-.32.45-.45s.31-.34.35-.09a.42.42,0,0,1-.1.26,1.4,1.4,0,0,1-.31.33,1.39,1.39,0,0,0-.2.22c.15,0,.44-.37.57-.27s0,.24-.06.29a4.53,4.53,0,0,1-1.28.87,15.09,15.09,0,0,1-1.47.68c-.71.28-6.78,2.18-7.51,2.09s-2.65-3.8-3.21-4.88S508.73,295.81,508.73,295.81Z"/><path class="cls-9" d="M506.66,297.5a11.57,11.57,0,0,0,3-1.71s-1.82-5.71-3.65-4.4C504,292.87,506.66,297.5,506.66,297.5Z"/><path class="cls-12" d="M522.23,296.2c.1-.06.23,0,.39.15-.21-.27-.47-.55-.22-.59s.42.35.6.47c-.1-.14-.66-.53-.44-.82s.73.51.86.64c-.12-.11-.63-.64-.36-.75s.59.36.77.5.3.2.33.37c.06.34-.44.58-.7.65a1.38,1.38,0,0,1-1-.17C522.27,296.54,522.14,296.26,522.23,296.2Z"/><circle class="cls-9" cx="833.63" cy="279.97" r="37.85"/><circle class="cls-5" cx="833.63" cy="279.97" r="28.69" transform="translate(454.57 1073.47) rotate(-83.03)"/><circle class="cls-9" cx="833.63" cy="279.97" r="20.49" transform="translate(-41.86 197.22) rotate(-13.16)"/><path class="cls-5" d="M847.73,280a14.1,14.1,0,1,1-14.1-14.1A14.1,14.1,0,0,1,847.73,280Z"/><path class="cls-9" d="M840.14,280a6.51,6.51,0,1,1-6.51-6.5A6.51,6.51,0,0,1,840.14,280Z"/><path class="cls-12" d="M850.48,263.07l-.53,1.29a4.06,4.06,0,0,0-.89-.4,6.77,6.77,0,0,1-1.06-.07,1.75,1.75,0,0,1-.61-.32c-.1-.06-.28-.26-.12-.31s.29.15.38.18a1.77,1.77,0,0,0,.41,0l-.35-.14a5,5,0,0,1-.78-.36c-.08-.08-.06-.26.16-.22a2.84,2.84,0,0,1,.54.19l.46.16-.48-.19c-.14-.07-.54-.22-.78-.33s-.19-.38,0-.36a6.93,6.93,0,0,1,.8.33l.46.21s-.45-.21-.53-.26-.58-.24-.64-.39a.15.15,0,0,1,.18-.19,2.53,2.53,0,0,1,.64.21,5.76,5.76,0,0,0,1,.41c.15,0,.3,0,.31-.19l.24-.45s.17.08.25.49C849.6,262.62,850,262.91,850.48,263.07Z"/><path class="cls-4" d="M865.51,268.39a2.29,2.29,0,0,0-2-2.2c-1.81-.27-5.16-.78-6.17-1-1.4-.32-7.14-2.24-7.14-2.24l-.63,1.52s6.25,3.13,7.37,3.38,6.89,2.29,8,1.65A1.18,1.18,0,0,0,865.51,268.39Z"/><polygon class="cls-7" points="870.07 283.41 869.71 282.33 853.49 282.33 853.84 283.41 870.07 283.41"/><polygon class="cls-7" points="872 289.19 871.63 288.1 855.33 288.1 855.68 289.19 872 289.19"/><polygon class="cls-7" points="867.63 277.63 867.27 276.55 851.05 276.55 851.4 277.63 867.63 277.63"/><polygon class="cls-7" points="873.95 295.04 873.58 293.93 857.19 293.93 857.54 295.04 873.95 295.04"/><polygon class="cls-7" points="875.91 300.94 875.54 299.82 859.06 299.82 859.42 300.94 875.91 300.94"/><polygon class="cls-7" points="877.9 306.91 877.53 305.78 860.96 305.78 861.32 306.91 877.9 306.91"/><polygon class="cls-7" points="879.92 312.95 879.54 311.8 862.88 311.8 863.24 312.95 879.92 312.95"/><path class="cls-7" d="M881.78,321.63h.07a.75.75,0,0,0,.72-1L867.34,275a.76.76,0,0,0-.71-.52h-1l15.49,46.61A.74.74,0,0,0,881.78,321.63Z"/><path class="cls-7" d="M865.28,321.63h.09a.75.75,0,0,0,.71-1L851.52,275a.75.75,0,0,0-.71-.53h0a.76.76,0,0,0-.72,1l14.5,45.62A.75.75,0,0,0,865.28,321.63Z"/><path class="cls-12" d="M865.25,261.24l-.1.11a6.78,6.78,0,0,1-1,.9c-.23.15-.59.25-.78.41a2.2,2.2,0,0,1-.25.17,18.9,18.9,0,0,1,.35,3s2.06-.14,2.81-1A20.08,20.08,0,0,1,865.25,261.24Z"/><path class="cls-13" d="M864.15,264.68a3,3,0,0,1,.93-1.55,4.2,4.2,0,0,1,.49-.37,10.13,10.13,0,0,1-.32-1.52l-.1.11a6.78,6.78,0,0,1-1,.9c-.23.15-.59.25-.78.41a2.2,2.2,0,0,1-.25.17,18.9,18.9,0,0,1,.35,3,6.68,6.68,0,0,0,.82-.11A1.51,1.51,0,0,1,864.15,264.68Z"/><path class="cls-7" d="M864.11,297.89s-.06,2-.38,2.32-4.39.4-4.74,0-.15-1,.73-1.24,1.4,0,2-.25.43-1.17.43-1.17Z"/><path class="cls-7" d="M874.21,297.82s.31,2,0,2.28-4.45.62-4.82.26-.18-1,.68-1.27,1.38-.11,2-.33.15-1.12.15-1.12Z"/><path class="cls-6" d="M871.2,286.34a61.26,61.26,0,0,0-.85-11.38,5,5,0,0,0-2,.39c-1.25.57-2.5,1.11-3.75,1.65a78.84,78.84,0,0,1,3.5,10.38c.34,1.79,4.06,10.88,4.06,10.88l2.26-.28C874.35,296.51,871.19,286.83,871.2,286.34Z"/><path class="cls-15" d="M866.57,276.16a20.64,20.64,0,0,1-2,.82,84.16,84.16,0,0,1,3.22,9.26c.32-.95,1.85-3.26,2.43-5.79a13.33,13.33,0,0,0,.19-5.15v0A9.84,9.84,0,0,0,866.57,276.16Z"/><path class="cls-6" d="M868.26,275.85c-.88.3-2.48.72-3.69,1.15-.84,2.13-3.32,7.14-3.45,9.41-.14,2.5.72,12,.72,12h2.58s.24-10.68.6-11.37c1.2-2.26,2.51-4.06,3.26-5.47a17.37,17.37,0,0,0,1.9-5c.1-.49.53-2.13-.3-2.64C869.19,274.12,869,275.6,868.26,275.85Z"/><path class="cls-4" d="M863.63,277.52a10.6,10.6,0,0,0,4.3.67,8.27,8.27,0,0,0,3.33-.68s-1-7.7-2.13-10.13a5.07,5.07,0,0,0-3-2.89,6.45,6.45,0,0,1-2.68.83s0,4.74.12,6.63S863.63,277.52,863.63,277.52Z"/><path class="cls-14" d="M863.53,271.26c0-.21,0-.43,0-.67v-.08c0-.22,0-.45,0-.69v-.12c0-.26,0-.53,0-.79h0l.29,0a6.68,6.68,0,0,0,2.06-1l.34-.17a9,9,0,0,1-.52,3.05,17.38,17.38,0,0,0-.37,7.19,11.37,11.37,0,0,1-1.65-.47s0-3.68-.07-5.57c0-.17,0-.37,0-.57Z"/><path class="cls-12" d="M866.31,259.33s-.88-1.83-2-1.76-1.92.27-2.07.72a13.24,13.24,0,0,1-.72,2.15c-.3.45-.94,1.06-.93,1.26s.68.29.72.37a7.08,7.08,0,0,0,.64,1.75,4.82,4.82,0,0,0,2.83-1.38C865.09,261.77,866.41,260.51,866.31,259.33Z"/><path class="cls-7" d="M863.93,259.5a2.92,2.92,0,0,0-.35.1l-.52.07a2,2,0,0,1-1,0c-.5-.16-.34-.66-.57-1-.12-.18-.35-.17-.48-.36a1.28,1.28,0,0,1-.15-.66c0-.53.53-.58.94-.68s.5-.39.73-.75c.57-.89,1.37.35,2,.27.32,0,.65-.25,1-.07a2.26,2.26,0,0,1,.61.66c.19.25.37.15.65.26a1.46,1.46,0,0,1,.56.43,1.72,1.72,0,0,1,.43,1.4c-.08.42-.41.64-.43,1.07a2.47,2.47,0,0,1-.16,1.08c-.24.46-.78.52-1.15.83a1.51,1.51,0,0,1-1.3.4c0-.32,0-.86.27-1a1.58,1.58,0,0,0,.43-.22.5.5,0,0,0-.48-.84c-.37.05-.54,1.05-.94.89s.07-.63.15-.81.17-.8-.05-1A.21.21,0,0,0,863.93,259.5Z"/><path class="cls-12" d="M854.15,277.56a2.44,2.44,0,0,0-.3,0,1.19,1.19,0,0,1-.66-.08,2.67,2.67,0,0,0-1.12-.27c-.18,0-1.31.3-1,.76,0,.06.17.16.21.14l.44-.16a2.08,2.08,0,0,0-.3.13.83.83,0,0,0-.15.11.29.29,0,0,0,.13.34c.09,0,.17-.07.25-.11h0c-.07.06-.24.11-.14.34s.2.1.31.07l.12-.05s-.2.1-.23.13.13.41.34.38.43-.2.5-.18a2.3,2.3,0,0,0,.26,0,1.57,1.57,0,0,0,.76-.15c.1,0,.31-.13.41-.19a5.54,5.54,0,0,0,.63-.42C854.4,278,854.12,277.93,854.15,277.56Z"/><path class="cls-4" d="M854.54,279l-.9-1.8a51.74,51.74,0,0,0,6.14-4.53c1.64-1.66,3.41-5,4.67-5.24s2.51.47,1.79,2.22-4.4,4.05-5.15,4.82A72.83,72.83,0,0,1,854.54,279Z"/><path class="cls-9" d="M867,236.49c-.8-.35-3.36-1.68-5.42,3.18-2,4.62-4,10.89-4,10.89s5.09-4.2,8.7-7.69C870.06,239.19,867.77,237,867,236.49Z"/><path class="cls-7" d="M862.64,240.2l-4.89,5a35,35,0,0,0-4,4.93l-20,29.8,22.66-24.54a35.2,35.2,0,0,0,6.22-9.36l1.91-4.21A6,6,0,0,1,862.64,240.2Z"/><path class="cls-9" d="M856.75,250.94s-3.3-9.19-.22-15.14,7.11,5.38,7.11,5.38Z"/><path class="cls-9" d="M856.72,250.89s9.76,0,14.32-4.94-7.48-4.86-7.48-4.86Z"/><path class="cls-12" d="M849.43,263.09c-.08,0-.15.17-.23.15V263c0-.2-.78-.25-.94-.34-.51-.26-.3-.58-.07-.51s.51.16.64.22a3.19,3.19,0,0,0,.52.06,3.44,3.44,0,0,1,.65.45C850.27,263.07,849.7,263.21,849.43,263.09Z"/><path class="cls-4" d="M814.14,292.06a22.83,22.83,0,0,0-7,3.24c-3,2.24-6.15,9.17-6.77,14s-1.84,8.67,0,11.16,7.83,3,13,3.5,12.25-.73,13.68-2.52,1.31-15.34-1.37-20.45S818.06,291.94,814.14,292.06Z"/><path class="cls-14" d="M821,321.21a8.88,8.88,0,0,1-3-1.43,6.82,6.82,0,0,0-5.23-1.93c-2.09,0-4.1,0-5.9-1.17a5.44,5.44,0,0,1-2.1-5.26,8.32,8.32,0,0,1,1.52-3.53,4.84,4.84,0,0,0,1-4.62,12.5,12.5,0,0,1,.11-6.62,5.92,5.92,0,0,1,2.12-2.84,17,17,0,0,0-2.46,1.49c-3,2.24-6.15,9.17-6.77,14s-1.84,8.67,0,11.16,7.83,3,13,3.5,12.25-.73,13.68-2.52a5.41,5.41,0,0,0,.64-2.23C825.84,321,823.52,322.05,821,321.21Z"/><path class="cls-4" d="M813.58,293.06s-4.32-1.05-4.91-4.32,1.13-4.4,2.46-3.65,1.53.35,2.45-.22,2.27.35,2.94,1.31.79-.17,2.39-.29,2.14,1.34,1.3,3.27S818.57,293.15,813.58,293.06Z"/><path class="cls-14" d="M818.26,291.22c-1.12.29-.45-1.16-.63-1.66-.3,0-.41.5-.5.71a1.32,1.32,0,0,1-1.19.76c-.7,0-.8-.77-1.1-1.24-.12-.2-.18-.19-.26,0s0,.56-.24.76c-.45.38-1.19-.05-1.54-.35s-.54-.87-.94-1.19a.6.6,0,0,0-.13.28c-.1.48-.07,1.37-.83,1.21s-1.09-1.21-1.3-1.75a6,6,0,0,1-.47-2,6.22,6.22,0,0,1,.06-.86,2.45,2.45,0,0,1,.16-.66h0c-.63.55-1,1.7-.68,3.5.5,2.78,3.7,4,4.65,4.25a1.75,1.75,0,0,0,.51.07c3.93,0,5.15-1.36,5.92-2.9h0A7.29,7.29,0,0,1,818.26,291.22Z"/><path class="cls-5" d="M815.4,302.78c2.12.21,4,1.16,4,3.29l-3.54-.07c0-.8-.83-1-1.34-1-.33,0-1.38,0-1.39.63,0,1.45,6.52.06,6.45,4.17-.05,2.46-2,3.35-4.37,3.48l.11,2.62-2.16,0,.18-2.64c-2.19-.26-4.22-1.33-4.18-3.55l3.54.06v.08c0,1,1.09,1.19,1.65,1.19s1.58,0,1.6-.71c0-1.51-6.52-.25-6.45-4.23,0-2.29,1.84-3.14,4-3.29l-.09-2.64,2.16,0Z"/><path class="cls-7" d="M810.43,291.51l-.39,2.06s1.11,1.06,4.11,1.06a9,9,0,0,0,4.63-1.06l-.19-1.86A17,17,0,0,1,810.43,291.51Z"/><rect class="cls-11" x="795.57" y="126.33" width="44.05" height="29.8" rx="2"/><rect class="cls-7" x="797.58" y="128.7" width="40.04" height="25.05"/><polygon class="cls-9" points="812.21 135.43 812.21 147.7 824.15 141.57 812.21 135.43"/><rect class="cls-7" x="394.64" y="302.53" width="73.95" height="10.86"/><path class="cls-7" d="M392.16,251h78.91a4.53,4.53,0,0,1,4.53,4.53v49.91a4.54,4.54,0,0,1-4.54,4.54H392.16a4.53,4.53,0,0,1-4.53-4.53V255.52A4.54,4.54,0,0,1,392.16,251Z"/><rect class="cls-8" x="391.68" y="254.89" width="79.88" height="50.55"/><path class="cls-7" d="M379.05,325.7v1.62c0,.89,1,1.61,2.17,1.61H482c1.2,0,2.17-.72,2.17-1.61V325.7Z"/><path class="cls-7" d="M431.62,313.27H388.47c-.15.15-6.93,6.22-9,10.73-.89,1.93-.31,2.95,1.34,2.95H482.43c1.64,0,2.22-1,1.34-2.95-2.07-4.51-8.86-10.58-9-10.73Z"/><polygon class="cls-16" points="478.72 324.64 386.78 324.64 393.15 315.21 472.35 315.21 478.72 324.64"/><path class="cls-6" d="M477.6,323l-.2-.29h-6.13l-1.14-2.29h5.73l-.2-.29H470l-1.14-2.29h5.27l-.2-.3h-5.22l-1.16-2.31H467l1.14,2.31h-6.57l-.92-2.31h-.53l.9,2.31h-6.56l-.69-2.31h-.53l.67,2.31h-6.57l-.45-2.31h-.53l.43,2.31h-6.57l-.21-2.31h-.53l.19,2.31h-6.23v-2.31h-.58v2.31h-6.47l.2-2.31h-.53l-.21,2.31h-6.57l.43-2.31h-.53l-.45,2.31h-6.57l.67-2.31h-.53l-.69,2.31H405l.91-2.31h-.53l-.92,2.31h-6.57l1.14-2.31h-.53l-1.16,2.31h-5.79l-.2.3h5.84l-1.14,2.29h-6.25l-.2.29h6.3l-1.14,2.29h-6.7l-.2.29h6.75l-.82,1.66h.6l.81-1.66h7.08l-.65,1.66h.6l.64-1.66H410l-.49,1.66h.6l.48-1.66h7.08l-.33,1.66H418l.31-1.66h7.08l-.16,1.66h.61l.14-1.66h6.93v1.66h.58V323h6.7l.14,1.66h.6l-.15-1.66h7.08l.31,1.66h.6L448.4,323h7.08l.48,1.66h.6l-.49-1.66h7.08l.65,1.66h.6l-.66-1.66h7.08l.82,1.66h.6l-.82-1.66Zm-72.67-5.16h6.6l-.68,2.29H404Zm-7.15,0h6.6l-.91,2.29h-6.81Zm4.66,4.87h-7.05l1.12-2.29h6.84Zm7.64,0H403l.89-2.29h6.84Zm7.64,0h-7.05l.66-2.29h6.84Zm.51-2.58h-6.81l.66-2.29h6.59Zm7.14,2.58h-7.06l.43-2.29h6.84Zm.24-2.58H418.8l.42-2.29h6.6Zm7.25,2.58H426l.2-2.29h6.71Zm0-2.58h-6.69l.2-2.29h6.49Zm.58-2.29h6.26l.19,2.29h-6.45Zm0,4.87V320.4h6.48l.19,2.29Zm34.85-4.87,1.12,2.29H462.6l-.91-2.29Zm-7.15,0,.89,2.29h-6.81l-.68-2.29Zm-20.89,0h6.6l.42,2.29h-6.81Zm.45,4.87-.21-2.29h6.84l.43,2.29Zm6.7-4.87H454l.66,2.29h-6.81Zm.94,4.87-.44-2.29h6.84l.66,2.29Zm7.65,0-.68-2.29h6.84l.89,2.29Zm7.64,0-.91-2.29h6.84l1.12,2.29Z"/><path class="cls-7" d="M431.62,327h-4.47a.9.9,0,0,0,.22.61.48.48,0,0,0,.34.13h7.81a.47.47,0,0,0,.34-.13.9.9,0,0,0,.22-.61Z"/><rect class="cls-8" x="391.68" y="254.89" width="79.87" height="50.55"/><polygon class="cls-4" points="433.1 280.68 425.89 283.88 416.77 274.77 391.68 293.89 391.68 305.44 471.55 305.44 471.55 246.04 438.18 286.43 433.1 280.68"/><rect class="cls-8" x="407.43" y="290.01" width="2.55" height="1.93"/><rect class="cls-8" x="411.02" y="290.01" width="2.55" height="1.93"/><rect class="cls-9" x="414.62" y="290.01" width="2.55" height="1.93"/><rect class="cls-8" x="418.21" y="290.01" width="2.55" height="1.93"/><rect class="cls-8" x="421.81" y="290.01" width="2.55" height="1.93"/><rect class="cls-9" x="425.4" y="290.01" width="2.55" height="1.93"/><rect class="cls-8" x="407.43" y="293.31" width="2.55" height="1.93"/><rect class="cls-8" x="411.02" y="293.31" width="2.55" height="1.93"/><rect class="cls-8" x="414.62" y="293.31" width="2.55" height="1.93"/><rect class="cls-8" x="418.21" y="293.31" width="2.55" height="1.93"/><rect class="cls-9" x="421.81" y="293.31" width="2.55" height="1.93"/><rect class="cls-8" x="425.4" y="293.31" width="2.55" height="1.93"/><rect class="cls-8" x="407.43" y="296.61" width="2.55" height="1.93"/><rect class="cls-9" x="411.02" y="296.61" width="2.55" height="1.93"/><rect class="cls-8" x="414.62" y="296.61" width="2.55" height="1.93"/><rect class="cls-8" x="418.21" y="296.61" width="2.55" height="1.93"/><rect class="cls-8" x="421.81" y="296.61" width="2.55" height="1.93"/><rect class="cls-8" x="425.4" y="296.61" width="2.55" height="1.93"/><rect class="cls-8" x="407.43" y="299.91" width="2.55" height="1.93"/><rect class="cls-8" x="411.02" y="299.91" width="2.55" height="1.93"/><rect class="cls-9" x="414.62" y="299.91" width="2.55" height="1.93"/><rect class="cls-8" x="418.21" y="299.91" width="2.55" height="1.93"/><polygon class="cls-5" points="433.96 284.54 433.7 284.29 433.38 284.43 433.17 283.93 433.81 283.66 434.32 284.16 433.96 284.54"/><path class="cls-5" d="M428.15,286.63l-.2-.51.87-.36.21.5Zm1.75-.74-.21-.5.88-.37.2.5Zm1.74-.73-.2-.5.87-.37.2.5Z"/><polygon class="cls-5" points="426.64 287.26 426.12 286.8 426.45 286.39 426.73 286.63 427.07 286.49 427.28 286.99 426.64 287.26"/><path class="cls-5" d="M425.34,286.12l-.77-.67.34-.41.77.67Zm-1.54-1.35-.78-.67.34-.41.77.67Zm-1.55-1.35-.78-.67.34-.41.78.67Zm-1.55-1.35-.77-.67.34-.41.77.67Zm-1.55-1.35-.77-.67.34-.41.77.67Z"/><polygon class="cls-5" points="417.61 279.37 417.36 279.15 417.09 279.34 416.79 278.89 417.39 278.47 417.95 278.96 417.61 279.37"/><path class="cls-5" d="M393.48,295.93l-.31-.46.93-.65.31.45Zm1.85-1.31-.31-.45.93-.65.31.45Zm1.85-1.3-.31-.45.92-.65.31.46ZM399,292l-.3-.46.91-.64.31.46Zm1.84-1.29-.31-.45.92-.65.31.46Zm1.83-1.28-.31-.46.91-.64.31.46Zm1.82-1.28-.31-.46.91-.64.31.46Zm1.82-1.28-.31-.45.91-.64.3.45Zm1.81-1.27-.31-.45.9-.64.31.45Zm1.8-1.27-.3-.45.89-.63.31.45Zm1.8-1.26-.31-.45.9-.63.3.45Zm1.79-1.26-.31-.45.9-.62.3.45Zm1.78-1.25-.3-.45.89-.62.3.44Z"/><path class="cls-5" d="M440.16,288.07l-.39-.37.68-.8.4.37Zm1.37-1.6-.39-.36.68-.8.39.37Zm1.36-1.59-.39-.36.68-.79.39.36Zm1.36-1.58-.39-.36.68-.79.39.36Zm1.35-1.58-.38-.36.67-.79.39.37Zm1.35-1.57-.38-.36.67-.78.39.36Zm1.35-1.57-.39-.36.67-.78.39.36Zm1.34-1.56-.39-.36.67-.77.39.35Zm1.33-1.55-.38-.36.66-.78.39.36Zm1.33-1.55-.38-.36.66-.77.39.35Zm1.33-1.55-.39-.35.66-.77.39.35Zm1.32-1.54-.38-.35.65-.77.39.36Zm1.32-1.53-.39-.36.66-.76.38.35Zm1.31-1.53-.38-.35.65-.77.38.36Zm1.31-1.52-.39-.36.66-.76.38.36Zm1.3-1.52-.38-.36.65-.75.38.35Zm1.3-1.51-.38-.36.65-.75.38.35Zm1.29-1.51-.38-.35.65-.76.38.36Zm1.29-1.5-.38-.36.65-.75.38.36Zm1.29-1.5-.38-.35.64-.75.38.35Zm1.28-1.49-.38-.36.64-.74.38.35Zm1.27-1.49-.37-.35.63-.74.38.35Zm1.19-1.41-.37-.35.63-.74.38.35Zm1.19-1.41-.38-.35.64-.74.38.35Z"/><polygon class="cls-5" points="438.95 289.47 438.38 288.9 438.73 288.51 438.92 288.69 439.08 288.5 439.47 288.86 438.95 289.47"/><path class="cls-5" d="M437.49,288l-.88-.87.36-.39.88.87Zm-1.76-1.74-.89-.88.36-.38.88.87Z"/><path class="cls-9" d="M469.43,240.14l-31.14,39.47-5-6.08-7.37,3.5-9.37-10-24.83,20.19v2.43l24.74-20.11,9.23,9.84,7.33-3.47,5.33,6.43,32.31-41A12.65,12.65,0,0,1,469.43,240.14Z"/><polygon class="cls-9" points="474.25 236.57 466.9 239.06 471.76 243.92 474.25 236.57"/><path class="cls-9" d="M401.29,261.33c1.66.12,3.17.83,3.18,2.49l-2.76,0c0-.63-.67-.76-1.07-.76-.25,0-1.08,0-1.07.52,0,1.13,5.1-.08,5.11,3.14,0,1.93-1.49,2.65-3.34,2.8l.13,2h-1.69l.09-2.07c-1.72-.17-3.32-1-3.33-2.7l2.76,0v.06c0,.77.88.91,1.31.91s1.24,0,1.24-.59c0-1.18-5.1-.08-5.12-3.19,0-1.79,1.38-2.49,3.09-2.65l-.11-2.06h1.69Z"/><path class="cls-7" d="M443.49,316.94s.11,2.25-.22,2.59-4.78.82-5.19.44-.25-1.09.69-1.43,1.53-.13,2.15-.45.37-1.32.37-1.32Z"/><path class="cls-7" d="M458.09,316.94s-.12,2.25.21,2.59,4.78.82,5.19.44.25-1.09-.69-1.43-1.53-.13-2.15-.45-.37-1.32-.37-1.32Z"/><path class="cls-9" d="M458.33,303.94c-.49-2.45-3.1-9.14-4.06-11.46-.39-.13-.82-.26-1.25-.38.12-.53.19-1,.27-1.37-.75.2-1.56.3-2.37.56l-.36.11-.37-.11c-.81-.26-1.61-.36-2.37-.56.08.39.16.84.27,1.37-.43.12-.86.25-1.25.38-1,2.32-3.57,9-4.06,11.46-.67,3.39-1.79,13.43-1.79,13.43l2.86.38s2.88-13.5,3.29-14.25c.74-1.34,1.51-2.52,2.2-3.57a1.45,1.45,0,0,1,2.43,0c.69,1.05,1.46,2.23,2.2,3.57.41.75,3.29,14.25,3.29,14.25l2.87-.38S459,307.33,458.33,303.94Z"/><path class="cls-12" d="M459.12,262.16c-.17-1.16-.34-1.34-.73-1.57a1.55,1.55,0,0,1-.5-.37,3.39,3.39,0,0,0-.52-.47,1.31,1.31,0,0,1-.47-.52c-.09-.28.28-.21.52-.12s.74.8,1,.7-.37-.92-.5-1.08c-.31-.39-.67-.33-1.08-.51-.24-.1-.31-.22-.06-.38a.77.77,0,0,1,.63.05,2.62,2.62,0,0,1,1.1.68,3.13,3.13,0,0,0-.95-.74c-.21-.11-1.17-.4-1-.74.27-.68,2.14.6,2.34,1a3.57,3.57,0,0,0-.92-.81c-.2-.14-.68-.45-.27-.61.59-.24,1.31.86,1.72,1.3a4.28,4.28,0,0,0-.69-.94c-.33-.4.08-.5.49-.15a5.67,5.67,0,0,1,.52.58,3.82,3.82,0,0,1,.79,2.37c0,.36.05.94.17,2C460.75,262.38,459.62,262.07,459.12,262.16Z"/><path class="cls-12" d="M431.24,278.42c-1.1-.41-1.24-.85-1.38-1.29a1.55,1.55,0,0,0-.26-.55,3.7,3.7,0,0,1-.35-.62,1.26,1.26,0,0,0-.41-.56c-.25-.15-.25.22-.22.47s.62.89.47,1.14-.82-.56-.95-.72c-.31-.38-.18-.72-.27-1.16-.05-.26-.15-.36-.35-.14s-.12.42-.1.63a2.73,2.73,0,0,0,.44,1.22,2.94,2.94,0,0,1-.52-1.1c-.06-.22-.15-1.22-.51-1.16-.72.12.14,2.22.44,2.49a3.49,3.49,0,0,1-.59-1.07c-.1-.22-.3-.76-.54-.4-.37.53.56,1.47.9,2a4.38,4.38,0,0,1-.77-.88c-.32-.41-.5,0-.25.44a7.15,7.15,0,0,0,.45.64,3.79,3.79,0,0,0,2.15,1.28,8.49,8.49,0,0,1,1.83.69C431,280,431,278.89,431.24,278.42Z"/><path class="cls-12" d="M452,276.24a7,7,0,0,1-1.88.09,2.44,2.44,0,0,1-.65-.14c0,.78,0,2.59-.53,3.34,0,0,.2.87,1.79.89s1.8-.89,1.8-.89A8.1,8.1,0,0,1,452,276.24Z"/><path class="cls-11" d="M458.11,280.66a8.67,8.67,0,0,0-3.9-2,21.86,21.86,0,0,0-6.85,0c-1.4.22-2.79.57-3.22,1.13s1.08,4.59,1.35,8.17c.23,3,.63,5.26.63,5.26.9,1.65,7.9,1.69,8.79,0,0,0,.17-2.54.66-5.31C456.2,284.36,458.66,281.36,458.11,280.66Z"/><path class="cls-15" d="M446.87,287.14c0-1,.36-2.69,0-3.57-.5-1.27-1.65-1.74-2.71-2.32a50.87,50.87,0,0,1,1.33,6.71c.23,3,.63,5.26.63,5.26a2,2,0,0,0,1.06.74C446.19,292.06,446.78,289,446.87,287.14Z"/><path class="cls-12" d="M454.12,271.9s-3.31-1.95-3.81-1.47-1.29,2.1-1.67,2.35-1,.49-.92.78.25.31.23.61-.68,1.7-.32,2.12,2.77,1.33,4.21.37S455.75,272.77,454.12,271.9Z"/><path class="cls-7" d="M454.85,272.61l-2.79.05a5.67,5.67,0,0,1-1.71,2.26s.07.41.36.32a.89.89,0,0,0,.68-.43c.2-.31.81-1.12,1.21-.41s-.46,1-.83,1c0,0-1.27,1.54-.28,1.83a5.79,5.79,0,0,0,2.78-1.94C455.94,273.46,455.6,272.47,454.85,272.61Z"/><path class="cls-7" d="M449.58,269.36s-1.35.82.21,2.46,5.26.78,5.26.78.39-1.07-.94-2.2c-1-.84-2.09-1.27-3-.86C449.65,270.22,449.58,269.36,449.58,269.36Z"/><path class="cls-11" d="M430.87,277.89l-1.18,1.89a53.92,53.92,0,0,0,6.55,5.24c2,1.36,9-.81,10.1-1.13,1.54-.46,2.7-3.72.12-4.94-1.5-.71-7.54,3.89-9,3.11C435.58,281.08,430.87,277.89,430.87,277.89Z"/><path class="cls-11" d="M458.61,261.67l2.35-.39s1.55,6.79,1.46,9.23-4,11.33-4.87,12c-1.06.84-4-1.57-1.88-4.17s3.53-8,3.59-8.17S458.61,261.67,458.61,261.67Z"/><rect class="cls-6" x="410.01" y="257.8" width="18.96" height="1.71"/><rect class="cls-6" x="410.01" y="260.5" width="18.96" height="1.71"/><rect class="cls-6" x="410.01" y="263.19" width="14.35" height="1.71"/><path class="cls-7" d="M323.22,276.17v7.73h1.93v-5.45a1,1,0,0,1,1-1h8.28a1,1,0,0,1,1,1v5.45h1.93v-7.73a1,1,0,0,0-1-1H324.22A1,1,0,0,0,323.22,276.17Z"/><rect class="cls-7" x="298.69" y="281.28" width="63.21" height="40.63" rx="3.39"/><path class="cls-17" d="M361.9,292.6v-7.94a3.38,3.38,0,0,0-3.39-3.38H302.07a3.38,3.38,0,0,0-3.38,3.38v7.94a8.71,8.71,0,0,0,8.72,8.72h45.77A8.72,8.72,0,0,0,361.9,292.6Z"/><rect class="cls-6" x="328.28" y="299.49" width="4.02" height="4.57"/><rect class="cls-7" x="329.64" y="301.68" width="1.3" height="1.13"/><circle class="cls-6" cx="491.51" cy="145.27" r="12.16"/><path class="cls-7" d="M487.16,143.64a2.31,2.31,0,0,1-.1-.28c-.3-1-.05-1.92.55-2.1s1.35.45,1.65,1.42c0,.1.05.19.07.29l.2-.06c0-.1,0-.19-.08-.29-.35-1.14-1.22-1.89-1.93-1.67s-1,1.32-.66,2.47c0,.1.07.19.1.28Z"/><polygon class="cls-5" points="493 148.21 487.07 150.04 485.7 143.79 490.62 142.27 493 148.21"/><path class="cls-7" d="M493.42,141.2c0-.1,0-.19.05-.29.24-1,.93-1.68,1.55-1.53s.93,1.07.7,2.06a2.29,2.29,0,0,1-.09.28l.2.05.09-.28c.27-1.17-.1-2.26-.82-2.43s-1.55.64-1.82,1.8c0,.1,0,.2-.06.29Z"/><polygon class="cls-9" points="496.14 148.1 490.11 146.68 492.09 140.59 497.1 141.78 496.14 148.1"/><path class="cls-5" d="M474.16,141.51a.22.22,0,0,0-.3,0,.23.23,0,0,0,0,.3l1.59,1.35a.2.2,0,0,0,.29,0,.21.21,0,0,0,0-.29C475.18,142.4,474.66,142,474.16,141.51Z"/><path class="cls-5" d="M478.54,132.1a.22.22,0,0,0,.2-.14.22.22,0,0,0-.13-.27c-.68-.24-1.35-.47-2-.67a.21.21,0,0,0-.26.14.2.2,0,0,0,.13.26c.62.19,1.28.42,2,.66Z"/><path class="cls-5" d="M482.44,133.73a.22.22,0,0,0,.21-.12.22.22,0,0,0-.11-.28c-.66-.29-1.31-.57-1.92-.81a.21.21,0,1,0-.15.39c.6.24,1.24.51,1.9.8Z"/><path class="cls-5" d="M471.17,138.65a.21.21,0,0,0-.3.28c.46.49.95,1,1.48,1.48a.2.2,0,0,0,.14.06.23.23,0,0,0,.15-.07.21.21,0,0,0,0-.29C472.12,139.62,471.62,139.12,471.17,138.65Z"/><path class="cls-5" d="M480.67,146.62a.2.2,0,0,0-.29,0,.22.22,0,0,0,.05.29l1.72,1.18a.2.2,0,0,0,.11,0,.2.2,0,0,0,.17-.09.21.21,0,0,0-.05-.29Z"/><path class="cls-5" d="M477.35,144.15a.22.22,0,0,0-.3,0,.21.21,0,0,0,0,.29l1.66,1.27a.25.25,0,0,0,.12,0,.21.21,0,0,0,.17-.09.2.2,0,0,0-.05-.29Z"/><path class="cls-5" d="M472.51,130.43c.63.1,1.3.25,2,.43h.06a.21.21,0,0,0,.05-.41c-.73-.18-1.42-.32-2.05-.43a.21.21,0,1,0-.07.41Z"/><path class="cls-5" d="M511.86,155.54a.21.21,0,0,0,.19.11l.09,0a.2.2,0,0,0,.09-.28,13.32,13.32,0,0,0-1.11-1.79.21.21,0,1,0-.34.24A12.6,12.6,0,0,1,511.86,155.54Z"/><path class="cls-5" d="M467.24,132.21a1.93,1.93,0,0,1,0-.42.21.21,0,0,0-.41-.08,2.73,2.73,0,0,0-.05.5,4.55,4.55,0,0,0,.37,1.64.22.22,0,0,0,.19.13l.08,0a.21.21,0,0,0,.12-.27A3.91,3.91,0,0,1,467.24,132.21Z"/><path class="cls-5" d="M470.48,129.82h-.12a5.73,5.73,0,0,0-2,.3.21.21,0,0,0,.07.4h.07a5.46,5.46,0,0,1,1.86-.27h.12a.21.21,0,0,0,0-.42Z"/><path class="cls-5" d="M468.56,135.47a.21.21,0,1,0-.35.23,20,20,0,0,0,1.27,1.67.21.21,0,0,0,.16.08.24.24,0,0,0,.13,0,.21.21,0,0,0,0-.29A17.27,17.27,0,0,1,468.56,135.47Z"/><path class="cls-5" d="M504.57,158.77q-.94-.26-2-.6a.2.2,0,0,0-.26.13.2.2,0,0,0,.13.26c.7.23,1.37.43,2,.61h.06a.21.21,0,0,0,.2-.15A.21.21,0,0,0,504.57,158.77Z"/><path class="cls-5" d="M485.86,150c-.59-.36-1.18-.73-1.75-1.1a.2.2,0,0,0-.29.06.21.21,0,0,0,.06.28c.58.38,1.17.75,1.76,1.12a.23.23,0,0,0,.11,0,.22.22,0,0,0,.18-.1A.21.21,0,0,0,485.86,150Z"/><path class="cls-5" d="M508.61,159.51a16.76,16.76,0,0,1-2-.27.21.21,0,0,0-.25.16.21.21,0,0,0,.17.24,17.8,17.8,0,0,0,2.08.29h0a.22.22,0,0,0,.21-.2A.21.21,0,0,0,508.61,159.51Z"/><path class="cls-5" d="M512.87,157.4a.23.23,0,0,0-.22-.2.22.22,0,0,0-.2.22c0,.05,0,.1,0,.14a1.74,1.74,0,0,1-.24.93,2.3,2.3,0,0,1-1.6.94.21.21,0,0,0,0,.41h0a2.61,2.61,0,0,0,1.87-1.12,2.17,2.17,0,0,0,.3-1.15Z"/><path class="cls-5" d="M508.39,150.4a.2.2,0,0,0-.29,0,.21.21,0,0,0,0,.3c.51.51,1,1,1.41,1.51a.19.19,0,0,0,.15.07.24.24,0,0,0,.14-.05.2.2,0,0,0,0-.29C509.38,151.43,508.9,150.92,508.39,150.4Z"/><path class="cls-5" d="M506.75,149.3a.2.2,0,0,0,.15-.06.21.21,0,0,0,0-.3c-.49-.45-1-.92-1.55-1.39a.21.21,0,0,0-.29,0,.21.21,0,0,0,0,.3c.54.46,1.05.93,1.54,1.38A.24.24,0,0,0,506.75,149.3Z"/><path class="cls-5" d="M489.43,152.15l-1.8-1a.21.21,0,0,0-.28.08.2.2,0,0,0,.07.28l1.81,1a.17.17,0,0,0,.1,0,.21.21,0,0,0,.1-.39Z"/><path class="cls-5" d="M500.64,157.48c-.62-.23-1.27-.49-1.92-.76a.21.21,0,0,0-.27.11.2.2,0,0,0,.11.27c.65.28,1.31.53,1.94.77h.07a.21.21,0,0,0,.07-.4Z"/><path class="cls-5" d="M493.08,154.11l-1.84-1a.21.21,0,0,0-.28.08.23.23,0,0,0,.09.29l1.84,1a.16.16,0,0,0,.1,0,.21.21,0,0,0,.09-.39Z"/><path class="cls-5" d="M496.82,155.9l-1.88-.87a.2.2,0,0,0-.28.1.2.2,0,0,0,.1.27c.64.31,1.27.6,1.89.88l.08,0a.21.21,0,0,0,.09-.4Z"/><path class="cls-5" d="M497,130.16a.22.22,0,0,1,.17-.26.21.21,0,0,1,.24.16c.12.69.24,1.39.34,2.12a.26.26,0,0,1,0,.15.23.23,0,0,1-.15.1.19.19,0,0,1-.24-.17C497.23,131.54,497.12,130.84,497,130.16Z"/><path class="cls-5" d="M496.08,126a.23.23,0,0,1,.15-.27.22.22,0,0,1,.26.14c.17.66.34,1.36.5,2.08a.27.27,0,0,1,0,.16.26.26,0,0,1-.14.11.2.2,0,0,1-.25-.16C496.43,127.36,496.26,126.67,496.08,126Z"/><path class="cls-5" d="M498,138.64a.22.22,0,0,1,.2-.24.2.2,0,0,1,.22.19c.05.7.09,1.42.13,2.15a.24.24,0,0,1,0,.12.2.2,0,0,1-.17.11.2.2,0,0,1-.22-.19C498.11,140.05,498.07,139.34,498,138.64Z"/><path class="cls-5" d="M497.62,134.38a.23.23,0,0,1,.18-.25.21.21,0,0,1,.24.18c.08.7.16,1.41.22,2.14a.16.16,0,0,1,0,.13.21.21,0,0,1-.39-.07C497.78,135.78,497.7,135.07,497.62,134.38Z"/><path class="cls-5" d="M488.25,123.14c-.24.62-.47,1.31-.68,2l0,0a.2.2,0,0,1-.38-.15c.22-.75.46-1.45.7-2.08a.22.22,0,0,1,.28-.14A.21.21,0,0,1,488.25,123.14Z"/><path class="cls-5" d="M487.15,127.23c-.09.66-.16,1.38-.21,2.14a.13.13,0,0,1,0,.06.21.21,0,0,1-.41-.07c.05-.78.12-1.51.22-2.19A.21.21,0,0,1,487,127,.2.2,0,0,1,487.15,127.23Z"/><path class="cls-5" d="M486.71,131.54c-.06.66-.09,1.39-.09,2.16v.05a.22.22,0,0,1-.2.17.21.21,0,0,1-.21-.21c0-.78,0-1.52.08-2.2a.21.21,0,1,1,.42,0Z"/><path class="cls-5" d="M489.44,171.48a.22.22,0,0,1,0,.22.27.27,0,0,1-.07.08.21.21,0,0,1-.29-.06,13.92,13.92,0,0,1-1-1.9.24.24,0,0,1,.11-.29.2.2,0,0,1,.28.1A13.21,13.21,0,0,0,489.44,171.48Z"/><path class="cls-5" d="M492.56,119.23a1.7,1.7,0,0,0-.39-.18.2.2,0,0,1-.13-.27.23.23,0,0,1,.27-.14,2.11,2.11,0,0,1,.46.21A4.35,4.35,0,0,1,494,120a.23.23,0,0,1,0,.24.18.18,0,0,1-.05.07.21.21,0,0,1-.3,0A3.77,3.77,0,0,0,492.56,119.23Z"/><path class="cls-5" d="M488.79,121l.06-.12a6.37,6.37,0,0,1,1.3-1.67.22.22,0,0,1,.3,0,.21.21,0,0,1,0,.24l0,.06a5.87,5.87,0,0,0-1.2,1.55l-.06.11h0a.22.22,0,0,1-.29.09A.21.21,0,0,1,488.79,121Z"/><path class="cls-5" d="M494.69,122.05a.23.23,0,0,1,.1-.29.21.21,0,0,1,.28.09c.27.59.54,1.26.79,2a.22.22,0,0,1,0,.18.22.22,0,0,1-.11.1.21.21,0,0,1-.27-.12A18.45,18.45,0,0,0,494.69,122.05Z"/><path class="cls-5" d="M496.06,166.45q.27-1,.51-2.1a.22.22,0,0,1,.25-.17.2.2,0,0,1,.16.25c-.16.74-.34,1.46-.52,2.12,0,0,0,0,0,0a.22.22,0,0,1-.24.11A.2.2,0,0,1,496.06,166.45Z"/><path class="cls-5" d="M498.28,145.07c0-.72,0-1.44,0-2.15a.23.23,0,0,1,.21-.23.21.21,0,0,1,.22.2c0,.71,0,1.43,0,2.16a.2.2,0,0,1,0,.11.2.2,0,0,1-.18.11A.19.19,0,0,1,498.28,145.07Z"/><path class="cls-5" d="M494.59,170.5a19.4,19.4,0,0,0,.82-2,.22.22,0,0,1,.27-.14.21.21,0,0,1,.13.27,20.4,20.4,0,0,1-.84,2h0a.21.21,0,0,1-.28.09A.21.21,0,0,1,494.59,170.5Z"/><path class="cls-5" d="M490.53,173.32a.23.23,0,0,1-.06-.3.22.22,0,0,1,.3-.07l.12.08a1.68,1.68,0,0,0,.93.24,2.37,2.37,0,0,0,1.64-1,.2.2,0,0,1,.3,0,.21.21,0,0,1,0,.27l0,0a2.79,2.79,0,0,1-1.95,1.14,2,2,0,0,1-1.15-.3Z"/><path class="cls-5" d="M486.8,165.75a.23.23,0,0,1,.15-.27.19.19,0,0,1,.25.15c.19.71.38,1.4.58,2a.23.23,0,0,1,0,.18.22.22,0,0,1-.11.1.21.21,0,0,1-.27-.13C487.18,167.17,487,166.48,486.8,165.75Z"/><path class="cls-5" d="M485.74,161.26a.22.22,0,0,1,.17-.25.2.2,0,0,1,.24.16c.13.73.27,1.43.42,2.07a.22.22,0,0,1,0,.18.25.25,0,0,1-.13.09.21.21,0,0,1-.25-.15C486,162.71,485.86,162,485.74,161.26Z"/><path class="cls-5" d="M484.68,156.57a.22.22,0,0,1,.17-.26.2.2,0,0,1,.24.17c.13.72.27,1.42.42,2.07a.25.25,0,0,1,0,.17.2.2,0,0,1-.13.09.19.19,0,0,1-.25-.14C485,158,484.8,157.31,484.68,156.57Z"/><path class="cls-5" d="M498.24,149.37c0-.71,0-1.43,0-2.15a.22.22,0,0,1,.21-.22.2.2,0,0,1,.21.2c0,.73,0,1.45,0,2.16a.2.2,0,0,1,0,.11.21.21,0,0,1-.19.11A.2.2,0,0,1,498.24,149.37Z"/><path class="cls-5" d="M497,162.23c.12-.68.24-1.4.34-2.13a.23.23,0,0,1,.24-.19.2.2,0,0,1,.18.24c-.11.73-.23,1.45-.35,2.14,0,0,0,.06,0,.08a.23.23,0,0,1-.22.11A.2.2,0,0,1,497,162.23Z"/><path class="cls-5" d="M498,153.67c.05-.71.09-1.42.13-2.15a.21.21,0,0,1,.22-.21.2.2,0,0,1,.2.21c0,.73-.08,1.45-.13,2.16a.17.17,0,0,1,0,.1.23.23,0,0,1-.2.11A.2.2,0,0,1,498,153.67Z"/><path class="cls-5" d="M497.63,158c.08-.7.16-1.41.22-2.14a.24.24,0,0,1,.23-.21.21.21,0,0,1,.19.23c-.07.73-.14,1.45-.23,2.16a.19.19,0,0,1,0,.08.21.21,0,0,1-.21.11A.19.19,0,0,1,497.63,158Z"/><path class="cls-5" d="M479.94,158.77c-.7.22-1.39.42-2,.58a.22.22,0,0,0-.15.26.23.23,0,0,0,.2.16H478c.66-.17,1.35-.37,2.06-.59a.23.23,0,0,0,.14-.27A.21.21,0,0,0,479.94,158.77Z"/><path class="cls-5" d="M475.83,159.82a17.81,17.81,0,0,1-2.09.3.21.21,0,0,0-.19.23.22.22,0,0,0,.2.19h0c.65-.06,1.37-.16,2.14-.31a.2.2,0,0,0,.16-.24A.22.22,0,0,0,475.83,159.82Z"/><path class="cls-5" d="M487.85,155.69l-1.94.86a.2.2,0,0,0-.11.27.21.21,0,0,0,.18.13l.1,0c.64-.27,1.29-.56,1.95-.86a.2.2,0,0,0,.1-.28A.21.21,0,0,0,487.85,155.69Z"/><path class="cls-5" d="M483.94,157.35c-.68.27-1.34.51-2,.74a.2.2,0,0,0-.12.27.2.2,0,0,0,.19.14h.08c.65-.23,1.32-.48,2-.75a.21.21,0,0,0,.12-.27A.22.22,0,0,0,483.94,157.35Z"/><path class="cls-5" d="M506.68,132.3h.07c.72-.2,1.41-.37,2.06-.51a.21.21,0,0,0,.16-.25.22.22,0,0,0-.25-.16c-.66.14-1.36.31-2.09.51a.22.22,0,0,0-.15.26A.24.24,0,0,0,506.68,132.3Z"/><path class="cls-5" d="M502.44,133.58h.06c.71-.23,1.39-.44,2-.61a.21.21,0,0,0,.15-.25.22.22,0,0,0-.27-.15c-.65.17-1.34.38-2.05.61a.21.21,0,0,0-.14.27A.23.23,0,0,0,502.44,133.58Z"/><path class="cls-5" d="M491.67,153.84l-1.9.95a.2.2,0,0,0-.1.28.21.21,0,0,0,.19.11.12.12,0,0,0,.1,0c.63-.3,1.27-.62,1.91-.95a.21.21,0,0,0,.09-.28A.23.23,0,0,0,491.67,153.84Z"/><path class="cls-5" d="M475.46,149.32a.21.21,0,0,0-.3,0c-.55.48-1.08,1-1.56,1.44a.2.2,0,0,0,0,.29.26.26,0,0,0,.15.07.27.27,0,0,0,.16-.06c.48-.47,1-.95,1.55-1.43A.21.21,0,0,0,475.46,149.32Z"/><path class="cls-5" d="M478.67,146.46a.22.22,0,0,0-.3,0c-.55.48-1.08,1-1.57,1.43a.22.22,0,0,0,0,.3.2.2,0,0,0,.15.06.16.16,0,0,0,.15-.06c.49-.46,1-.94,1.55-1.42A.21.21,0,0,0,478.67,146.46Z"/><path class="cls-5" d="M469.83,155.56a.22.22,0,0,0-.29.09,5.9,5.9,0,0,0-.74,2,.21.21,0,0,0,.18.24h0a.21.21,0,0,0,.22-.18,5.63,5.63,0,0,1,.7-1.88A.21.21,0,0,0,469.83,155.56Z"/><path class="cls-5" d="M471.65,160.11a3.46,3.46,0,0,1-1.86-.67.21.21,0,0,0-.28.32,4,4,0,0,0,2.09.77h0a.21.21,0,0,0,.22-.18A.22.22,0,0,0,471.65,160.11Z"/><path class="cls-5" d="M472.11,152.25c-.52.56-1,1.11-1.38,1.62a.22.22,0,0,0,0,.3.28.28,0,0,0,.12,0,.23.23,0,0,0,.18-.08c.39-.51.85-1,1.35-1.6a.2.2,0,0,0,0-.29A.22.22,0,0,0,472.11,152.25Z"/><path class="cls-5" d="M502.61,147.38c-.57.39-1.16.78-1.76,1.17a.2.2,0,0,0-.06.29.18.18,0,0,0,.16.09.28.28,0,0,0,.13,0c.61-.39,1.2-.79,1.77-1.18a.21.21,0,0,0,.06-.29A.22.22,0,0,0,502.61,147.38Z"/><path class="cls-5" d="M513,130.9a14.06,14.06,0,0,0-2.17.11.21.21,0,0,0-.19.23.22.22,0,0,0,.21.19h0a13.2,13.2,0,0,1,2.1-.11.2.2,0,0,0,.22-.2A.22.22,0,0,0,513,130.9Z"/><path class="cls-5" d="M512.4,139.39c-.46.49-1,1-1.49,1.48a.2.2,0,0,0,0,.29.21.21,0,0,0,.15.07.22.22,0,0,0,.15-.06c.54-.5,1.05-1,1.52-1.49a.21.21,0,0,0,0-.29A.23.23,0,0,0,512.4,139.39Z"/><path class="cls-5" d="M515.32,136.09a.22.22,0,0,0-.3.07,16.61,16.61,0,0,1-1.22,1.67.21.21,0,0,0,0,.3.19.19,0,0,0,.12,0,.2.2,0,0,0,.18-.07,17.69,17.69,0,0,0,1.26-1.72A.21.21,0,0,0,515.32,136.09Z"/><path class="cls-5" d="M516.18,132.25a2.33,2.33,0,0,0-1-.89.22.22,0,0,0-.29.09.2.2,0,0,0,.1.28,1.93,1.93,0,0,1,.83.73,1.78,1.78,0,0,1,.24,1,3.17,3.17,0,0,1-.15.81.22.22,0,0,0,.15.26h.05a.21.21,0,0,0,.21-.15,3.53,3.53,0,0,0,.17-.91A2.23,2.23,0,0,0,516.18,132.25Z"/><path class="cls-5" d="M499.06,149.68l-1.82,1.1a.2.2,0,0,0-.07.28.19.19,0,0,0,.17.1.13.13,0,0,0,.12,0c.62-.36,1.23-.73,1.82-1.1a.2.2,0,0,0,.07-.28A.21.21,0,0,0,499.06,149.68Z"/><path class="cls-5" d="M509.34,142.27c-.51.45-1.06.9-1.62,1.35a.2.2,0,0,0,0,.3.23.23,0,0,0,.3,0l1.63-1.36a.21.21,0,0,0,0-.3A.23.23,0,0,0,509.34,142.27Z"/><path class="cls-5" d="M495.41,151.84l-1.86,1a.2.2,0,0,0-.09.28.21.21,0,0,0,.18.11.2.2,0,0,0,.11,0l1.87-1a.21.21,0,0,0,.08-.29A.21.21,0,0,0,495.41,151.84Z"/><path class="cls-5" d="M506.05,144.92c-.55.41-1.12.83-1.71,1.25a.21.21,0,0,0,0,.29.19.19,0,0,0,.16.09.23.23,0,0,0,.14,0q.88-.63,1.71-1.26a.21.21,0,0,0,0-.29A.22.22,0,0,0,506.05,144.92Z"/><circle class="cls-5" cx="470.48" cy="160.18" r="1.88"/><path class="cls-5" d="M510.83,151.42a1.88,1.88,0,1,1-1.88-1.88A1.88,1.88,0,0,1,510.83,151.42Z"/><path class="cls-5" d="M499.76,135.31a1.88,1.88,0,1,1-1.88-1.88A1.88,1.88,0,0,1,499.76,135.31Z"/><path class="cls-4" d="M768,314.33c-1.66-1.87-6.57-4.42-5.28-7.34,1.1-2.49,6.36-2.18,5.73-5.18-.38-1.77-.86-3.29.28-5.3,1.25-2.2,5-1,6.26-3,1.11-1.75-.33-4.46,2-5.63,2-1,4.5,1,4.87,2.79.45,2.25-1.77,3.3-2.06,5.26-.18,1.25,1,1.68,1.6,2.55a6,6,0,0,1,1.23,3.08c.12,3.1-3.29,3.51-4.9,5.48s1.26,3,.85,5-3.51,3.32-5.66,3.28C771.4,315.27,769,315.49,768,314.33Z"/><path class="cls-5" d="M770.18,315.36l0,0a.11.11,0,0,1,0-.17,21.85,21.85,0,0,0,3.24-10.36,15.06,15.06,0,0,1,3-8.3,8.24,8.24,0,0,0,1.58-3.34.18.18,0,0,1,.18-.15.15.15,0,0,1,.15.17,8.63,8.63,0,0,1-1.64,3.47,14.82,14.82,0,0,0-3,8.14,22.09,22.09,0,0,1-3.3,10.49A.16.16,0,0,1,770.18,315.36Z"/><path class="cls-5" d="M773.59,304.82a.13.13,0,0,1-.11-.15.17.17,0,0,1,.17-.13,3.78,3.78,0,0,0,3.53-1.93c.06-.15.13-.32.19-.49.32-.85.71-1.9,1.54-2.28a1.8,1.8,0,0,1,1.39,0,.13.13,0,0,1,.08.18.18.18,0,0,1-.21.09,1.49,1.49,0,0,0-1.14,0c-.7.32-1.07,1.31-1.36,2.1l-.2.5a4.09,4.09,0,0,1-3.85,2.12Z"/><path class="cls-5" d="M772.68,304.68a2.28,2.28,0,0,1-1.35-.79,2.89,2.89,0,0,1-.21-2.68q0-.18.12-.39c.27-.82.68-2.07.28-2.76a1,1,0,0,0-.66-.46.15.15,0,0,1-.11-.18.18.18,0,0,1,.2-.11h0a1.32,1.32,0,0,1,.85.6c.46.8,0,2.12-.26,3,0,.14-.09.27-.12.38a2.68,2.68,0,0,0,.16,2.44,2.39,2.39,0,0,0,1.88.77.14.14,0,0,1,.14.15.16.16,0,0,1-.17.13A4.28,4.28,0,0,1,772.68,304.68Z"/><path class="cls-5" d="M772,313.54a1.43,1.43,0,0,1-.5-.18.11.11,0,0,1,0-.17.17.17,0,0,1,.21,0c.77.47,2.34-.14,3-.61a4,4,0,0,0,.8-.9c.47-.65,1-1.32,1.75-1.34a.12.12,0,0,1,.14.12.15.15,0,0,1-.15.14c-.62,0-1.07.63-1.49,1.21a4.37,4.37,0,0,1-.87,1A4.47,4.47,0,0,1,772,313.54Z"/><path class="cls-5" d="M770.68,313.26a1.54,1.54,0,0,1-.53-.19,4,4,0,0,1-1.7-2.61,4.24,4.24,0,0,1,.18-1.54c.21-.93.43-1.9-.18-2.34a.14.14,0,0,1,0-.2.18.18,0,0,1,.22,0c.75.55.5,1.65.28,2.61a4,4,0,0,0-.18,1.44,3.87,3.87,0,0,0,1.56,2.44,1.43,1.43,0,0,0,1.09.13.16.16,0,0,1,.18.09.13.13,0,0,1-.11.16A1.76,1.76,0,0,1,770.68,313.26Z"/><path class="cls-18" d="M718.58,314.26c-2.48,1.68-4.48,2.92-7.16.41a4.91,4.91,0,0,1-1.56-4.66c.21-1.59.42-2.31-.55-3.63-1.52-2.06-3.89-2.87-4.77-5.49-1-2.87,1.89-4.8,1.12-7.53-.69-2.41-2.16-4.66-.42-7,1.48-2,4.22-1.11,5.09,1,.49,1.18.46,2.55,1.13,3.66s1.67,1.31,2.76,1.67c2.45.8,4.59,2.23,4.31,5.34-.17,1.87-.21,3.38,1.61,4.2s3,1.43,2.9,4.18c-.1,2.06-1.11,3.15-2.2,4.66s-2,3.58-3.71,4.22Z"/><path class="cls-5" d="M718.9,313.27a3.08,3.08,0,0,1-1.19-.37c-1.48-.85-1.88-3-2.25-5a12,12,0,0,0-.63-2.51,10.29,10.29,0,0,0-3.45-4.12c-2-1.56-2.43-2.72-2.56-5.27-.12-2.14-.34-4.33-1.21-5.61a.26.26,0,0,1,.08-.33.2.2,0,0,1,.31,0c.93,1.37,1.16,3.64,1.27,5.84.12,2.47.49,3.53,2.42,5a10.69,10.69,0,0,1,3.57,4.28,11.9,11.9,0,0,1,.66,2.61c.35,1.87.74,4,2.07,4.73a2.82,2.82,0,0,0,1.93.25.24.24,0,0,1,.28.15.22.22,0,0,1-.2.24A4.62,4.62,0,0,1,718.9,313.27Z"/><path class="cls-5" d="M713.29,302.87a.24.24,0,0,1-.14-.05.2.2,0,0,1,0-.3c.79-.79.55-2.1.29-3.5a6.12,6.12,0,0,1,0-3.6.29.29,0,0,1,.32-.16.2.2,0,0,1,.12.29,5.84,5.84,0,0,0,0,3.34c.26,1.45.54,2.94-.43,3.9A.27.27,0,0,1,713.29,302.87Z"/><path class="cls-5" d="M715.21,305.78l-.08,0a4.22,4.22,0,0,1-.77-.43,2.53,2.53,0,0,0-1.23-.48,6,6,0,0,0-.84,0,3.29,3.29,0,0,1-1.77-.31,8.43,8.43,0,0,1-2.7-2.52c-.12-.17-.27-.43-.43-.71s-.66-1.14-.84-1.19a.19.19,0,0,1-.15-.24.25.25,0,0,1,.26-.17c.33.06.64.56,1.11,1.38a7.12,7.12,0,0,0,.41.67,8.51,8.51,0,0,0,2.58,2.43,2.8,2.8,0,0,0,1.55.25,5.5,5.5,0,0,1,.9,0,3,3,0,0,1,1.44.55,5.14,5.14,0,0,0,.71.39.19.19,0,0,1,.09.27A.29.29,0,0,1,715.21,305.78Z"/><path class="cls-13" d="M732.22,273.1c.26.4.52,1.17,1,1.43a4.08,4.08,0,0,0,2,.28c-.37-.8-.46-2.62.33-3.33-.52-.32-.55.72-.94.29-.15-.16-1.25-1.87-1.36-2.06-.31.36-.18,1.61-.48,2.62a1.17,1.17,0,0,1-.54.75Z"/><path class="cls-12" d="M734.81,267.16s2.8.32,2.94,1.09-.34,1.71-.35,2.21.41,1.21.41,1.41-.63.33-.75.43-1,1.41-1.53,1.54-2.64-1.7-2.76-3c0-.26-.37-.76-.3-1.06A3.84,3.84,0,0,1,734.81,267.16Z"/><path class="cls-7" d="M734.24,266.24c-1.16-.19-.45.45-1.74,1A1.2,1.2,0,0,0,732,269c.12.18.06.36-.11.66-.1.64,1,2.06,1.34,1.63.08-.11-.23-.77-.21-1.05-.07-.47.35-.94.75-.52a.74.74,0,0,1,.25.51c0,.55.16.7.4.52s-.05-1.38.23-1.62a2.66,2.66,0,0,0,.8-1.18C736,267.42,735.4,266.42,734.24,266.24Z"/><rect class="cls-11" x="717.36" y="286.6" width="51.68" height="33.04"/><rect class="cls-7" x="720.32" y="292.75" width="2.47" height="20.73"/><rect class="cls-7" x="723.71" y="292.75" width="1.21" height="20.73"/><rect class="cls-7" x="727.23" y="292.75" width="2.5" height="20.73"/><rect class="cls-7" x="731.11" y="292.75" width="0.94" height="20.73"/><rect class="cls-7" x="735.16" y="292.75" width="0.8" height="20.73"/><rect class="cls-7" x="725.67" y="292.75" width="0.8" height="20.73"/><rect class="cls-7" x="733.09" y="292.75" width="1.21" height="20.73"/><rect class="cls-7" x="737.48" y="292.75" width="1.92" height="20.73"/><rect class="cls-7" x="740.29" y="292.75" width="1.21" height="20.73"/><rect class="cls-7" x="742.59" y="292.75" width="0.6" height="20.73"/><rect class="cls-7" x="747.4" y="292.75" width="0.42" height="20.73"/><rect class="cls-7" x="744.28" y="292.75" width="1.02" height="20.73"/><rect class="cls-7" x="750.22" y="292.75" width="0.51" height="20.73"/><rect class="cls-7" x="756.19" y="292.75" width="0.71" height="20.73"/><rect class="cls-7" x="763.04" y="292.75" width="0.71" height="20.73"/><rect class="cls-7" x="751.2" y="292.75" width="0.39" height="20.73"/><rect class="cls-7" x="755.25" y="292.75" width="0.31" height="20.73"/><rect class="cls-7" x="761.92" y="292.75" width="0.46" height="20.73"/><rect class="cls-7" x="745.72" y="292.75" width="1.02" height="20.73"/><rect class="cls-7" x="748.59" y="292.75" width="1.11" height="20.73"/><rect class="cls-7" x="754.14" y="292.75" width="0.87" height="20.73"/><rect class="cls-7" x="752.27" y="292.75" width="1.36" height="20.73"/><rect class="cls-7" x="757.47" y="292.75" width="1.9" height="20.73"/><rect class="cls-7" x="760.26" y="292.75" width="1.13" height="20.73"/><rect class="cls-7" x="764.69" y="292.75" width="1.5" height="20.73"/><path class="cls-4" d="M737.71,276.27s.21.18.42,1.06c.69,3,1.37,7.07,1.68,7.93.37,1.05,3,6.42,3,6.42l-2.11,1.49s-3.08-5.91-3.48-6.91l-2.35-6.05Z"/><path class="cls-14" d="M738.6,286.3a26.27,26.27,0,0,1-2.2-7.23l-1.57,1.14,2.35,6.05c.4,1,3.48,6.91,3.48,6.91l.53-.37A45.14,45.14,0,0,0,738.6,286.3Z"/><path class="cls-4" d="M727.8,279.48c-.72,1.71-1.9,6.37-2.32,7.13h10.18c.57-2.12,1.26-4.72,1.51-5.91a21.78,21.78,0,0,0,.53-4.45s-1.51-1.32-2.69-2.12c0,0-1.27,1.21-2.74-1.11,0,0-3.36.91-4.09,1.17C727.89,274.3,728.6,277.59,727.8,279.48Z"/><path class="cls-14" d="M729.19,276.83c-.51.91-1.14,1.92-1.57,2.74-.7,1.76-1.63,6.3-2,7H730c0-.35-.17-.92-.17-1.31a7.68,7.68,0,0,1,.51-3.18c.4-.93-.11-4-.29-4.24S729.46,277.18,729.19,276.83Z"/><path class="cls-9" d="M766.2,285.55c-6.91,3.3-5.27,2.76-6.4,3.05s-7.73.72-7.73.72l-.73,2.84s8.06-.44,9.15-.7,5.72-2,5.72-2Z"/><path class="cls-10" d="M755.07,289.5a1.18,1.18,0,0,0,1.09.59,28.91,28.91,0,0,0,3.26-.23,8.5,8.5,0,0,0,1.85-.35,22,22,0,0,0,3.18-1.18c.54-.25,1.18-.36,1.76-.56v1.69s-4.62,1.75-5.72,2-9.15.7-9.15.7l.72-2.81C753.05,289.44,754.06,289.49,755.07,289.5Z"/><path class="cls-7" d="M767.14,319a5.56,5.56,0,0,1,.3,1.51c0,.66,0,1.36-.25,1.53-.4.33-5.53.38-6-.1s-.14-1.24,1-1.5a20.58,20.58,0,0,0,2.06-.44,1,1,0,0,0,.56-1.11Z"/><path class="cls-7" d="M778.39,318a6,6,0,0,1,.82,1.31c.23.62.44,1.29.31,1.52-.26.46-5,2.32-5.59,2s-.58-1.11.34-1.74A18,18,0,0,0,776,320a1,1,0,0,0,.13-1.23Z"/><path class="cls-7" d="M767.18,297.2l6.91.77s-6.18,9.87-6.65,11.46.17,10.2.17,10.2h-3.12s-.68-10.18-.52-10.95S767.18,297.2,767.18,297.2Z"/><path class="cls-7" d="M767.44,297.71h7.89a8.83,8.83,0,0,1,.49,4.26,40.43,40.43,0,0,0-.66,6.45c0,.69,3.89,9.9,3.89,9.9l-2.87,1.06s-4-8.78-4.35-9.77S767.44,297.71,767.44,297.71Z"/><path class="cls-12" d="M767.77,281.4a7.52,7.52,0,0,0,1.91-.15,3.15,3.15,0,0,0,.65-.23c.06.79.29,2.64.94,3.34,0,0-.09.93-1.73,1.16a1.62,1.62,0,0,1-2-1A16.53,16.53,0,0,0,767.77,281.4Z"/><path class="cls-13" d="M771.27,284.39s0,0,0,.06h0a1,1,0,0,0,0,.1h0a.67.67,0,0,1-.06.12l0,0a1.16,1.16,0,0,1-.26.3l0,0-.21.14,0,0a2.51,2.51,0,0,1-.28.13,2.29,2.29,0,0,0-.62-1.1,2.94,2.94,0,0,0-2-.85,11,11,0,0,0,0-2,7.52,7.52,0,0,0,1.91-.15,3.15,3.15,0,0,0,.65-.23c.06.79.29,2.64.94,3.34v0Z"/><path class="cls-12" d="M770.43,276.68s-2.74-.67-3.14,0a8.14,8.14,0,0,0-.43,2.21c-.16.47-.81,1-.87,1.18s.47.53.55.67.42,1.66.91,2,3-.7,3.53-1.92S771.18,277,770.43,276.68Z"/><path class="cls-9" d="M767.57,284.26a3.64,3.64,0,0,0,3.49-.19s3,.52,3.34.66-.49,4.36-.15,6.49,1.73,7.3,1.73,7.3-3.65,2.8-9.9,1c0,0-.21-7.24-.14-9.25.1-2.94.12-4.68.12-4.68A17.6,17.6,0,0,1,767.57,284.26Z"/><path class="cls-10" d="M772.12,296a8,8,0,0,0,.27-3.37c-.21-1.25.69-2.9.85-4.18s.32-2.29,1.22-3a33.17,33.17,0,0,0-.21,5.84c.35,2.13,1.73,7.3,1.73,7.3a10.49,10.49,0,0,1-6.41,1.6C771.18,299.14,771.67,297.83,772.12,296Z"/><path class="cls-7" d="M769.25,277.07a2.68,2.68,0,0,0,.35,1.38c.18.32-.59,1.22-.35,1.6s.38.18.56-.35a.74.74,0,0,1,.42-.39c.65-.32.85.69.27,1-.41.23-.11,1.27-.11,1.27.46.33,1.91-.16,1.7-1.23-.13-.68-.19-.94,0-1.11a1.2,1.2,0,0,0,.2-1.87c-1-.94-.14-1.29-1.3-1.52S769,276.37,769.25,277.07Z"/><path class="cls-7" d="M771.25,276.4c-.08-.24-.54-.55-.77-.7a3.38,3.38,0,0,0-1.2-.47,3,3,0,0,0-1.3,0c-.37.09-.67.27-1.05.33a1.28,1.28,0,0,1-.95-.14,2.48,2.48,0,0,0,0,.86,2.62,2.62,0,0,0,.53.92,2.81,2.81,0,0,0,3.13.69,2.2,2.2,0,0,0,1.18-.88A2.38,2.38,0,0,1,771.25,276.4Z"/><path class="cls-5" d="M727.65,302.26A3,3,0,0,1,727,302l-.28-.13a3,3,0,0,1-1.06-.69,2.14,2.14,0,0,1-.41-2.29,3.24,3.24,0,0,1,1.79-2,3.35,3.35,0,0,1,1.17-.29l.12,0a2.79,2.79,0,0,0,1.39-.79l.07-.05.5-.46c.11-.11.22-.22.35-.33,1.61-1.45,3.92-1.18,5.57-.7l-.09.32c-1.57-.46-3.76-.72-5.26.63l-.34.32c-.16.16-.33.32-.51.47l-.07.06a3.2,3.2,0,0,1-1.57.87h-.12a3.23,3.23,0,0,0-1.07.26,2.92,2.92,0,0,0-1.61,1.79,1.77,1.77,0,0,0,.34,2,2.55,2.55,0,0,0,1,.61l.29.13a3.71,3.71,0,0,0,1.94.26,7,7,0,0,1,1.21,0,3.36,3.36,0,0,0,2.56-.79l.06,0a9.16,9.16,0,0,1,3.31-1.89l.2-.06a3.23,3.23,0,0,0,2.24-1.36,2.92,2.92,0,0,0,.4-2.62,1.44,1.44,0,0,0-1.25-.78l0-.34a1.78,1.78,0,0,1,1.52,1,3.3,3.3,0,0,1-.42,2.95,3.54,3.54,0,0,1-2.43,1.5l-.2.06a9,9,0,0,0-3.2,1.84l-.06,0a3.65,3.65,0,0,1-2.8.86,6.33,6.33,0,0,0-1.15,0A5.74,5.74,0,0,1,727.65,302.26Z"/><path class="cls-4" d="M767.72,292.86,743,287.73a3.63,3.63,0,0,0-2.16.22l-4.45,1.94a3.6,3.6,0,0,0-2.08,2.56L734,294a3.56,3.56,0,0,0,.88,3.16l3.32,3.55a3.62,3.62,0,0,0,1.89,1.06l24.71,5.13A3.57,3.57,0,0,0,769,304.1l1.46-7A3.58,3.58,0,0,0,767.72,292.86ZM741,296.39a2.21,2.21,0,0,1-2.4-3.65,1.37,1.37,0,0,1,.45-.3,2.21,2.21,0,0,1,2.4,3.66A1.2,1.2,0,0,1,741,296.39Z"/><path class="cls-5" d="M744.74,298.45l1.83-5.71,1.47.3a4.5,4.5,0,0,1,.57.16,2,2,0,0,1,.45.24,1.07,1.07,0,0,1,.3.34,1.14,1.14,0,0,1,.1.48,2.16,2.16,0,0,1,0,.35c0,.09,0,.18-.08.28a1.2,1.2,0,0,1-1.23,1,1.06,1.06,0,0,1,.66,1.36,2.5,2.5,0,0,1-.07.26,1.75,1.75,0,0,1-2.23,1.32Zm1.43-.56.33.07a.87.87,0,0,0,.7-.08,1.21,1.21,0,0,0,.39-.64,1.12,1.12,0,0,0,.06-.23.84.84,0,0,0,0-.53.74.74,0,0,0-.58-.35l-.3-.06Zm.83-2.6.29.06a.87.87,0,0,0,.68-.07,1.07,1.07,0,0,0,.36-.59c0-.05,0-.09,0-.14a.53.53,0,0,0-.08-.46,1.09,1.09,0,0,0-.63-.29l-.17,0Z"/><path class="cls-5" d="M748.86,299.31l1.83-5.72,1.45.3a3.84,3.84,0,0,1,.64.18,1.84,1.84,0,0,1,.48.26,1.06,1.06,0,0,1,.31.36,1.17,1.17,0,0,1,.1.48,1.53,1.53,0,0,1,0,.36,2.68,2.68,0,0,1-.07.27,2.35,2.35,0,0,1-.46.85,1.31,1.31,0,0,1-.74.4l0,3-1.16-.24.11-2.74-.43-.09-.82,2.59Zm2.22-3,.29.06a.93.93,0,0,0,.68-.07,1.15,1.15,0,0,0,.39-.61,1.46,1.46,0,0,0,0-.2.74.74,0,0,0,0-.45.68.68,0,0,0-.52-.32l-.35-.07Z"/><path class="cls-5" d="M752.67,300.1l3-5.48,1.27.26-.68,6-1.08-.23.19-1.32-1-.19-.62,1.23Zm2.08-1.7.71.15.37-2.36Z"/><path class="cls-5" d="M756.82,301l1.82-5.72.82.17.36,3.29,1-3,1,.2-1.82,5.72-.78-.16-.31-3.48-1,3.2Z"/><path class="cls-5" d="M760.8,301.78l1.82-5.72,1.41.3a3,3,0,0,1,.88.29,1.14,1.14,0,0,1,.49.45,1.12,1.12,0,0,1,.13.61,2.08,2.08,0,0,1,0,.4c0,.13-.07.28-.12.43l-.66,2.07a3,3,0,0,1-.5,1,1.44,1.44,0,0,1-.78.48,2.65,2.65,0,0,1-1.18,0Zm1.42-.55.25,0,.26,0,.2,0a.35.35,0,0,0,.16-.08l.12-.12a.55.55,0,0,0,.1-.17,1.71,1.71,0,0,0,.09-.22l.09-.26.72-2.26a3.4,3.4,0,0,0,.09-.33q0-.11,0-.18a.36.36,0,0,0-.11-.32,1,1,0,0,0-.44-.19l-.25-.05Z"/><path class="cls-5" d="M739.51,295.68a1.3,1.3,0,0,1-.32.14,3.28,3.28,0,0,1-.55,2,3.23,3.23,0,0,1-1.12,1,5.34,5.34,0,0,1-.8.31l.21.28a5.74,5.74,0,0,0,.73-.29,3.72,3.72,0,0,0,1.26-1.08A3.66,3.66,0,0,0,739.51,295.68Z"/><path class="cls-12" d="M750.07,289a1.53,1.53,0,0,1,1.75-.27c.41.17.44.62.5,1.28a1.86,1.86,0,0,1-.06,1c-.53.39-.55-1.1-.64-1.48,0,0,.21,1.58-.07,1.71-.52.24-.5-1.22-.56-1.58a2.38,2.38,0,0,1,0,1.08c0,.28-.22.22-.27.19-.27-.16-.27-1.35-.27-1.35,0,.21.17,1-.17.83s-.24-.44-.28-.62A1.12,1.12,0,0,1,750.07,289Z"/><path class="cls-12" d="M772.77,295.91c-.54,0-1.2.08-1.75.08-.26,0-.52,0-.77-.05s-.49-.07-.58.11.22.27.34.29.56,0,.6.26-.62.45-.88.57-.87.33-.46.56.88-.2,1.12-.3a3.71,3.71,0,0,0-.87.36c-.17.1-.49.23-.49.41s.6.11.74,0a2.68,2.68,0,0,0,.66-.36c-.25.13-1.16.52-.86.83s.9-.35,1.18-.46c-.15.14-.62.22-.59.52s.29,0,.42,0,.34-.24.52-.33a3.29,3.29,0,0,0,.39-.26,4.69,4.69,0,0,0,.89-.58,9.93,9.93,0,0,1,.78-.8C772.64,296.58,773.17,296.19,772.77,295.91Z"/><path class="cls-9" d="M772,295.77l.77,1.77s7.92-2.57,7.55-4.65c-.32-1.83-4.94-7.95-5.94-8.17-1.35-.29-1.89,2.92-1.12,3.7,1.64,1.65,4,4,3.78,4.33A50.34,50.34,0,0,1,772,295.77Z"/><path class="cls-12" d="M729.93,295.38c.07.22.5.58.31.83s-.49-.2-.57-.33a16.26,16.26,0,0,1-1-2.1c-.08-.33-.15-.65-.24-.95a5.05,5.05,0,0,0,1-.62c.44.26.89.6,1.32.85.24.13.49.24.73.36s.47.19.47.4-.34.13-.47.09-.51-.28-.67-.08.32.73.5,1,.77.91.27.91a7.53,7.53,0,0,1-.85-.78l.45.55c.1.17.4.53.28.69-.25.32-.9-.67-1-.81l.25.39c.21.3.34.55.12.61S730.13,295.64,729.93,295.38Z"/><path class="cls-4" d="M730.07,292.27l-1.83,1.13s-4-7-4.1-9c-.06-1.63.27-3.64,1.85-7.22,1-2.28,2.11-3.2,2.56-3s2.16,1,1.26,3.75c-.32,1-2.38,5.15-2.41,5.54S730.07,292.27,730.07,292.27Z"/><path class="cls-12" d="M739.79,293.14a1.55,1.55,0,0,0,1.75.27c.42-.18.44-.63.5-1.29,0-.45.06-.87-.06-1-.53-.39-.55,1.1-.64,1.48,0,0,.21-1.58-.07-1.72-.52-.23-.5,1.22-.56,1.59a2.38,2.38,0,0,0,0-1.08c0-.29-.22-.23-.27-.2-.27.16-.26,1.35-.26,1.35,0-.21.16-1-.18-.83s-.24.44-.28.62A1.21,1.21,0,0,0,739.79,293.14Z"/><path class="cls-7" d="M738.94,267s.79,1.13-1,1.89-4.47-1.24-4.47-1.24.07-1,1.53-1.42a2.58,2.58,0,0,1,2.67.36C738.58,267.68,738.94,267,738.94,267Z"/><path class="cls-5" d="M752.18,162.05h-1v-3.77h1Zm0-7.77h-1v-4h1Zm0-8h-1v-4h1Zm0-8h-1v-4h1Zm0-8h-1v-4h1Zm0-8h-1v-4h1Zm0-8h-1v-4h1Zm0-8h-1v-4h1Zm0-8h-1v-4h1Zm0-8h-1v-4h1ZM750,84.42h-4v-1h4Zm-8,0h-4v-1h4Zm-8,0h-4v-1h4Z"/><path class="cls-5" d="M730.14,85.8A1.88,1.88,0,1,1,732,83.92,1.88,1.88,0,0,1,730.14,85.8Z"/><path class="cls-5" d="M730.14,86.05A2.13,2.13,0,1,0,728,83.92a2.13,2.13,0,0,0,2.13,2.13Zm0-3.76a1.63,1.63,0,1,1-1.63,1.63,1.63,1.63,0,0,1,1.63-1.63Z"/><path class="cls-5" d="M749.8,162a1.88,1.88,0,1,0,1.88-1.88A1.88,1.88,0,0,0,749.8,162Z"/><path class="cls-5" d="M749.55,162a2.13,2.13,0,1,1,2.13,2.13,2.13,2.13,0,0,1-2.13-2.13Zm3.76,0a1.63,1.63,0,1,0-1.63,1.63,1.63,1.63,0,0,0,1.63-1.63Z"/><path class="cls-5" d="M297.13,165.06h-1v-4h1Zm0-8h-1v-4h1Zm0-8h-1v-4h1Zm0-8h-1v-4h1Zm0-8h-1v-4h1Zm0-8h-1v-4h1Z"/><path class="cls-5" d="M298.51,165a1.88,1.88,0,1,1-1.88-1.88A1.88,1.88,0,0,1,298.51,165Z"/><path class="cls-5" d="M298.76,165a2.13,2.13,0,1,0-2.13,2.13,2.13,2.13,0,0,0,2.13-2.13ZM295,165a1.63,1.63,0,1,1,1.63,1.63A1.63,1.63,0,0,1,295,165Z"/><path class="cls-5" d="M298.51,121.05a1.88,1.88,0,1,0-1.88,1.88A1.88,1.88,0,0,0,298.51,121.05Z"/><path class="cls-5" d="M298.76,121.05a2.13,2.13,0,1,1-2.13-2.13,2.13,2.13,0,0,1,2.13,2.13Zm-3.76,0a1.63,1.63,0,1,0,1.63-1.63,1.63,1.63,0,0,0-1.63,1.63Z"/><path class="cls-5" d="M772.45,162.61h-1v-4h1Zm0-8h-1v-4h1Zm0-8h-1v-4h1Zm0-8h-1v-4h1Zm0-8h-1v-4h1Zm0-8h-1v-4h1Z"/><path class="cls-5" d="M773.83,162.51a1.88,1.88,0,1,1-1.88-1.88A1.88,1.88,0,0,1,773.83,162.51Z"/><path class="cls-5" d="M774.08,162.51a2.13,2.13,0,1,0-2.13,2.13,2.13,2.13,0,0,0,2.13-2.13Zm-3.76,0a1.63,1.63,0,1,1,1.63,1.63,1.64,1.64,0,0,1-1.63-1.63Z"/><path class="cls-5" d="M773.83,118.6a1.88,1.88,0,1,0-1.88,1.88A1.88,1.88,0,0,0,773.83,118.6Z"/><path class="cls-5" d="M774.08,118.6a2.13,2.13,0,1,1-2.13-2.13,2.13,2.13,0,0,1,2.13,2.13Zm-3.76,0A1.63,1.63,0,1,0,772,117a1.64,1.64,0,0,0-1.63,1.63Z"/><rect class="cls-5" x="133.79" y="135.44" width="1" height="4"/><rect class="cls-5" x="133.79" y="127.44" width="1" height="4"/><rect class="cls-5" x="133.79" y="151.44" width="1" height="4"/><rect class="cls-5" x="133.79" y="119.44" width="1" height="4"/><rect class="cls-5" x="133.79" y="143.44" width="1" height="4"/><rect class="cls-5" x="150.07" y="98.72" width="4" height="1"/><rect class="cls-5" x="158.07" y="98.72" width="4" height="1"/><rect class="cls-5" x="142.07" y="98.72" width="4" height="1"/><polygon class="cls-5" points="133.79 99.44 134.29 99.44 134.29 99.72 138.07 99.72 138.07 98.72 133.79 98.72 133.79 99.44"/><rect class="cls-5" x="133.79" y="111.44" width="1" height="4"/><rect class="cls-5" x="133.79" y="103.44" width="1" height="4"/><path class="cls-5" d="M167.11,97.34a1.88,1.88,0,1,1-1.88,1.88A1.88,1.88,0,0,1,167.11,97.34Z"/><path class="cls-5" d="M167.11,97.09a2.13,2.13,0,1,0,2.13,2.13,2.14,2.14,0,0,0-2.13-2.13Zm0,3.76a1.63,1.63,0,1,1,1.63-1.63,1.64,1.64,0,0,1-1.63,1.63Z"/><circle class="cls-5" cx="134.29" cy="161.7" r="1.88"/><path class="cls-5" d="M132.16,161.7a2.13,2.13,0,1,1,2.13,2.13,2.13,2.13,0,0,1-2.13-2.13Zm3.76,0a1.63,1.63,0,1,0-1.63,1.63,1.63,1.63,0,0,0,1.63-1.63Z"/><rect class="cls-5" x="350.05" y="127.61" width="1" height="4"/><rect class="cls-5" x="350.05" y="119.61" width="1" height="4"/><rect class="cls-5" x="350.05" y="143.61" width="1" height="4"/><rect class="cls-5" x="350.05" y="111.61" width="1" height="4"/><rect class="cls-5" x="350.05" y="135.61" width="1" height="4"/><rect class="cls-5" x="366.34" y="90.89" width="4" height="1"/><rect class="cls-5" x="374.34" y="90.89" width="4" height="1"/><rect class="cls-5" x="358.34" y="90.89" width="4" height="1"/><polygon class="cls-5" points="350.05 91.61 350.55 91.61 350.55 91.89 354.33 91.89 354.33 90.89 350.05 90.89 350.05 91.61"/><rect class="cls-5" x="350.05" y="103.61" width="1" height="4"/><rect class="cls-5" x="350.05" y="95.61" width="1" height="4"/><path class="cls-5" d="M383.38,89.51a1.88,1.88,0,1,1-1.88,1.88A1.88,1.88,0,0,1,383.38,89.51Z"/><path class="cls-5" d="M383.38,89.26a2.13,2.13,0,1,0,2.13,2.13,2.13,2.13,0,0,0-2.13-2.13Zm0,3.76A1.63,1.63,0,1,1,385,91.39,1.63,1.63,0,0,1,383.38,93Z"/><circle class="cls-5" cx="350.55" cy="153.87" r="1.88"/><path class="cls-5" d="M348.42,153.87a2.13,2.13,0,1,1,2.13,2.13,2.13,2.13,0,0,1-2.13-2.13Zm3.76,0a1.63,1.63,0,1,0-1.63,1.63,1.63,1.63,0,0,0,1.63-1.63Z"/><rect class="cls-5" x="904.01" y="374.74" width="4" height="1"/><rect class="cls-5" x="912.01" y="374.74" width="4" height="1"/><rect class="cls-5" x="918.06" y="369.79" width="1" height="4"/><rect class="cls-5" x="918.06" y="353.79" width="1" height="4"/><rect class="cls-5" x="918.06" y="361.79" width="1" height="4"/><rect class="cls-5" x="918.06" y="345.79" width="1" height="4"/><path class="cls-5" d="M898.49,377.12a1.88,1.88,0,1,1,1.88-1.88A1.88,1.88,0,0,1,898.49,377.12Z"/><path class="cls-5" d="M898.49,377.37a2.13,2.13,0,1,0-2.13-2.13,2.14,2.14,0,0,0,2.13,2.13Zm0-3.76a1.63,1.63,0,1,1-1.63,1.63,1.63,1.63,0,0,1,1.63-1.63Z"/><path class="cls-5" d="M920.44,340.49a1.88,1.88,0,1,0-1.88,1.88A1.88,1.88,0,0,0,920.44,340.49Z"/><path class="cls-5" d="M920.69,340.49a2.13,2.13,0,1,1-2.13-2.13,2.14,2.14,0,0,1,2.13,2.13Zm-3.76,0a1.63,1.63,0,1,0,1.63-1.63,1.63,1.63,0,0,0-1.63,1.63Z"/><path class="cls-5" d="M751.75,379.14h-4v-1h4Zm-8,0h-4v-1h4Zm-8,0h-4v-1h4Zm-8,0h-4v-1h4Zm-8,0h-4v-1h4Zm-5-3.05h-1v-4h1Zm0-8h-1v-4h1Zm0-8h-1v-4h1Zm0-8h-1v-4h1Z"/><path class="cls-5" d="M712.37,348.19a1.88,1.88,0,1,1,1.88,1.88A1.88,1.88,0,0,1,712.37,348.19Z"/><path class="cls-5" d="M712.12,348.19a2.13,2.13,0,1,0,2.13-2.13,2.13,2.13,0,0,0-2.13,2.13Zm3.76,0a1.63,1.63,0,1,1-1.63-1.63,1.63,1.63,0,0,1,1.63,1.63Z"/><path class="cls-5" d="M757.91,380.52a1.88,1.88,0,1,0-1.88-1.88A1.88,1.88,0,0,0,757.91,380.52Z"/><path class="cls-5" d="M757.91,380.77a2.13,2.13,0,1,1,2.13-2.13,2.14,2.14,0,0,1-2.13,2.13Zm0-3.76a1.63,1.63,0,1,0,1.63,1.63,1.63,1.63,0,0,0-1.63-1.63Z"/><path class="cls-5" d="M159.13,368.67h-1.67v-1h1.67Zm-5.67,0h-4v-1h4Zm-8,0h-4v-1h4Zm-8,0h-4v-1h4Zm-4.85-3.15h-1v-4h1Zm0-8h-1v-4h1Zm0-8h-1v-4h1Zm0-8h-1v-4h1Z"/><path class="cls-5" d="M130.23,337.63a1.88,1.88,0,1,1,1.88,1.88A1.88,1.88,0,0,1,130.23,337.63Z"/><path class="cls-5" d="M130,337.63a2.13,2.13,0,1,0,2.13-2.13,2.13,2.13,0,0,0-2.13,2.13Zm3.76,0a1.63,1.63,0,1,1-1.63-1.63,1.63,1.63,0,0,1,1.63,1.63Z"/><path class="cls-5" d="M159,370.05a1.88,1.88,0,1,0-1.88-1.88A1.88,1.88,0,0,0,159,370.05Z"/><path class="cls-5" d="M159,370.3a2.13,2.13,0,1,1,2.13-2.13A2.13,2.13,0,0,1,159,370.3Zm0-3.76a1.63,1.63,0,1,0,1.63,1.63,1.63,1.63,0,0,0-1.63-1.63Z"/><path class="cls-5" d="M918.6,101v2.61h-1V102h-1.38v-1Zm0,6.61v4h-1v-4Zm0,8v4h-1v-4Zm0,8v4h-1v-4Zm0,8v4h-1v-4Zm0,8v4h-1v-4Zm0,8v4h-1v-4ZM912.22,101v1h-4v-1Zm-8,0v1h-4v-1Zm-8,0v1h-4v-1Z"/><path class="cls-5" d="M920,160.63a1.88,1.88,0,1,1-1.88-1.88A1.88,1.88,0,0,1,920,160.63Z"/><path class="cls-5" d="M920.23,160.63a2.13,2.13,0,1,0-2.13,2.13,2.13,2.13,0,0,0,2.13-2.13Zm-3.76,0a1.63,1.63,0,1,1,1.63,1.63,1.63,1.63,0,0,1-1.63-1.63Z"/><path class="cls-5" d="M891.57,99.64a1.88,1.88,0,1,0,1.88,1.88A1.88,1.88,0,0,0,891.57,99.64Z"/><path class="cls-5" d="M891.57,99.39a2.13,2.13,0,1,1-2.13,2.13,2.13,2.13,0,0,1,2.13-2.13Zm0,3.76a1.63,1.63,0,1,0-1.63-1.63,1.64,1.64,0,0,0,1.63,1.63Z"/><path class="cls-5" d="M332.27,368.93h-2.61v-1h1.61v-1.39h1Zm-6.61,0h-4v-1h4Zm-8,0h-4v-1h4Zm-8,0h-4v-1h4Zm-8,0h-4v-1h4Zm-8,0h-4v-1h4Zm-8,0h-4v-1h4Zm46.61-6.39h-1v-4h1Zm0-8h-1v-4h1Zm0-8h-1v-4h1Z"/><path class="cls-5" d="M272.66,370.31a1.88,1.88,0,1,1,1.88-1.88A1.89,1.89,0,0,1,272.66,370.31Z"/><path class="cls-5" d="M272.66,370.56a2.13,2.13,0,1,0-2.13-2.13,2.13,2.13,0,0,0,2.13,2.13Zm0-3.76a1.63,1.63,0,1,1-1.63,1.63,1.63,1.63,0,0,1,1.63-1.63Z"/><path class="cls-5" d="M333.65,341.89a1.88,1.88,0,1,0-1.88,1.88A1.88,1.88,0,0,0,333.65,341.89Z"/><path class="cls-5" d="M333.9,341.89a2.13,2.13,0,1,1-2.13-2.13,2.13,2.13,0,0,1,2.13,2.13Zm-3.76,0a1.63,1.63,0,1,0,1.63-1.63,1.63,1.63,0,0,0-1.63,1.63Z"/><path class="cls-5" d="M382.29,381.43h-3v-1h3Zm-7,0h-4v-1h4Zm-8,0h-4v-1h4Zm-8,0h-4v-1h4Zm-8,0h-3.86v-1.15h1v.15h2.86Zm-2.86-5.15h-1v-4h1Zm0-8h-1v-4h1Zm0-8h-1v-4h1Z"/><circle class="cls-5" cx="347.94" cy="356.39" r="1.88"/><path class="cls-5" d="M345.81,356.39a2.13,2.13,0,1,0,2.13-2.13,2.14,2.14,0,0,0-2.13,2.13Zm3.76,0a1.63,1.63,0,1,1-1.63-1.63,1.63,1.63,0,0,1,1.63,1.63Z"/><path class="cls-5" d="M382.19,382.81a1.88,1.88,0,1,0-1.88-1.88A1.89,1.89,0,0,0,382.19,382.81Z"/><path class="cls-5" d="M382.19,383.06a2.13,2.13,0,1,1,2.13-2.13,2.13,2.13,0,0,1-2.13,2.13Zm0-3.76a1.63,1.63,0,1,0,1.63,1.63,1.63,1.63,0,0,0-1.63-1.63Z"/><path class="cls-5" d="M691.55,376.7h-2.44v-1h1.44v-1.55h1Zm-6.44,0h-4v-1h4Zm6.44-6.55h-1v-4h1Zm0-8h-1v-4h1Z"/><path class="cls-5" d="M674.78,378.08a1.88,1.88,0,1,1,1.88-1.88A1.88,1.88,0,0,1,674.78,378.08Z"/><path class="cls-5" d="M674.78,378.33a2.13,2.13,0,1,0-2.13-2.13,2.13,2.13,0,0,0,2.13,2.13Zm0-3.76a1.63,1.63,0,1,1-1.63,1.63,1.64,1.64,0,0,1,1.63-1.63Z"/><path class="cls-5" d="M692.93,357.14a1.88,1.88,0,1,0-1.88,1.88A1.88,1.88,0,0,0,692.93,357.14Z"/><path class="cls-5" d="M693.18,357.14a2.13,2.13,0,1,1-2.13-2.13,2.13,2.13,0,0,1,2.13,2.13Zm-3.76,0a1.63,1.63,0,1,0,1.63-1.63,1.63,1.63,0,0,0-1.63,1.63Z"/><polygon class="cls-19" points="391.88 41.16 387.44 41.16 387.44 36.72 384.94 36.72 384.94 41.16 380.5 41.16 380.5 43.65 384.94 43.65 384.94 48.09 387.44 48.09 387.44 43.65 391.88 43.65 391.88 41.16"/><polygon class="cls-19" points="728.34 123.76 723.9 123.76 723.9 119.32 721.4 119.32 721.4 123.76 716.97 123.76 716.97 126.26 721.4 126.26 721.4 130.7 723.9 130.7 723.9 126.26 728.34 126.26 728.34 123.76"/><polygon class="cls-19" points="956.26 139.98 951.82 139.98 951.82 135.54 949.32 135.54 949.32 139.98 944.88 139.98 944.88 142.48 949.32 142.48 949.32 146.92 951.82 146.92 951.82 142.48 956.26 142.48 956.26 139.98"/><polygon class="cls-19" points="857 53.13 852.56 53.13 852.56 48.69 850.06 48.69 850.06 53.13 845.62 53.13 845.62 55.63 850.06 55.63 850.06 60.07 852.56 60.07 852.56 55.63 857 55.63 857 53.13"/><polygon class="cls-19" points="580.12 137.94 575.68 137.94 575.68 133.51 573.18 133.51 573.18 137.94 568.74 137.94 568.74 140.44 573.18 140.44 573.18 144.88 575.68 144.88 575.68 140.44 580.12 140.44 580.12 137.94"/><polygon class="cls-19" points="85.59 158.01 81.15 158.01 81.15 153.57 78.65 153.57 78.65 158.01 74.21 158.01 74.21 160.51 78.65 160.51 78.65 164.95 81.15 164.95 81.15 160.51 85.59 160.51 85.59 158.01"/><polygon class="cls-19" points="247.16 137.33 242.72 137.33 242.72 132.89 240.22 132.89 240.22 137.33 235.79 137.33 235.79 139.83 240.22 139.83 240.22 144.27 242.72 144.27 242.72 139.83 247.16 139.83 247.16 137.33"/><circle class="cls-5" cx="327.79" cy="69.92" r="18.03" transform="translate(205.98 382.16) rotate(-80.73)"/><path class="cls-5" d="M90.24,99c-5.51,0-11-.12-16.41.12a78.69,78.69,0,0,1-11.19-.37,13,13,0,0,1-3.72-.84c-1.11-.44-2.55-.93-.87-1.52,3.68-1.3,8,1.33,11.54-.27-.38-.63-1.69-1.58-1.08-2.44.4-.57,2.57-.83,3.24-.9a17.77,17.77,0,0,1,7.8.72c2.73,1.1,5.46.9,8.44.9,1.34,0,6.94-.6,7.57,1.11.36,1-1.06.56.17,1.47.89.65,2.51.53,3.54.53.67,0,2.54-.15,3,.46.7.87-.36,1.37-1.13,1.53C99.3,99.9,91.88,99,90.24,99Z"/><path class="cls-5" d="M609.4,46.41c-5.51,0-10.95-.12-16.41.12a78.59,78.59,0,0,1-11.18-.37,13.05,13.05,0,0,1-3.73-.84c-1.1-.44-2.55-.93-.87-1.52,3.69-1.3,8,1.32,11.54-.27-.38-.64-1.68-1.58-1.07-2.44.4-.57,2.57-.83,3.23-.9a17.81,17.81,0,0,1,7.81.72c2.72,1.1,5.46.9,8.44.9,1.34,0,6.94-.6,7.56,1.11.37,1-1.06.56.18,1.47.88.65,2.51.53,3.54.53.67,0,2.53-.15,3,.46.7.87-.36,1.37-1.12,1.53C618.46,47.32,611.05,46.41,609.4,46.41Z"/><path class="cls-5" d="M922.64,72.78c-5.51,0-10.95-.12-16.41.12a78.59,78.59,0,0,1-11.18-.37,12.91,12.91,0,0,1-3.72-.84c-1.11-.43-2.56-.93-.88-1.52,3.69-1.3,8,1.33,11.54-.27-.38-.63-1.68-1.58-1.07-2.44.4-.56,2.57-.83,3.23-.9a18,18,0,0,1,7.81.72c2.73,1.1,5.46.9,8.44.9,1.34,0,6.94-.59,7.57,1.12.36,1-1.07.55.17,1.46.88.66,2.51.54,3.54.53.67,0,2.53-.15,3,.46.7.87-.36,1.37-1.12,1.54C931.7,73.7,924.29,72.78,922.64,72.78Z"/><path class="cls-5" d="M483.89,60.49c-5.5,0-10.95-.12-16.41.12a78.59,78.59,0,0,1-11.18-.37,12.91,12.91,0,0,1-3.72-.84c-1.11-.43-2.56-.93-.88-1.52,3.69-1.3,8,1.33,11.55-.27-.39-.63-1.69-1.58-1.08-2.44.4-.56,2.57-.83,3.24-.89a17.77,17.77,0,0,1,7.8.71c2.73,1.11,5.46.9,8.44.9,1.34,0,6.94-.59,7.57,1.12.36,1-1.06.55.17,1.46.88.66,2.51.54,3.54.53.67,0,2.54-.15,3,.46.69.87-.37,1.37-1.13,1.54C493,61.41,485.54,60.49,483.89,60.49Z"/><path class="cls-5" d="M237.13,59.53a62.53,62.53,0,0,0,8.22.16,13.68,13.68,0,0,1,3.5.14,30.82,30.82,0,0,0,7.39-.22c1.5-.14,3.32.07,4.72-.64,2.77-1.39-1.16-2-2.4-1.92a10.17,10.17,0,0,1-6-.89,7.92,7.92,0,0,0-3.08-.62c-.88-.08-2.36-.51-3.2-.1-.36.18-.52.59-1,.78a7.06,7.06,0,0,1-2.19.29,24.79,24.79,0,0,1-3.75-.46c-.86-.08-7.25-1-7.59,0-.24.75,2.31.69,2.11,1.43-.14.51-2.88.48-3.36.55-.72.11-3.51,0-3.53,1a19.43,19.43,0,0,0,6,.72l.3,0h0A19.16,19.16,0,0,1,237.13,59.53Z"/><path class="cls-5" d="M105.43,81.33a59.25,59.25,0,0,0,8.22.16,14.65,14.65,0,0,1,3.5.14,30.34,30.34,0,0,0,7.39-.21c1.5-.14,3.32.06,4.72-.64,2.77-1.4-1.16-2-2.4-1.92a10.33,10.33,0,0,1-6-.89,7.92,7.92,0,0,0-3.08-.62c-.88-.08-2.36-.51-3.2-.1-.36.18-.52.59-1,.78a7.08,7.08,0,0,1-2.2.29,26.17,26.17,0,0,1-3.74-.46c-.86-.08-7.25-1-7.59,0-.24.75,2.31.68,2.11,1.43-.14.51-2.88.48-3.36.55-.72.1-3.51,0-3.53,1a19.74,19.74,0,0,0,6,.73,1.53,1.53,0,0,0,.3,0h0A20,20,0,0,1,105.43,81.33Z"/><path class="cls-5" d="M641.41,57.91a62.38,62.38,0,0,0,8.21.16,14.23,14.23,0,0,1,3.51.14,30.85,30.85,0,0,0,7.39-.22c1.5-.14,3.32.07,4.71-.64,2.78-1.39-1.16-2-2.39-1.92a10.16,10.16,0,0,1-6-.89,7.92,7.92,0,0,0-3.08-.62c-.89-.08-2.36-.51-3.2-.1-.36.18-.52.59-1,.78a7.08,7.08,0,0,1-2.2.29,24.81,24.81,0,0,1-3.74-.46c-.86-.08-7.25-1-7.59,0-.24.75,2.3.69,2.1,1.43-.13.51-2.87.48-3.35.55-.72.11-3.51,0-3.54,1a19.5,19.5,0,0,0,6,.72l.3,0h0A19.16,19.16,0,0,1,641.41,57.91Z"/><path class="cls-5" d="M867.13,153.53a59.25,59.25,0,0,0,8.22.16,14.75,14.75,0,0,1,3.51.14,30.25,30.25,0,0,0,7.38-.21c1.5-.14,3.32.06,4.72-.64,2.77-1.4-1.16-2-2.4-1.93a10.25,10.25,0,0,1-6-.88,7.88,7.88,0,0,0-3.08-.62c-.88-.08-2.36-.51-3.19-.1-.37.18-.53.59-1,.78a7,7,0,0,1-2.19.29,26.13,26.13,0,0,1-3.75-.46c-.86-.08-7.25-1-7.58,0-.25.75,2.3.68,2.1,1.42-.14.52-2.88.49-3.35.55-.73.11-3.52,0-3.54,1a19.78,19.78,0,0,0,6,.73l.3,0h0A19.8,19.8,0,0,1,867.13,153.53Z"/><path class="cls-5" d="M968,55.55a62.34,62.34,0,0,0,8.21.16,13.76,13.76,0,0,1,3.51.14,30.75,30.75,0,0,0,7.38-.22c1.5-.14,3.33.07,4.72-.64,2.77-1.39-1.16-2-2.39-1.92a10.15,10.15,0,0,1-6-.89,8,8,0,0,0-3.08-.62c-.89-.08-2.36-.51-3.2-.1-.37.18-.52.59-1,.78a7.12,7.12,0,0,1-2.2.29,24.5,24.5,0,0,1-3.74-.46c-.87-.08-7.25-1-7.59,0-.24.75,2.3.69,2.1,1.43-.14.51-2.88.48-3.35.55-.73.1-3.51,0-3.54,1a19.5,19.5,0,0,0,6,.72l.3,0h0A19.12,19.12,0,0,1,968,55.55Z"/><path class="cls-5" d="M186.88,88.93c-.81,0-1.33.25-1.33.9,0,2.72,11.22,1,11.22,8.87,0,4.82-4.24,7-9.12,7a18.7,18.7,0,0,1-10.85-3.47l2.66-5.38a15.74,15.74,0,0,0,8.25,3.37c1,0,1.73-.34,1.73-1.11,0-2.81-11.22-1-11.22-8.56,0-4.33,3.65-7.05,9.27-7.05A18.41,18.41,0,0,1,196.92,86l-2.59,5.44C192.13,90.26,188.76,88.93,186.88,88.93Z"/><path class="cls-5" d="M221.35,94.59c0,6.43-5,11.16-11.9,11.16s-11.9-4.7-11.9-11.16,5-11,11.9-11S221.35,88.19,221.35,94.59Zm-16.45,0a4.91,4.91,0,0,0,4.64,5.16c2.47,0,4.45-2.19,4.45-5.16s-2-5.1-4.45-5.1A4.83,4.83,0,0,0,204.9,94.62Z"/><path class="cls-5" d="M234.12,89.52c-2.6,0-4.48,2.07-4.48,5s1.88,5,4.48,5A7.38,7.38,0,0,0,239,97l4.14,4.42a13.44,13.44,0,0,1-9.43,4.33c-6.65,0-11.47-4.73-11.47-11.19s4.95-11,11.75-11a13,13,0,0,1,9.15,4L239,92.42A6.67,6.67,0,0,0,234.12,89.52Z"/><path class="cls-5" d="M251.81,83.77v21.67h-7.17V83.77Z"/><path class="cls-5" d="M269.65,102.38h-8.13l-1.11,3.06h-7.36l9.15-21.67h7.36l8.81,21.67h-7.64Zm-1.76-5.13-2.23-6.34-2.29,6.34Z"/><path class="cls-5" d="M286.78,83.77v15.7h9v6h-16.2V83.77Z"/><path class="cls-5" d="M793.14,100.56c0,5.82-4.18,9.59-10.66,9.59h-8.3V91h8.55C789,91,793.14,94.75,793.14,100.56Zm-6.48.06c0-2.84-1.61-4.7-4.07-4.7h-2.07v9.32h2.37C785.19,105.24,786.66,103.43,786.66,100.62Z"/><path class="cls-5" d="M801.25,91v19.14h-6.34V91Z"/><path class="cls-5" d="M816.36,100.07h5.43V108a16.88,16.88,0,0,1-8.38,2.45c-6,0-10.38-4.15-10.38-9.83s4.53-9.78,10.79-9.78a13.19,13.19,0,0,1,8.27,3l-3.58,4.35a7.26,7.26,0,0,0-4.72-2,4.26,4.26,0,0,0-4.26,4.5,4.3,4.3,0,0,0,4.31,4.56,7.35,7.35,0,0,0,2.52-.62Z"/><path class="cls-5" d="M830.48,91v19.14h-6.34V91Z"/><path class="cls-5" d="M849.22,91v5h-5.46v14.15h-6.34V96H832V91Z"/><path class="cls-5" d="M861.57,107.45h-7.18l-1,2.7h-6.5L855,91h6.5l7.78,19.14h-6.75ZM860,102.91l-2-5.6-2,5.6Z"/><path class="cls-5" d="M876.7,91v13.87h8v5.27H870.37V91Z"/><path class="cls-5" d="M778.22,358.28l5.43,13,5.42-13h8.68v24.85h-7.16V369.52l-4.25,11.2H781l-4.25-11.2v13.61h-7.16V358.28Z"/><path class="cls-5" d="M822.32,358.28v6.24h-12.8v3.05h11.63v6.24H809.52v3.08h13.12v6.24H801.3V358.28Z"/><path class="cls-5" d="M850.36,370.69c0,7.55-5.43,12.44-13.83,12.44H825.76V358.28h11.09C845,358.28,850.36,363.14,850.36,370.69Zm-8.4.07c0-3.69-2.1-6.1-5.29-6.1H834v12.09h3.08C840,376.75,842,374.41,842,370.76Z"/><path class="cls-5" d="M860.88,358.28v24.85h-8.22V358.28Z"/><path class="cls-5" d="M881.33,379.62H872l-1.27,3.51H862.3l10.49-24.85h8.44l10.1,24.85h-8.75Zm-2-5.88-2.55-7.27-2.62,7.27Z"/><path class="cls-5" d="M183.66,362.24c-1.13,0-1.86.35-1.86,1.26,0,3.81,15.73,1.43,15.73,12.43,0,6.77-5.94,9.76-12.79,9.76a26.26,26.26,0,0,1-15.21-4.86l3.73-7.54c3.12,2.6,8.49,4.72,11.57,4.72,1.47,0,2.43-.47,2.43-1.55,0-3.95-15.73-1.35-15.73-12,0-6.07,5.11-9.88,13-9.88a25.83,25.83,0,0,1,13.21,3.6l-3.64,7.62C191,364.1,186.3,362.24,183.66,362.24Z"/><path class="cls-5" d="M225.83,355v7.63H210.18v3.73H224.4V374H210.18v3.77h16v7.63H200.13V355Z"/><path class="cls-5" d="M261.88,370.17c0,9-7,15.65-16.68,15.65s-16.68-6.59-16.68-15.65,7-15.47,16.68-15.47S261.88,361.2,261.88,370.17Zm-23,0c0,4.17,3,7.24,6.5,7.24s6.24-3.07,6.24-7.24-2.77-7.15-6.24-7.15S238.83,366.05,238.83,370.21Z"/><path class="cls-5" d="M429.44,373.76a7.28,7.28,0,0,1-5.45,6.93,8.12,8.12,0,0,1,6.42,8.18c0,5.55-5.13,9.11-13,9.11h-17.2v-32.4h16.41C424.4,365.58,429.44,368.81,429.44,373.76Zm-11,1.94a2.21,2.21,0,0,0-2.45-2.27h-5.13v4.63H416A2.26,2.26,0,0,0,418.44,375.7Zm.83,11.83c0-1.43-1.29-2.36-3.28-2.36h-5.13v4.95H416C418,390.12,419.27,389.1,419.27,387.53Z"/><path class="cls-5" d="M452.27,398l-3.88-8.42h-4V398H433.64v-32.4h15.67c8.78,0,13.82,4.2,13.82,11.6,0,4.71-1.8,8.22-5.13,10.26L464.38,398Zm-7.9-16.55h4.94c2.31,0,3.65-1.43,3.65-3.93s-1.34-3.79-3.65-3.79h-4.94Z"/><path class="cls-5" d="M489.19,393.4H477L475.37,398h-11l13.68-32.4h11L502.23,398H490.81Zm-2.63-7.67-3.33-9.48-3.42,9.48Z"/><path class="cls-5" d="M513,365.58l12.8,16.63V365.58h9.7V398h-9l-12.76-16.55V398h-9.75v-32.4Z"/><path class="cls-5" d="M572.24,381.75c0,9.85-7.07,16.23-18,16.23H540.16v-32.4h14.47C565.3,365.58,572.24,371.91,572.24,381.75Zm-11,.09c0-4.8-2.72-7.94-6.88-7.94h-3.52v15.76h4C558.79,389.66,561.28,386.61,561.28,381.84Z"/><path class="cls-5" d="M586,365.58V398H575.24v-32.4Z"/><path class="cls-5" d="M599.54,365.58l12.81,16.63V365.58h9.7V398h-9l-12.76-16.55V398h-9.75v-32.4Z"/><path class="cls-5" d="M647.61,380.92h9.19v13.36a28.58,28.58,0,0,1-14.18,4.16c-10.17,0-17.57-7-17.57-16.64s7.67-16.55,18.26-16.55a22.26,22.26,0,0,1,14,5l-6,7.35a12.33,12.33,0,0,0-8-3.42c-4.16,0-7.21,3.24-7.21,7.63s3.1,7.72,7.3,7.72a12.37,12.37,0,0,0,4.26-1.07Z"/><path class="cls-5" d="M415.43,102.68H403.5l-1.64,4.49H391.07l13.43-31.8h10.79l12.93,31.8H417Zm-2.59-7.53-3.26-9.3-3.36,9.3Z"/><path class="cls-5" d="M461.52,91.25c0,9.66-6.94,15.92-17.69,15.92H430V75.37h14.2C454.72,75.37,461.52,81.59,461.52,91.25Zm-10.75.09c0-4.72-2.68-7.8-6.76-7.8h-3.45V99h3.95C448.32,99,450.77,96,450.77,91.34Z"/><path class="cls-5" d="M472.77,75.37l6.58,20.87,6.53-20.87h10.76l-12.16,31.8H473.59l-12.07-31.8Z"/><path class="cls-5" d="M525.58,75.37v8H509.2v3.9h14.88v8H509.2v4H526v8H498.68V75.37Z"/><path class="cls-5" d="M548.26,107.17l-3.81-8.25h-3.94v8.25H530V75.37h15.38c8.62,0,13.57,4.13,13.57,11.39,0,4.63-1.77,8.08-5,10.07l6.26,10.34Zm-7.75-16.24h4.85c2.27,0,3.59-1.4,3.59-3.85s-1.32-3.72-3.59-3.72h-4.85Z"/><path class="cls-5" d="M589.46,75.37v8.31h-9.08v23.49H569.86V83.68h-9V75.37Z"/><path class="cls-5" d="M602.48,75.37v31.8H592V75.37Z"/><path class="cls-5" d="M619.9,83c-1.18,0-1.95.36-1.95,1.31,0,4,16.47,1.5,16.47,13,0,7.08-6.22,10.21-13.39,10.21a27.5,27.5,0,0,1-15.92-5.08l3.9-7.89c3.27,2.72,8.89,4.94,12.12,4.94,1.54,0,2.54-.5,2.54-1.63,0-4.13-16.47-1.41-16.47-12.57,0-6.35,5.35-10.34,13.61-10.34a27.07,27.07,0,0,1,13.83,3.77l-3.81,8C627.61,84.9,622.67,83,619.9,83Z"/><path class="cls-5" d="M647.66,75.37v31.8H637.14V75.37Z"/><path class="cls-5" d="M661,75.37,673.57,91.7V75.37h9.52v31.8h-8.8L661.77,90.93v16.24H652.2V75.37Z"/><path class="cls-5" d="M708.18,90.43h9v13.11a28.07,28.07,0,0,1-13.93,4.09c-10,0-17.23-6.9-17.23-16.33S693.58,75.06,704,75.06A21.84,21.84,0,0,1,717.71,80l-5.94,7.21a12.13,12.13,0,0,0-7.85-3.36c-4.08,0-7.08,3.18-7.08,7.49s3,7.57,7.17,7.57a12.22,12.22,0,0,0,4.17-1Z"/><rect class="cls-7" x="157.25" y="133.49" width="49.37" height="33.09" rx="2.54"/><rect class="cls-9" x="159.52" y="135.68" width="44.82" height="28.37"/><path class="cls-7" d="M166.85,149.87s14.11,17.79,30.16,0C181,132.08,166.85,149.87,166.85,149.87Z"/><path class="cls-5" d="M169,149.87s12.13,15.3,25.94,0C181.09,134.57,169,149.87,169,149.87Z"/><circle class="cls-4" cx="181.93" cy="149.87" r="6.7"/><path class="cls-7" d="M186.15,149.87a4.22,4.22,0,1,1-4.22-4.22A4.22,4.22,0,0,1,186.15,149.87Z"/><circle class="cls-5" cx="185.21" cy="147.21" r="1.72"/><path class="cls-4" d="M209.74,285.49l-.3,31.19c0,1.62-.47,2.56-2.79,2.86-2.88.37-3.75-.14-4.17-.93-.81-1.49-8.66-31.29-10-33.32S209.74,285.49,209.74,285.49Z"/><path class="cls-14" d="M209.68,292.21l.06-6.72s-18.52-2.23-17.22-.2c.31.48,1.51,4.32,2.42,7.29Z"/><path class="cls-6" d="M180.58,274.75a3.5,3.5,0,0,0-3.44,2.71,17,17,0,0,0-.4,3.62,9.21,9.21,0,0,0,.56,3.91,3.43,3.43,0,0,0,3,2c6.33.23,29.13,1.12,33.89,2.24,5.53,1.3,24.07,9.53,24.07,9.53L234.75,257s-17,13.8-27.84,16C198.5,274.64,185.8,274.78,180.58,274.75Z"/><path class="cls-7" d="M192.18,287.44c2.35.12,4.81.24,7.22.38-1.51-4.88-.91-10.47-.14-13.8-2.41.23-4.88.38-7.24.49A25.3,25.3,0,0,0,192.18,287.44Z"/><path class="cls-11" d="M256.37,276.48c.12,15.07-7.06,27.35-16,27.42S224,291.81,223.87,276.73s7.06-27.35,16-27.42S256.25,261.4,256.37,276.48Z"/><path class="cls-7" d="M255.16,276.49c.1,12.82-6,23.26-13.64,23.32s-13.91-10.28-14-23.11,6-23.26,13.64-23.32S255.06,263.66,255.16,276.49Z"/><path class="cls-9" d="M238.41,278.85c.33-4.57-2.66-8.51-6.68-8.8a6.6,6.6,0,0,0-3.82.95,37.69,37.69,0,0,0-.4,5.7,37.08,37.08,0,0,0,1.3,9.5,6.31,6.31,0,0,0,1.73.39C234.56,286.88,238.08,283.41,238.41,278.85Z"/><path class="cls-12" d="M214.29,262.17a2.19,2.19,0,0,1,.17-1.4c-.23,0-.58.08-.56-.06s.07-.45-.07-.43a.84.84,0,0,0-.35.18,1.49,1.49,0,0,1-.81.19c-.1.32-.37.82-.19,1.16.09.18.56.09.77.17A3.48,3.48,0,0,0,214.29,262.17Z"/><path class="cls-9" d="M207.62,247.44a10.77,10.77,0,0,0-4.73,1.18l1.27,5.51a5.76,5.76,0,0,1,3.08-.68Z"/><path class="cls-10" d="M206.29,250.34c0-.92.07-1.84.09-2.76a9.48,9.48,0,0,1,1.24-.14l-.38,6c-.51-.79-.76-.61-.86-.71C206.38,252,206.28,251.13,206.29,250.34Z"/><path class="cls-9" d="M218.59,247.73s-7.19-2.82-11.9-1.86l-.31,6.87s4.18-.92,10,1.61Z"/><rect class="cls-7" x="207.12" y="255.56" width="17.23" height="0.62" transform="translate(-96.73 375.74) rotate(-70.85)"/><path class="cls-4" d="M213,262.2v-1.94s-5.8,0-8.24-.65-5.69-3.57-7-3.1-2.13,1.78-.52,3.05,5.44,2.36,7.1,2.61C205.53,262.35,212.12,262.2,213,262.2Z"/><path class="cls-14" d="M203.32,261a18.58,18.58,0,0,1-5.64-4.44c-1.23.5-2,1.78-.4,3s5.44,2.36,7.1,2.61c.57.09,2.45.1,4.32.09A18.94,18.94,0,0,1,203.32,261Z"/><path class="cls-7" d="M203.27,284.74s-1.13,1.84-1,2.27,4.11,2.73,4.64,2.54.64-.81-.07-1.44-1.25-.72-1.68-1.28,0-1.72,0-1.72Z"/><path class="cls-9" d="M196.64,269.21a2.46,2.46,0,0,0,1.63.54c.83-.11,8.95.73,9.78,1.42s-2.57,14.43-2.57,14.43l-2.83-.47s1-10.05.85-10.12-4.44-.06-11.71-.06c-1.77,0-3.75-3.73-1.51-6.33Z"/><path class="cls-12" d="M197.91,253.9a3.15,3.15,0,0,1-.76-.48,5.7,5.7,0,0,1-1.28,3.18,6.35,6.35,0,0,0,3.21.41,10.45,10.45,0,0,1,.13-2.92A2.75,2.75,0,0,1,197.91,253.9Z"/><path class="cls-13" d="M197.05,256.29a2.12,2.12,0,0,1,2-1.41,4.15,4.15,0,0,1,.14-.79,2.75,2.75,0,0,1-1.3-.19,3.15,3.15,0,0,1-.76-.48,5.7,5.7,0,0,1-1.28,3.18,7,7,0,0,0,1,.32A2.53,2.53,0,0,1,197.05,256.29Z"/><path class="cls-12" d="M197.41,249.14s2.08-.65,2.74-.24a3,3,0,0,1,1,2.46c-.11.75.76,1.63.78,1.91s-.66.37-.68.46-.06,1.46-1,1.69a4.13,4.13,0,0,1-3.59-1.48C196.14,253.16,195.45,249.61,197.41,249.14Z"/><path class="cls-7" d="M201.28,249.23c-.11-.11-.39-.29-.46-.43a2.32,2.32,0,0,0-.16-.36c-.23-.34-.28-.58-1.23-.88a3,3,0,0,0-2.54.56,2.55,2.55,0,0,0-.61.7c0,.08-.19.31-.15.39s.35.18.45.24a3.32,3.32,0,0,1,.46.38c1,.77,2.44,1.6,3.49.53.13-.14.27-.3.39-.45a2.86,2.86,0,0,1,.29,1.38,1.24,1.24,0,0,0,.42-.67A1.42,1.42,0,0,0,201.28,249.23Z"/><path class="cls-7" d="M196.88,249.17a1.75,1.75,0,0,0-1,0,1.19,1.19,0,0,0-.93,1.05,4.59,4.59,0,0,0-.1,1,3.71,3.71,0,0,0,.24,1.48A3.56,3.56,0,0,0,196,254c.37.33,1.09.72,1.45.57a2.77,2.77,0,0,0,.31-1.32c0-.25-.16-.25-.36-.37s-.7-.56-.46-1c.35-.57,1-.31,1.22.49,0,0,.25.44.4.37S199.31,250.48,196.88,249.17Z"/><path class="cls-13" d="M197.14,252a.57.57,0,0,1,.62.17c.25.29.13.75-.11.58s-.15-.33-.19-.47A.48.48,0,0,0,197.14,252Z"/><path class="cls-4" d="M189.28,268.45s2.94,2.28,9,1.26a13,13,0,0,1,.5-3.46,33.41,33.41,0,0,0,1.3-6.81,3.75,3.75,0,0,0-1.07-2.89s-1.14,1.08-2.85-.32a7.46,7.46,0,0,0-4.75,4.44A40.52,40.52,0,0,0,189.28,268.45Z"/><path class="cls-14" d="M196.62,259.1c-1.57,1.7-.05,5.88,1.94,8.22.07-.35.15-.71.26-1.07.27-.9.6-2.25.87-3.59a3.19,3.19,0,0,1-1.28-1.52C197.8,259.66,197.41,258.66,196.62,259.1Z"/><path class="cls-12" d="M209.38,270.8a1.69,1.69,0,0,0,.74.38,1.18,1.18,0,0,1,.38.09,2.61,2.61,0,0,0,.42.16.78.78,0,0,1,.4.19c.12.14-.11.18-.27.19s-.63-.29-.76-.17.44.45.55.52c.27.15.48,0,.76,0s.24.06.12.21-.25.12-.38.13a1.76,1.76,0,0,1-.81-.14,1.74,1.74,0,0,0,.75.2c.14,0,.77,0,.78.19,0,.46-1.4.16-1.61,0a2.09,2.09,0,0,0,.74.25c.15,0,.5.1.31.3s-1-.19-1.33-.34a3,3,0,0,0,.63.37c.29.16.08.32-.24.21a2.79,2.79,0,0,1-.45-.21,2.51,2.51,0,0,1-1.11-1.17c-.11-.2-.52-.45-.48-.65C208.6,271.17,209.11,271,209.38,270.8Z"/><path class="cls-4" d="M209.81,270.51l-1.18,1.6s-7.56-3.27-8.24-4.14a43.4,43.4,0,0,1-3.25-4.87c-.8-2-1.8-4.29,0-4.7,1-.22,1.62,0,2.24,1.48a39.74,39.74,0,0,0,3.32,6C203,266.29,209.81,270.51,209.81,270.51Z"/><path class="cls-12" d="M215.13,260.8c.11.17-.19.9-.47,1.21a.52.52,0,0,1-.7.05c-.23-.14-.51-.2-.55-.33,0-.55.45-.14.68-.06,0,0-.61-.3-.6-.56,0-.49.77.07,1,.17a1.3,1.3,0,0,1-.58-.39.18.18,0,0,1,0-.28c.16-.15.8.3.8.3s-.58-.25-.4-.46.32,0,.43,0A.65.65,0,0,1,215.13,260.8Z"/><path class="cls-12" d="M213.7,260.78l.21-.06a0,0,0,0,0,0,0c0-.19.73-.24.89-.32.48-.25.28-.54.07-.48s-.48.15-.61.21a2,2,0,0,1-.49.05,3.55,3.55,0,0,0-.61.43C212.91,260.75,213.44,260.89,213.7,260.78Z"/><path class="cls-6" d="M266.54,266.35c.15.42-1.26,1.33-3.15,2s-3.56.92-3.72.49,1.26-1.33,3.15-2S266.38,265.92,266.54,266.35Z"/><path class="cls-6" d="M263.09,257.81c.18.42-1.18,1.41-3,2.21s-3.5,1.12-3.68.7,1.17-1.4,3-2.21S262.91,257.4,263.09,257.81Z"/><path class="cls-6" d="M265.64,289.14c-.13.43-1.81.3-3.74-.3s-3.38-1.44-3.25-1.87,1.81-.3,3.74.3S265.78,288.7,265.64,289.14Z"/><path class="cls-6" d="M262.13,298.37c-.17.42-1.82.15-3.7-.6s-3.25-1.71-3.08-2.13,1.82-.15,3.7.6S262.3,298,262.13,298.37Z"/><path class="cls-6" d="M267.59,277.85c0,.45-1.68.73-3.7.63s-3.63-.56-3.61-1,1.68-.74,3.7-.63S267.61,277.4,267.59,277.85Z"/><path class="cls-9" d="M298.66,196.58a9.71,9.71,0,0,0,0-2.78l-2.15-.34a9.65,9.65,0,0,0-.26-1l1.7-1.38a10.91,10.91,0,0,0-1.4-2.41l-2,.79a7.71,7.71,0,0,0-.7-.7l.79-2a10.53,10.53,0,0,0-2.41-1.4l-1.38,1.7a9.65,9.65,0,0,0-1-.26l-.34-2.15a9.78,9.78,0,0,0-2.79,0l-.33,2.15c-.33.07-.65.16-1,.26l-1.37-1.7a10.33,10.33,0,0,0-2.41,1.4l.79,2a7.71,7.71,0,0,0-.7.7l-2-.79a10.57,10.57,0,0,0-1.41,2.41L280,192.5a7.53,7.53,0,0,0-.26,1l-2.15.34a9.71,9.71,0,0,0,0,2.78l2.15.34a7.53,7.53,0,0,0,.26,1l-1.71,1.38a10.57,10.57,0,0,0,1.41,2.41l2-.79a7.71,7.71,0,0,0,.7.7l-.79,2a10.33,10.33,0,0,0,2.41,1.4l1.37-1.7c.32.1.64.19,1,.26l.33,2.15a9.78,9.78,0,0,0,2.79,0l.34-2.15a9.65,9.65,0,0,0,1-.26l1.38,1.7a10.53,10.53,0,0,0,2.41-1.4l-.79-2a7.71,7.71,0,0,0,.7-.7l2,.79a10.91,10.91,0,0,0,1.4-2.41l-1.7-1.38a9.65,9.65,0,0,0,.26-1Zm-10.54,4.18a5.57,5.57,0,1,1,5.57-5.57A5.57,5.57,0,0,1,288.12,200.76Z"/><path class="cls-7" d="M288.12,188.93a6.26,6.26,0,1,0,6.26,6.26A6.27,6.27,0,0,0,288.12,188.93Zm0,10.16a3.9,3.9,0,1,1,3.89-3.9A3.91,3.91,0,0,1,288.12,199.09Z"/><path class="cls-4" d="M780.38,218.16a13.91,13.91,0,0,0,.63-1.42,11.69,11.69,0,0,0,.42-1.51l-2.14-1.16a8.3,8.3,0,0,0,.09-1.11l2.31-.8a11.66,11.66,0,0,0-.57-3.06l-2.44.06a8.32,8.32,0,0,0-.47-1l1.59-1.85a11.65,11.65,0,0,0-2-2.38l-2.09,1.27c-.29-.22-.59-.44-.91-.64l.46-2.38a11.47,11.47,0,0,0-1.43-.63,11.69,11.69,0,0,0-1.51-.42l-1.16,2.13a10.36,10.36,0,0,0-1.11-.08l-.8-2.31a11.66,11.66,0,0,0-3.06.57l.06,2.44a7.58,7.58,0,0,0-1,.47l-1.85-1.6a12,12,0,0,0-2.38,2l1.28,2.08a9.47,9.47,0,0,0-.64.92l-2.39-.46a13.16,13.16,0,0,0-.63,1.43,12,12,0,0,0-.42,1.5l2.13,1.16a10.74,10.74,0,0,0-.08,1.11l-2.31.81a11.74,11.74,0,0,0,.57,3.06l2.44-.06a10.07,10.07,0,0,0,.47,1l-1.59,1.85a11.6,11.6,0,0,0,2,2.38l2.09-1.28a9.88,9.88,0,0,0,.91.64l-.46,2.39a13.16,13.16,0,0,0,1.43.63,12,12,0,0,0,1.5.41l1.17-2.13a10.38,10.38,0,0,0,1.11.09l.8,2.31a11.66,11.66,0,0,0,3.06-.57l-.06-2.44c.34-.14.68-.3,1-.47l1.85,1.59a12.27,12.27,0,0,0,2.38-2l-1.28-2.09a8.26,8.26,0,0,0,.64-.91Zm-12.65.43a6.22,6.22,0,1,1,7.95-3.76A6.22,6.22,0,0,1,767.73,218.59Z"/><path class="cls-7" d="M772.18,206.15a7,7,0,1,0,4.23,8.94A7,7,0,0,0,772.18,206.15Zm-3.82,10.68a4.35,4.35,0,1,1,5.56-2.63A4.35,4.35,0,0,1,768.36,216.83Z"/><rect class="cls-7" x="626.14" y="309.36" width="2.23" height="12.52"/><rect class="cls-7" x="668.36" y="309.36" width="2.23" height="12.52"/><rect class="cls-7" x="611.74" y="265.46" width="73.26" height="45.03"/><rect class="cls-5" x="615.24" y="268.48" width="66.26" height="39"/><path class="cls-20" d="M661.39,303.82H619.6s.2-15.75,5.33-18,8.56,9.12,11,9.27,2.2-9.32,5.71-10.73c9-3.62,8.13,10.66,9.79,10.51s3.15-13.18,5.43-13.18C662.44,281.68,661.39,303.82,661.39,303.82Z"/><path class="cls-4" d="M661.39,303.82H619.6s1-13.43,6.18-15.69,7.39,8.6,9.81,8.75,4.67-7.55,8.45-7.85,6.33,8.9,8,8.75,2.55-14.63,4.83-14.63C661.39,283.15,661.39,303.82,661.39,303.82Z"/><path class="cls-9" d="M661.39,303.82H619.6s1.35-6.64,6.48-8.91,7.85,4,10.26,4.15,3.4-8.94,7.17-9.24,1.68,11,7.65,11c4.34,0,3.68-9.28,6-9.28C661.65,291.52,661.39,303.82,661.39,303.82Z"/><rect class="cls-20" x="666.25" y="280.98" width="12.39" height="2.17"/><rect class="cls-20" x="666.25" y="285.81" width="12.39" height="2.17"/><rect class="cls-4" x="666.25" y="290.64" width="12.39" height="2.17"/><rect class="cls-20" x="666.25" y="295.47" width="12.39" height="2.17"/><rect class="cls-9" x="666.25" y="300.3" width="12.39" height="2.17"/><rect class="cls-4" x="618.47" y="270.82" width="2.26" height="2.26"/><rect class="cls-20" x="622.91" y="270.82" width="10.26" height="2.26"/><rect class="cls-4" x="618.47" y="274.62" width="2.26" height="2.26"/><rect class="cls-20" x="622.91" y="274.62" width="10.26" height="2.26"/><rect class="cls-4" x="618.47" y="278.42" width="2.26" height="2.26"/><rect class="cls-20" x="622.91" y="278.42" width="10.26" height="2.26"/><rect class="cls-20" x="646.42" y="270.82" width="32.22" height="3.15"/><rect class="cls-20" x="637.64" y="277.53" width="16.16" height="2.67"/><rect class="cls-6" x="624.29" y="320.28" width="5.94" height="2.21"/><rect class="cls-6" x="666.51" y="320.28" width="5.94" height="2.21"/><path class="cls-4" d="M640,271.42c.81.06,1.55.41,1.55,1.22h-1.35c0-.3-.32-.36-.52-.36s-.52,0-.52.25c0,.55,2.48,0,2.49,1.53,0,.94-.72,1.29-1.63,1.36l.07,1h-.83l.05-1c-.84-.09-1.62-.47-1.62-1.32h1.34v0c0,.37.43.44.64.44s.6,0,.6-.28c0-.58-2.48,0-2.49-1.56,0-.87.67-1.21,1.51-1.29l-.06-1h.82Z"/><polygon class="cls-9" points="645.3 272.74 644.03 270.27 642.76 272.74 643.63 272.74 643.63 276.42 644.44 276.42 644.44 272.74 645.3 272.74"/><path class="cls-12" d="M680.42,286a6.82,6.82,0,0,0-2.19,2.71c-1,2-1.61,3.06-1.73,3a18.83,18.83,0,0,1-4-4.83c-.25-.39,0-.65,0-.95s.42-1,.33-1.22-.33-.15-.58.33-.16.78-.35.65a5.39,5.39,0,0,1-.82-1c-.15-.25-.63-.74-.76-.66s-.15.21.57,1.25c-.26-.37-.91-1.23-1.13-1s.47.93.76,1.27c-.25-.29-.82-.89-1-.69s1,1.15,1,1.15-.9-.71-1-.5.4.67.92,1,.61.39.81.5a2,2,0,0,1,.47.61s3.77,8.06,5.12,7.32,3.14-3.38,3.14-3.38a6.21,6.21,0,0,0,.69-2.1A8,8,0,0,0,680.42,286Z"/><path class="cls-9" d="M677.49,289.45c.28-.64,1.85-3.82,3-4.3l1.51.59c.66.82-.19,2.79-.46,3s-1.35,2.48-1.58,2.72A20,20,0,0,1,677.49,289.45Z"/><path class="cls-13" d="M683.17,280.55l2.16.34a5,5,0,0,0,.33,3.55s-1.56,1.69-2.64,1.24a1.26,1.26,0,0,1-.72-1.64S683.47,283.1,683.17,280.55Z"/><path class="cls-7" d="M687.5,320.9s.58,2.31.25,2.69-5.18,1.2-5.64.82-.33-1.15.66-1.57,1.63-.22,2.29-.59.32-1.44.32-1.44Z"/><path class="cls-7" d="M681.48,320.5s.11,2.9-.27,3.22-5.3.4-5.7-.05-.17-1.09.82-1.32a13.71,13.71,0,0,0,2.26-.31c.6-.26.9-1.62.9-1.62Z"/><path class="cls-4" d="M679.4,296.34l6.32-1.12s-2.39,13-2.71,14.49-1.26,11.39-1.26,11.39l-2.75-.33s0-10.8.17-11.76S679.4,296.34,679.4,296.34Z"/><path class="cls-14" d="M681.74,301.51c-.32-2-.11-3.62-.56-4.61-.18-.4-.76-.3-.89-.7a1.27,1.27,0,0,0,.2-.31l5.24-.78s-2.38,11.2-3,13.95C682.73,309.06,682,303.14,681.74,301.51Z"/><path class="cls-4" d="M682,295.71l5.07,1.29a9.56,9.56,0,0,1,.31,4.2c-.42,2.82-.46,7.25-.51,7.85s1,10.13,1,12.41l-2.74.12s-2.09-11.94-2.21-12.2S682,295.71,682,295.71Z"/><path class="cls-9" d="M679.68,291.27c.1-2.14-.47-5.36.78-6.12,1-.64,1.92-1.15,1.92-1.15a1.49,1.49,0,0,0,1.06.86c.75.1,1.94-1,1.94-1s1.37.8,2.6,1.35c-.3,1,.32,1.88.32,2.87a5.6,5.6,0,0,0,.21,1.61,11.87,11.87,0,0,0-1.09,2.88,14.85,14.85,0,0,0,.6,4.93,32.9,32.9,0,0,1-4.69.71,14.56,14.56,0,0,1-4.64-.55A59.6,59.6,0,0,0,679.68,291.27Z"/><path class="cls-10" d="M688.51,289.66c0-.14-.06-.29-.09-.44s0-.22-.07-.33a4.52,4.52,0,0,1-.05-.83c0-.48,0-1,0-1.52-.26.19-.57.64-.88.45-1.45-.85-1.65,3.05-1.65,5a15.85,15.85,0,0,1-.82,6,30.47,30.47,0,0,0,3.11-.55s-.12-.42-.26-1.05c-.07-.31-.14-.68-.21-1.07l-.06-.4a12.4,12.4,0,0,1-.12-1.24,7.37,7.37,0,0,1,0-1.17A12.08,12.08,0,0,1,688.51,289.66Z"/><path class="cls-12" d="M685.29,277s-3.09-.47-3.45-.13-.41,1.59-.4,2.64-.43,3.07.8,3.44,3.57-.78,4.4-2.86C687.7,277.42,685.5,277,685.29,277Z"/><path class="cls-7" d="M685.81,276.74s-1.46.05-1.71,2.25c-.12,1-.37,1.76-.06,1.81a.52.52,0,0,0,.62-.45c0-.28.09-1.22.67-1s.39,1.39-.35,1.72a.91.91,0,0,0,.43,1,4.13,4.13,0,0,0,1.77-2.7C687.4,277.66,686.75,276.69,685.81,276.74Z"/><path class="cls-7" d="M686.4,276.93a2.13,2.13,0,0,0-2-1.49,4,4,0,0,0-3.71,2.18s.44.78,2.12.87a6,6,0,0,0,2.56-.47A1.83,1.83,0,0,0,686.4,276.93Z"/><path class="cls-12" d="M690.59,294.82c-.1-.5-.57-3.43-.73-4.51-1,.31-1.82.63-2.8.89a28,28,0,0,1,1,4c.11,1-.34,5.35-.48,6.87h0c0,.12,0,.22,0,.31a2,2,0,0,1-.34.89c-.23.28-1,1.19-.84,1.58s.74-.32,1-.57.26.58.21,1-1,1.18-.85,1.49.33.05.68-.34c-.16.25-.29.48-.2.54s.35-.07.59-.33c-.13.2-.21.38-.13.43s.38-.15.62-.4c-.12.18-.21.36-.12.41s.68-.38.88-1a9.14,9.14,0,0,0-.36-2.68,1.3,1.3,0,0,1,0-.65C689.16,301.52,690.88,296.2,690.59,294.82Z"/><path class="cls-9" d="M687.06,292.16a15.92,15.92,0,0,0,3.41-1c-.26-1.84-.91-4.37-1.86-5.37-.26-.28-.73-.8-1.16-.65a2.53,2.53,0,0,0-1.34,2.46,16.53,16.53,0,0,0,.56,3.25C686.79,291.13,686.91,291.71,687.06,292.16Z"/></g></g></svg>